<svg width="1879" height="775" viewBox="0 0 1879 775" fill="none" xmlns="http://www.w3.org/2000/svg">
<g clip-path="url(#clip0_15_12)">
<rect width="1879" height="775" fill="white"/>
<ellipse cx="29" cy="29" rx="29" ry="29" transform="matrix(-1 0 0 1 384 339)" fill="#F9BF05"/>
<path d="M1450.49 1102.96C1450.49 1162.35 1498.62 1210.5 1558 1210.5C1617.38 1210.5 1665.51 1162.35 1665.51 1102.96C1665.51 1043.57 1617.38 995.427 1558 995.427C1498.62 995.427 1450.49 1043.57 1450.49 1102.96Z" fill="#F9BF05"/>
<path d="M1170.76 812.917C1170.76 872.61 1219.39 921 1279.37 921C1339.35 921 1387.97 872.61 1387.97 812.917C1387.97 753.225 1339.35 704.835 1279.37 704.835C1219.39 704.835 1170.76 753.225 1170.76 812.917Z" fill="#F9BF05"/>
<path d="M785.463 628.959C785.463 670.864 819.427 704.835 861.323 704.835C903.219 704.835 937.182 670.864 937.182 628.959C937.182 587.053 903.219 553.083 861.323 553.083C819.427 553.083 785.463 587.053 785.463 628.959Z" fill="#F9BF05"/>
<path d="M652.3 642.06C652.3 683.965 686.263 717.936 728.159 717.936C770.055 717.936 804.019 683.965 804.019 642.06C804.019 600.154 770.055 566.183 728.159 566.183C686.263 566.183 652.3 600.154 652.3 642.06Z" fill="#F9BF05"/>
<path d="M600.999 589.656C600.999 617.693 623.723 640.422 651.754 640.422C679.785 640.422 702.509 617.693 702.509 589.656C702.509 561.619 679.785 538.89 651.754 538.89C623.723 538.89 600.999 561.619 600.999 589.656Z" fill="#F9BF05"/>
<path d="M409.986 541.619C409.986 569.657 432.71 592.385 460.741 592.385C488.772 592.385 511.496 569.657 511.496 541.619C511.496 513.582 488.772 490.853 460.741 490.853C432.71 490.853 409.986 513.582 409.986 541.619Z" fill="#F9BF05"/>
<path d="M113.57 607.611C118.607 638.557 148.013 659.52 179.25 654.434C210.487 649.348 231.726 620.137 226.689 589.191C221.652 558.245 192.246 537.282 161.01 542.368C129.773 547.455 108.534 576.665 113.57 607.611Z" fill="#F9BF05"/>
<path d="M-39.2466 613.138C-34.1612 644.381 -4.71637 665.586 26.5205 660.5C57.7574 655.413 78.9575 625.962 73.8722 594.718C68.7869 563.474 39.3417 542.27 8.10486 547.356C-23.132 552.443 -44.3319 581.894 -39.2466 613.138Z" fill="#F9BF05"/>
<path d="M54.9064 627.672C58.2482 648.203 77.5979 662.138 98.125 658.795C118.652 655.453 132.583 636.099 129.242 615.567C125.9 595.036 106.55 581.101 86.0232 584.444C65.4961 587.786 51.5646 607.14 54.9064 627.672Z" fill="#F9BF05"/>
<path d="M474.385 565.092C474.385 606.695 508.592 640.422 550.79 640.422C592.987 640.422 627.195 606.695 627.195 565.092C627.195 523.488 592.987 489.761 550.79 489.761C508.592 489.761 474.385 523.488 474.385 565.092Z" fill="#F9BF05"/>
<path d="M183.22 553.131C189.516 591.814 225.972 618.067 264.646 611.769C303.32 605.472 329.568 569.008 323.272 530.326C316.976 491.643 280.52 465.39 241.846 471.687C203.171 477.985 176.924 514.448 183.22 553.131Z" fill="#F9BF05"/>
<path d="M912.078 673.72C912.078 698.14 931.625 717.936 955.738 717.936C979.851 717.936 999.398 698.14 999.398 673.72C999.398 649.301 979.851 629.505 955.738 629.505C931.625 629.505 912.078 649.301 912.078 673.72Z" fill="#F9BF05"/>
<path d="M1342.13 767.61C1342.13 792.03 1362.17 811.826 1386.88 811.826C1411.6 811.826 1431.63 792.03 1431.63 767.61C1431.63 743.19 1411.6 723.395 1386.88 723.395C1362.17 723.395 1342.13 743.19 1342.13 767.61Z" fill="#F9BF05"/>
<path d="M1108.55 767.61C1108.55 792.03 1128.34 811.826 1152.75 811.826C1177.17 811.826 1196.96 792.03 1196.96 767.61C1196.96 743.19 1177.17 723.395 1152.75 723.395C1128.34 723.395 1108.55 743.19 1108.55 767.61Z" fill="#F9BF05"/>
<path d="M1046.33 767.61C1046.33 792.03 1065.88 811.826 1089.99 811.826C1114.11 811.826 1133.65 792.03 1133.65 767.61C1133.65 743.19 1114.11 723.395 1089.99 723.395C1065.88 723.395 1046.33 743.19 1046.33 767.61Z" fill="#F9BF05"/>
<path d="M939.83 726.966C929.13 753.597 946.75 785.754 979.184 798.792C1011.62 811.83 1046.59 800.811 1057.29 774.181C1067.99 747.55 1050.37 715.393 1017.93 702.355C985.498 689.317 950.53 700.336 939.83 726.966Z" fill="#F9BF05"/>
<path d="M451.978 495.326C389.076 470.523 384.794 413.108 384 367H326C319 478 230.5 490.853 211.332 512.02L380.499 571.642C430.534 556.538 514.879 520.129 451.978 495.326Z" fill="#F9BF05"/>
<path d="M1146.21 776.89L1526 829.5L1542.97 805.821L-35.348 805.821L-26.616 605.486H5.58337C15.9527 605.486 33.4168 605.486 61.2501 611.491C89.0835 617.495 98.3612 619.133 151.299 605.486C204.237 591.839 187.319 593.477 209.149 579.284C230.979 565.092 277.914 538.344 292.103 533.431C306.293 528.518 351.044 527.427 379.969 525.243C408.894 523.06 510.404 578.193 530.597 579.284C550.79 580.376 586.264 596.206 620.1 604.395C653.937 612.583 706.329 630.05 737.983 631.142C763.306 632.016 840.584 646.427 876.058 653.523C896.979 664.44 940.02 686.821 944.823 689.005C950.826 691.734 1032.69 758.876 1039.78 758.876C1045.46 758.876 1113.1 770.885 1146.21 776.89Z" fill="#F9BF05"/>
<ellipse cx="13" cy="13" rx="13" ry="13" transform="matrix(-1 0 0 1 368 355)" fill="#FFEDC3"/>
<path d="M1393 915.5C1393 969.9 1437.1 1014 1491.5 1014C1545.9 1014 1574.5 1042.9 1574.5 988.5C1574.5 934.1 1643.34 930 1588.94 930C1534.54 930 1393 861.1 1393 915.5Z" fill="#FFEDC3"/>
<path d="M1103 816.5C1103 871.176 1147.55 915.5 1202.5 915.5C1257.45 915.5 1302 871.176 1302 816.5C1302 761.824 1257.45 717.5 1202.5 717.5C1147.55 717.5 1103 761.824 1103 816.5Z" fill="#FFEDC3"/>
<path d="M750 648C750 686.384 781.116 717.5 819.5 717.5C857.884 717.5 889 686.384 889 648C889 609.616 857.884 578.5 819.5 578.5C781.116 578.5 750 609.616 750 648Z" fill="#FFEDC3"/>
<path d="M628 660C628 698.384 659.117 729.5 697.5 729.5C735.884 729.5 767 698.384 767 660C767 621.616 735.884 590.5 697.5 590.5C659.117 590.5 628 621.616 628 660Z" fill="#FFEDC3"/>
<path d="M581 612C581 637.681 601.819 658.5 627.5 658.5C653.182 658.5 674 637.681 674 612C674 586.319 653.182 565.5 627.5 565.5C601.819 565.5 581 586.319 581 612Z" fill="#FFEDC3"/>
<path d="M406 568C406 593.681 426.819 614.5 452.5 614.5C478.182 614.5 499 593.681 499 568C499 542.319 478.182 521.5 452.5 521.5C426.819 521.5 406 542.319 406 568Z" fill="#FFEDC3"/>
<path d="M134.435 628.446C139.049 656.792 165.99 675.994 194.608 671.335C223.226 666.676 242.685 639.92 238.07 611.574C233.456 583.229 206.515 564.027 177.897 568.686C149.279 573.345 129.82 600.1 134.435 628.446Z" fill="#FFEDC3"/>
<path d="M-5.57117 633.508C-0.912148 662.127 26.0643 681.549 54.6825 676.89C83.3007 672.231 102.723 645.255 98.0645 616.637C93.4054 588.019 66.4289 568.596 37.8107 573.255C9.19249 577.914 -10.2302 604.89 -5.57117 633.508Z" fill="#FFEDC3"/>
<path d="M80.6887 646.821C83.7504 665.627 101.478 678.391 120.284 675.329C139.09 672.267 151.854 654.54 148.792 635.734C145.73 616.928 128.003 604.164 109.197 607.226C90.3905 610.287 77.6271 628.015 80.6887 646.821Z" fill="#FFEDC3"/>
<path d="M465 589.5C465 627.608 496.34 658.5 535 658.5C573.66 658.5 605 627.608 605 589.5C605 551.392 573.66 520.5 535 520.5C496.34 520.5 465 551.392 465 589.5Z" fill="#FFEDC3"/>
<path d="M198.245 578.544C204.014 613.976 237.413 638.023 272.845 632.255C308.277 626.487 332.324 593.087 326.556 557.655C320.788 522.223 287.388 498.176 251.956 503.944C216.524 509.713 192.477 543.112 198.245 578.544Z" fill="#FFEDC3"/>
<path d="M866 689C866 711.368 883.909 729.5 906 729.5C928.092 729.5 946 711.368 946 689C946 666.632 928.092 648.5 906 648.5C883.909 648.5 866 666.632 866 689Z" fill="#FFEDC3"/>
<path d="M1260 775C1260 797.368 1278.36 815.5 1301 815.5C1323.64 815.5 1342 797.368 1342 775C1342 752.632 1323.64 734.5 1301 734.5C1278.36 734.5 1260 752.632 1260 775Z" fill="#FFEDC3"/>
<path d="M1046 775C1046 797.368 1064.13 815.5 1086.5 815.5C1108.87 815.5 1127 797.368 1127 775C1127 752.632 1108.87 734.5 1086.5 734.5C1064.13 734.5 1046 752.632 1046 775Z" fill="#FFEDC3"/>
<path d="M989 775C989 797.368 1006.91 815.5 1029 815.5C1051.09 815.5 1069 797.368 1069 775C1069 752.632 1051.09 734.5 1029 734.5C1006.91 734.5 989 752.632 989 775Z" fill="#FFEDC3"/>
<path d="M891.426 737.772C881.623 762.164 897.766 791.619 927.481 803.562C957.197 815.504 989.233 805.411 999.036 781.019C1008.84 756.626 992.697 727.171 962.981 715.229C933.265 703.286 901.229 713.379 891.426 737.772Z" fill="#FFEDC3"/>
<path d="M444.487 525.597C386.859 502.879 368 414 368 368L342.016 368.5C347.016 452.5 269.856 524.141 224.016 540.888L379 595.5C424.841 581.665 502.115 548.316 444.487 525.597Z" fill="#FFEDC3"/>
<path d="M1080.5 783.5L1425.5 834L1444 810L-1.99939 810L6.00061 626.5H35.5006C45.0006 626.5 61.0006 626.5 86.5006 632C112.001 637.5 120.501 639 169.001 626.5C217.501 614 202.001 615.5 222.001 602.5C242.001 589.5 285 565 298 560.5C311 556 352 555 378.5 553C405 551 498 601.5 516.5 602.5C535 603.5 567.5 618 598.5 625.5C629.5 633 677.5 649 706.5 650C729.7 650.8 800.5 664 833 670.5C852.167 680.5 891.6 701 896 703C901.5 705.5 976.5 767 983 767C988.2 767 1050.17 778 1080.5 783.5Z" fill="#FFEDC3"/>
<path fill-rule="evenodd" clip-rule="evenodd" d="M268 287.541V351.975L308.509 335.934C302.709 322.884 298.45 311.012 295.731 300.319C293.012 289.625 291.019 276.666 289.75 261.441L277.787 269.325C274.706 271.319 272.306 273.947 270.588 277.209C268.863 280.472 268 283.916 268 287.541ZM310.684 292.162C313.766 305.575 318.478 318.262 324.822 330.225H385.178C391.522 317.9 396.234 305.075 399.316 291.749C402.397 278.431 403.938 264.703 403.938 250.566C403.938 227.909 399.45 206.565 390.474 186.534C381.506 166.509 369.681 151.331 355 141C340.319 151.331 328.494 166.509 319.526 186.534C310.55 206.565 306.062 227.909 306.062 250.566C306.062 264.884 307.603 278.75 310.684 292.162ZM401.491 335.934L442 351.975V287.541C442 283.916 441.141 280.472 439.423 277.209C437.697 273.947 435.294 271.319 432.213 269.325L420.25 261.441C418.981 276.666 416.988 289.625 414.269 300.319C411.55 311.012 407.291 322.884 401.491 335.934ZM342.124 227.582C338.1 230.063 334.845 233.614 332.724 237.839C330.995 241.281 330.011 245.172 330.011 249.288C330.009 252.637 330.668 255.954 331.949 259.048C333.23 262.142 335.108 264.954 337.476 267.322C339.844 269.69 342.656 271.568 345.75 272.849C348.845 274.13 352.161 274.789 355.51 274.787C362.395 274.787 368.168 272.505 372.385 268.609C377.21 264.172 379.989 257.634 379.989 249.867C379.989 248.059 379.826 246.32 379.525 244.652H355.51V254.515H369.234C368.95 256.076 368.352 257.562 367.477 258.885C366.603 260.207 365.469 261.339 364.144 262.211C361.859 263.741 358.94 264.646 355.51 264.646C348.867 264.646 343.247 260.161 341.243 254.133C340.733 252.603 340.442 250.971 340.442 249.288C340.442 247.605 340.733 245.973 341.243 244.443C343.245 238.418 348.867 233.93 355.51 233.93C359.253 233.93 362.614 235.218 365.258 237.745L372.569 230.431C368.155 226.313 362.382 223.789 355.51 223.789C350.783 223.787 346.148 225.1 342.124 227.582Z" fill="#4285F4"/>
<path d="M268 352.021V287.587C268 283.962 268.863 280.518 270.588 277.256C272.306 273.993 274.706 271.365 277.788 269.372L289.75 261.487C291.019 276.712 293.013 289.672 295.731 300.365C298.45 311.059 302.709 322.931 308.509 335.981L268 352.021Z" fill="#34A853"/>
<path d="M442 351.975L401.491 335.934C407.291 322.884 411.55 311.012 414.269 300.319C416.988 289.625 418.981 276.665 420.25 261.44L432.213 269.325C435.294 271.319 437.697 273.947 439.423 277.209C441.141 280.472 442 283.915 442 287.54V351.975Z" fill="#EA4335"/>
<path d="M608.456 364.752H641.96C642.088 365.584 642.216 366.48 642.344 367.44C642.472 368.336 642.536 369.296 642.536 370.32C642.536 374.416 641.896 378.48 640.616 382.512C639.336 386.544 637.16 390.128 634.088 393.264C630.952 396.528 627.272 399.056 623.048 400.848C618.824 402.64 613.992 403.536 608.552 403.536C603.624 403.536 598.952 402.64 594.536 400.848C590.184 399.056 586.376 396.56 583.112 393.36C579.848 390.16 577.256 386.384 575.336 382.032C573.48 377.616 572.552 372.816 572.552 367.632C572.552 362.448 573.48 357.68 575.336 353.328C577.256 348.912 579.848 345.104 583.112 341.904C586.376 338.704 590.184 336.208 594.536 334.416C598.952 332.624 603.624 331.728 608.552 331.728C613.8 331.728 618.632 332.656 623.048 334.512C627.528 336.368 631.272 338.96 634.28 342.288L626.696 349.872C624.456 347.376 621.8 345.456 618.728 344.112C615.72 342.768 612.296 342.096 608.456 342.096C605.192 342.096 602.056 342.704 599.048 343.92C596.04 345.136 593.384 346.864 591.08 349.104C588.776 351.28 586.952 353.936 585.608 357.072C584.264 360.208 583.592 363.728 583.592 367.632C583.592 371.536 584.264 375.056 585.608 378.192C586.952 381.328 588.776 384.016 591.08 386.256C593.384 388.432 596.04 390.128 599.048 391.344C602.056 392.56 605.224 393.168 608.552 393.168C612.968 393.168 616.52 392.496 619.208 391.152C621.96 389.808 624.264 388.24 626.12 386.448C627.464 385.168 628.648 383.504 629.672 381.456C630.696 379.344 631.368 377.04 631.688 374.544H608.456V364.752ZM673.139 353.424C676.723 353.424 680.019 354.064 683.027 355.344C686.035 356.56 688.627 358.288 690.803 360.528C692.979 362.768 694.675 365.424 695.891 368.496C697.107 371.568 697.715 374.896 697.715 378.48C697.715 382.064 697.107 385.392 695.891 388.464C694.675 391.536 692.979 394.192 690.803 396.432C688.627 398.672 686.035 400.432 683.027 401.712C680.019 402.928 676.723 403.536 673.139 403.536C669.555 403.536 666.259 402.928 663.251 401.712C660.243 400.432 657.651 398.672 655.475 396.432C653.299 394.192 651.603 391.536 650.387 388.464C649.171 385.392 648.563 382.064 648.563 378.48C648.563 374.896 649.171 371.568 650.387 368.496C651.603 365.424 653.299 362.768 655.475 360.528C657.651 358.288 660.243 356.56 663.251 355.344C666.259 354.064 669.555 353.424 673.139 353.424ZM673.139 393.648C674.931 393.648 676.659 393.296 678.323 392.592C679.987 391.888 681.459 390.896 682.739 389.616C684.083 388.336 685.139 386.768 685.907 384.912C686.675 382.992 687.059 380.848 687.059 378.48C687.059 376.112 686.675 374 685.907 372.144C685.139 370.224 684.083 368.624 682.739 367.344C681.459 366.064 679.987 365.072 678.323 364.368C676.659 363.664 674.931 363.312 673.139 363.312C671.347 363.312 669.619 363.664 667.955 364.368C666.291 365.072 664.787 366.064 663.443 367.344C662.163 368.624 661.139 370.224 660.371 372.144C659.603 374 659.219 376.112 659.219 378.48C659.219 380.848 659.603 382.992 660.371 384.912C661.139 386.768 662.163 388.336 663.443 389.616C664.787 390.896 666.291 391.888 667.955 392.592C669.619 393.296 671.347 393.648 673.139 393.648ZM727.702 353.424C731.286 353.424 734.582 354.064 737.59 355.344C740.598 356.56 743.19 358.288 745.366 360.528C747.542 362.768 749.238 365.424 750.454 368.496C751.67 371.568 752.278 374.896 752.278 378.48C752.278 382.064 751.67 385.392 750.454 388.464C749.238 391.536 747.542 394.192 745.366 396.432C743.19 398.672 740.598 400.432 737.59 401.712C734.582 402.928 731.286 403.536 727.702 403.536C724.118 403.536 720.822 402.928 717.814 401.712C714.806 400.432 712.214 398.672 710.038 396.432C707.862 394.192 706.166 391.536 704.95 388.464C703.734 385.392 703.126 382.064 703.126 378.48C703.126 374.896 703.734 371.568 704.95 368.496C706.166 365.424 707.862 362.768 710.038 360.528C712.214 358.288 714.806 356.56 717.814 355.344C720.822 354.064 724.118 353.424 727.702 353.424ZM727.702 393.648C729.494 393.648 731.222 393.296 732.886 392.592C734.55 391.888 736.022 390.896 737.302 389.616C738.646 388.336 739.702 386.768 740.47 384.912C741.238 382.992 741.622 380.848 741.622 378.48C741.622 376.112 741.238 374 740.47 372.144C739.702 370.224 738.646 368.624 737.302 367.344C736.022 366.064 734.55 365.072 732.886 364.368C731.222 363.664 729.494 363.312 727.702 363.312C725.91 363.312 724.182 363.664 722.518 364.368C720.854 365.072 719.35 366.064 718.006 367.344C716.726 368.624 715.702 370.224 714.934 372.144C714.166 374 713.782 376.112 713.782 378.48C713.782 380.848 714.166 382.992 714.934 384.912C715.702 386.768 716.726 388.336 718.006 389.616C719.35 390.896 720.854 391.888 722.518 392.592C724.182 393.296 725.91 393.648 727.702 393.648ZM781.688 424.272C778.424 424.272 775.512 423.824 772.952 422.928C770.456 422.096 768.28 421.008 766.424 419.664C764.568 418.32 763.032 416.816 761.816 415.152C760.664 413.488 759.8 411.888 759.224 410.352L769.4 406.224C770.296 408.72 771.832 410.736 774.008 412.272C776.184 413.872 778.744 414.672 781.688 414.672C786.104 414.672 789.528 413.328 791.96 410.64C794.456 407.952 795.704 404.24 795.704 399.504V395.664H795.128C793.656 397.776 791.608 399.536 788.984 400.944C786.424 402.352 783.416 403.056 779.96 403.056C777.08 403.056 774.296 402.448 771.608 401.232C768.92 400.016 766.52 398.32 764.408 396.144C762.36 393.968 760.728 391.344 759.512 388.272C758.296 385.2 757.688 381.84 757.688 378.192C757.688 374.544 758.296 371.216 759.512 368.208C760.728 365.136 762.36 362.512 764.408 360.336C766.52 358.16 768.92 356.464 771.608 355.248C774.296 354.032 777.08 353.424 779.96 353.424C783.416 353.424 786.424 354.128 788.984 355.536C791.608 356.944 793.656 358.704 795.128 360.816H795.704V354.96H805.976V399.312C805.976 403.344 805.336 406.896 804.056 409.968C802.84 413.104 801.144 415.728 798.968 417.84C796.856 419.952 794.296 421.552 791.288 422.64C788.344 423.728 785.144 424.272 781.688 424.272ZM782.072 393.168C783.8 393.168 785.496 392.848 787.16 392.208C788.824 391.568 790.264 390.608 791.48 389.328C792.76 388.048 793.784 386.48 794.552 384.624C795.32 382.768 795.704 380.624 795.704 378.192C795.704 375.824 795.32 373.712 794.552 371.856C793.784 369.936 792.76 368.368 791.48 367.152C790.264 365.872 788.824 364.912 787.16 364.272C785.496 363.568 783.8 363.216 782.072 363.216C780.28 363.216 778.552 363.568 776.888 364.272C775.288 364.912 773.848 365.872 772.568 367.152C771.288 368.432 770.264 370 769.496 371.856C768.728 373.712 768.344 375.824 768.344 378.192C768.344 380.56 768.728 382.672 769.496 384.528C770.264 386.384 771.288 387.952 772.568 389.232C773.848 390.512 775.288 391.504 776.888 392.208C778.552 392.848 780.28 393.168 782.072 393.168ZM816.72 402V333.264H827.376V402H816.72ZM881.21 390.768C879.226 394.416 876.41 397.456 872.762 399.888C869.114 402.32 864.634 403.536 859.322 403.536C855.802 403.536 852.538 402.928 849.53 401.712C846.586 400.432 844.026 398.672 841.85 396.432C839.674 394.192 837.978 391.568 836.762 388.56C835.546 385.488 834.938 382.128 834.938 378.48C834.938 375.088 835.514 371.888 836.666 368.88C837.818 365.808 839.418 363.152 841.466 360.912C843.578 358.608 846.106 356.784 849.05 355.44C851.994 354.096 855.258 353.424 858.842 353.424C862.49 353.424 865.722 354.032 868.538 355.248C871.418 356.464 873.85 358.16 875.834 360.336C877.818 362.512 879.322 365.136 880.346 368.208C881.434 371.28 881.978 374.64 881.978 378.288C881.978 378.608 881.978 378.896 881.978 379.152C881.914 379.472 881.882 379.76 881.882 380.016C881.818 380.272 881.786 380.528 881.786 380.784H845.594C845.786 383.024 846.33 384.976 847.226 386.64C848.122 388.304 849.21 389.68 850.49 390.768C851.834 391.856 853.306 392.656 854.906 393.168C856.506 393.68 858.074 393.936 859.61 393.936C862.682 393.936 865.21 393.2 867.194 391.728C869.178 390.256 870.81 388.432 872.09 386.256L881.21 390.768ZM871.322 372.624C871.194 371.664 870.874 370.608 870.362 369.456C869.914 368.24 869.178 367.152 868.154 366.192C867.194 365.168 865.914 364.304 864.314 363.6C862.778 362.896 860.89 362.544 858.65 362.544C855.578 362.544 852.922 363.472 850.682 365.328C848.506 367.12 847.034 369.552 846.266 372.624H871.322ZM930.012 403.536C927.26 403.536 924.572 403.12 921.948 402.288C919.388 401.52 916.988 400.336 914.748 398.736C912.572 397.136 910.652 395.152 908.988 392.784C907.324 390.416 906.044 387.664 905.148 384.528L915.516 380.304C915.964 382.096 916.604 383.792 917.436 385.392C918.332 386.928 919.388 388.272 920.604 389.424C921.884 390.576 923.292 391.504 924.828 392.208C926.428 392.848 928.188 393.168 930.108 393.168C931.708 393.168 933.244 392.976 934.716 392.592C936.188 392.144 937.468 391.504 938.556 390.672C939.644 389.84 940.508 388.816 941.148 387.6C941.852 386.384 942.204 384.976 942.204 383.376C942.204 381.968 941.948 380.688 941.436 379.536C940.924 378.384 940.124 377.328 939.036 376.368C937.948 375.408 936.508 374.512 934.716 373.68C932.924 372.784 930.78 371.888 928.284 370.992L923.964 369.456C922.108 368.816 920.188 367.984 918.204 366.96C916.284 365.872 914.524 364.592 912.924 363.12C911.388 361.584 910.108 359.792 909.084 357.744C908.124 355.696 907.644 353.296 907.644 350.544C907.644 347.984 908.156 345.584 909.18 343.344C910.268 341.04 911.772 339.024 913.692 337.296C915.612 335.568 917.884 334.224 920.508 333.264C923.196 332.24 926.14 331.728 929.34 331.728C932.668 331.728 935.58 332.208 938.076 333.168C940.636 334.064 942.78 335.216 944.508 336.624C946.236 338.032 947.612 339.6 948.636 341.328C949.724 342.992 950.524 344.56 951.036 346.032L941.244 350.16C940.924 349.2 940.444 348.24 939.804 347.28C939.228 346.256 938.46 345.36 937.5 344.592C936.54 343.824 935.388 343.184 934.044 342.672C932.764 342.16 931.26 341.904 929.532 341.904C927.996 341.904 926.556 342.128 925.212 342.576C923.868 342.96 922.684 343.536 921.66 344.304C920.7 345.072 919.932 345.968 919.356 346.992C918.78 348.016 918.492 349.136 918.492 350.352C918.492 352.784 919.484 354.768 921.468 356.304C923.516 357.776 926.492 359.184 930.396 360.528L934.716 362.064C937.404 362.96 939.868 364.016 942.108 365.232C944.348 366.448 946.3 367.92 947.964 369.648C949.628 371.312 950.908 373.264 951.804 375.504C952.764 377.744 953.244 380.336 953.244 383.28C953.244 386.864 952.508 389.936 951.036 392.496C949.628 394.992 947.804 397.072 945.564 398.736C943.324 400.4 940.828 401.616 938.076 402.384C935.324 403.152 932.636 403.536 930.012 403.536ZM962.407 333.264H973.063V353.712L972.487 361.296H973.063C974.407 359.056 976.391 357.2 979.015 355.728C981.639 354.192 984.551 353.424 987.751 353.424C990.823 353.424 993.479 353.904 995.719 354.864C997.959 355.76 999.815 357.072 1001.29 358.8C1002.76 360.528 1003.85 362.608 1004.55 365.04C1005.26 367.408 1005.61 370.032 1005.61 372.912V402H994.951V374.352C994.951 370.448 993.991 367.632 992.071 365.904C990.215 364.176 987.847 363.312 984.967 363.312C983.111 363.312 981.447 363.728 979.975 364.56C978.567 365.328 977.319 366.384 976.231 367.728C975.207 369.072 974.407 370.608 973.831 372.336C973.319 374.064 973.063 375.856 973.063 377.712V402H962.407V333.264ZM1037.83 353.424C1041.41 353.424 1044.71 354.064 1047.71 355.344C1050.72 356.56 1053.31 358.288 1055.49 360.528C1057.67 362.768 1059.36 365.424 1060.58 368.496C1061.79 371.568 1062.4 374.896 1062.4 378.48C1062.4 382.064 1061.79 385.392 1060.58 388.464C1059.36 391.536 1057.67 394.192 1055.49 396.432C1053.31 398.672 1050.72 400.432 1047.71 401.712C1044.71 402.928 1041.41 403.536 1037.83 403.536C1034.24 403.536 1030.95 402.928 1027.94 401.712C1024.93 400.432 1022.34 398.672 1020.16 396.432C1017.99 394.192 1016.29 391.536 1015.07 388.464C1013.86 385.392 1013.25 382.064 1013.25 378.48C1013.25 374.896 1013.86 371.568 1015.07 368.496C1016.29 365.424 1017.99 362.768 1020.16 360.528C1022.34 358.288 1024.93 356.56 1027.94 355.344C1030.95 354.064 1034.24 353.424 1037.83 353.424ZM1037.83 393.648C1039.62 393.648 1041.35 393.296 1043.01 392.592C1044.67 391.888 1046.15 390.896 1047.43 389.616C1048.77 388.336 1049.83 386.768 1050.59 384.912C1051.36 382.992 1051.75 380.848 1051.75 378.48C1051.75 376.112 1051.36 374 1050.59 372.144C1049.83 370.224 1048.77 368.624 1047.43 367.344C1046.15 366.064 1044.67 365.072 1043.01 364.368C1041.35 363.664 1039.62 363.312 1037.83 363.312C1036.03 363.312 1034.31 363.664 1032.64 364.368C1030.98 365.072 1029.47 366.064 1028.13 367.344C1026.85 368.624 1025.83 370.224 1025.06 372.144C1024.29 374 1023.91 376.112 1023.91 378.48C1023.91 380.848 1024.29 382.992 1025.06 384.912C1025.83 386.768 1026.85 388.336 1028.13 389.616C1029.47 390.896 1030.98 391.888 1032.64 392.592C1034.31 393.296 1036.03 393.648 1037.83 393.648ZM1079.64 362.064H1080.22C1081.5 359.376 1083.42 357.296 1085.98 355.824C1088.6 354.352 1091.48 353.616 1094.62 353.616C1095.64 353.616 1096.38 353.648 1096.83 353.712C1097.34 353.776 1097.85 353.872 1098.36 354V364.752C1097.66 364.496 1096.96 364.336 1096.25 364.272C1095.61 364.144 1094.75 364.08 1093.66 364.08C1089.63 364.08 1086.36 365.328 1083.87 367.824C1081.44 370.256 1080.22 373.488 1080.22 377.52V402H1069.56V354.96H1079.64V362.064ZM1112.76 364.368H1104.51V354.96H1112.76V340.56H1123.42V354.96H1135.04V364.368H1123.42V385.296C1123.42 386.448 1123.55 387.504 1123.8 388.464C1124.06 389.424 1124.44 390.224 1124.96 390.864C1126.04 392.08 1127.42 392.688 1129.08 392.688C1130.11 392.688 1130.91 392.624 1131.48 392.496C1132.06 392.304 1132.67 392.048 1133.31 391.728L1136.57 401.136C1135.23 401.648 1133.82 402.032 1132.35 402.288C1130.88 402.608 1129.21 402.768 1127.36 402.768C1125.12 402.768 1123.13 402.416 1121.4 401.712C1119.68 401.008 1118.17 400.048 1116.89 398.832C1114.14 396.08 1112.76 392.336 1112.76 387.6V364.368ZM1186.93 390C1186.03 391.856 1184.91 393.616 1183.57 395.28C1182.29 396.88 1180.75 398.32 1178.96 399.6C1177.23 400.816 1175.21 401.776 1172.91 402.48C1170.61 403.184 1168.08 403.536 1165.33 403.536C1161.74 403.536 1158.45 402.928 1155.44 401.712C1152.43 400.432 1149.84 398.672 1147.66 396.432C1145.49 394.192 1143.79 391.536 1142.57 388.464C1141.36 385.392 1140.75 382.064 1140.75 378.48C1140.75 374.896 1141.36 371.568 1142.57 368.496C1143.79 365.424 1145.49 362.768 1147.66 360.528C1149.84 358.288 1152.43 356.56 1155.44 355.344C1158.45 354.064 1161.74 353.424 1165.33 353.424C1168.08 353.424 1170.57 353.776 1172.81 354.48C1175.12 355.184 1177.13 356.176 1178.86 357.456C1180.65 358.672 1182.19 360.112 1183.47 361.776C1184.75 363.376 1185.77 365.072 1186.54 366.864L1176.75 370.992C1175.66 368.56 1174.16 366.672 1172.24 365.328C1170.32 363.984 1167.89 363.312 1164.94 363.312C1163.15 363.312 1161.42 363.696 1159.76 364.464C1158.16 365.168 1156.72 366.192 1155.44 367.536C1154.22 368.816 1153.23 370.384 1152.46 372.24C1151.76 374.096 1151.41 376.176 1151.41 378.48C1151.41 380.784 1151.76 382.864 1152.46 384.72C1153.23 386.576 1154.22 388.176 1155.44 389.52C1156.72 390.8 1158.16 391.824 1159.76 392.592C1161.42 393.296 1163.15 393.648 1164.94 393.648C1167.89 393.648 1170.38 392.976 1172.43 391.632C1174.54 390.224 1176.17 388.304 1177.33 385.872L1186.93 390ZM1227.36 395.664H1226.79C1225.38 397.904 1223.36 399.792 1220.74 401.328C1218.18 402.8 1215.27 403.536 1212 403.536C1206.05 403.536 1201.6 401.776 1198.66 398.256C1195.71 394.672 1194.24 389.936 1194.24 384.048V354.96H1204.9V382.608C1204.9 386.704 1205.83 389.584 1207.68 391.248C1209.6 392.848 1212.1 393.648 1215.17 393.648C1216.96 393.648 1218.56 393.264 1219.97 392.496C1221.44 391.728 1222.69 390.704 1223.71 389.424C1224.74 388.08 1225.51 386.576 1226.02 384.912C1226.53 383.184 1226.79 381.392 1226.79 379.536V354.96H1237.44V402H1227.36V395.664ZM1253.81 364.368H1245.55V354.96H1253.81V340.56H1264.47V354.96H1276.08V364.368H1264.47V385.296C1264.47 386.448 1264.59 387.504 1264.85 388.464C1265.11 389.424 1265.49 390.224 1266 390.864C1267.09 392.08 1268.47 392.688 1270.13 392.688C1271.15 392.688 1271.95 392.624 1272.53 392.496C1273.11 392.304 1273.71 392.048 1274.35 391.728L1277.62 401.136C1276.27 401.648 1274.87 402.032 1273.39 402.288C1271.92 402.608 1270.26 402.768 1268.4 402.768C1266.16 402.768 1264.18 402.416 1262.45 401.712C1260.72 401.008 1259.22 400.048 1257.94 398.832C1255.19 396.08 1253.81 392.336 1253.81 387.6V364.368ZM1303.7 403.536C1300.82 403.536 1298.23 403.152 1295.92 402.384C1293.62 401.616 1291.6 400.624 1289.88 399.408C1288.15 398.128 1286.68 396.688 1285.46 395.088C1284.31 393.488 1283.41 391.824 1282.77 390.096L1292.37 386.064C1293.46 388.816 1295.03 390.864 1297.08 392.208C1299.12 393.488 1301.33 394.128 1303.7 394.128C1306.39 394.128 1308.5 393.584 1310.04 392.496C1311.57 391.408 1312.34 390.192 1312.34 388.848C1312.34 387.504 1311.76 386.352 1310.61 385.392C1309.46 384.368 1307.28 383.472 1304.08 382.704L1297.36 381.072C1295.89 380.752 1294.39 380.272 1292.85 379.632C1291.38 378.928 1290 378.064 1288.72 377.04C1287.44 375.952 1286.39 374.672 1285.56 373.2C1284.79 371.664 1284.4 369.872 1284.4 367.824C1284.4 365.52 1284.88 363.472 1285.84 361.68C1286.87 359.888 1288.24 358.384 1289.97 357.168C1291.7 355.952 1293.68 355.024 1295.92 354.384C1298.23 353.744 1300.66 353.424 1303.22 353.424C1305.33 353.424 1307.35 353.648 1309.27 354.096C1311.25 354.544 1313.08 355.216 1314.74 356.112C1316.4 357.008 1317.88 358.16 1319.16 359.568C1320.5 360.912 1321.56 362.512 1322.32 364.368L1312.92 368.304C1312.02 366.256 1310.61 364.784 1308.69 363.888C1306.77 362.928 1304.82 362.448 1302.84 362.448C1301.94 362.448 1301.01 362.576 1300.05 362.832C1299.16 363.024 1298.32 363.344 1297.56 363.792C1296.85 364.176 1296.24 364.688 1295.73 365.328C1295.28 365.968 1295.06 366.672 1295.06 367.44C1295.06 368.72 1295.6 369.744 1296.69 370.512C1297.84 371.216 1299.57 371.856 1301.88 372.432L1309.08 374.256C1313.94 375.472 1317.49 377.328 1319.73 379.824C1322.04 382.256 1323.19 385.136 1323.19 388.464C1323.19 390.512 1322.71 392.432 1321.75 394.224C1320.85 396.016 1319.54 397.616 1317.81 399.024C1316.08 400.432 1314 401.52 1311.57 402.288C1309.2 403.12 1306.58 403.536 1303.7 403.536ZM1353.47 333.264H1364.32V391.632H1393.79V402H1353.47V333.264ZM1431.2 396.24H1430.62C1429.21 398.096 1427.39 399.792 1425.15 401.328C1422.91 402.8 1420.06 403.536 1416.61 403.536C1414.11 403.536 1411.77 403.12 1409.6 402.288C1407.42 401.52 1405.53 400.432 1403.93 399.024C1402.33 397.552 1401.05 395.856 1400.09 393.936C1399.2 391.952 1398.75 389.776 1398.75 387.408C1398.75 384.912 1399.23 382.672 1400.19 380.688C1401.21 378.704 1402.59 377.04 1404.32 375.696C1406.11 374.352 1408.22 373.328 1410.65 372.624C1413.09 371.856 1415.71 371.472 1418.53 371.472C1421.66 371.472 1424.29 371.792 1426.4 372.432C1428.51 373.008 1430.11 373.552 1431.2 374.064V372.24C1431.2 370.832 1430.88 369.52 1430.24 368.304C1429.66 367.088 1428.83 366.064 1427.74 365.232C1426.72 364.336 1425.53 363.664 1424.19 363.216C1422.85 362.704 1421.44 362.448 1419.97 362.448C1417.6 362.448 1415.45 362.928 1413.53 363.888C1411.68 364.784 1410.01 366.256 1408.54 368.304L1400.09 362.736C1402.33 359.664 1405.12 357.36 1408.45 355.824C1411.77 354.224 1415.55 353.424 1419.77 353.424C1426.75 353.424 1432.13 355.152 1435.9 358.608C1439.74 362.064 1441.66 366.992 1441.66 373.392V402H1431.2V396.24ZM1431.2 382.416C1429.79 381.584 1428.22 380.912 1426.49 380.4C1424.77 379.888 1422.78 379.632 1420.54 379.632C1417.21 379.632 1414.56 380.4 1412.57 381.936C1410.59 383.472 1409.6 385.328 1409.6 387.504C1409.6 388.656 1409.85 389.68 1410.37 390.576C1410.88 391.408 1411.52 392.144 1412.29 392.784C1413.12 393.424 1414.05 393.904 1415.07 394.224C1416.16 394.544 1417.25 394.704 1418.33 394.704C1420.06 394.704 1421.69 394.384 1423.23 393.744C1424.83 393.04 1426.21 392.144 1427.36 391.056C1428.51 389.904 1429.44 388.592 1430.14 387.12C1430.85 385.648 1431.2 384.08 1431.2 382.416ZM1484.42 395.664H1483.85C1482.44 397.904 1480.42 399.792 1477.8 401.328C1475.24 402.8 1472.33 403.536 1469.06 403.536C1463.11 403.536 1458.66 401.776 1455.72 398.256C1452.78 394.672 1451.3 389.936 1451.3 384.048V354.96H1461.96V382.608C1461.96 386.704 1462.89 389.584 1464.74 391.248C1466.66 392.848 1469.16 393.648 1472.23 393.648C1474.02 393.648 1475.62 393.264 1477.03 392.496C1478.5 391.728 1479.75 390.704 1480.78 389.424C1481.8 388.08 1482.57 386.576 1483.08 384.912C1483.59 383.184 1483.85 381.392 1483.85 379.536V354.96H1494.5V402H1484.42V395.664ZM1515.3 361.296H1515.88C1517.28 359.056 1519.27 357.2 1521.83 355.728C1524.45 354.192 1527.4 353.424 1530.66 353.424C1536.61 353.424 1541.06 355.216 1544 358.8C1546.95 362.32 1548.42 367.024 1548.42 372.912V402H1537.76V374.352C1537.76 370.256 1536.8 367.408 1534.88 365.808C1533.03 364.144 1530.56 363.312 1527.49 363.312C1525.64 363.312 1524 363.696 1522.6 364.464C1521.19 365.232 1519.97 366.288 1518.95 367.632C1517.92 368.912 1517.16 370.416 1516.64 372.144C1516.13 373.808 1515.88 375.568 1515.88 377.424V402H1505.22V354.96H1515.3V361.296ZM1602.24 390C1601.34 391.856 1600.22 393.616 1598.88 395.28C1597.6 396.88 1596.06 398.32 1594.27 399.6C1592.54 400.816 1590.53 401.776 1588.22 402.48C1585.92 403.184 1583.39 403.536 1580.64 403.536C1577.06 403.536 1573.76 402.928 1570.75 401.712C1567.74 400.432 1565.15 398.672 1562.98 396.432C1560.8 394.192 1559.1 391.536 1557.89 388.464C1556.67 385.392 1556.06 382.064 1556.06 378.48C1556.06 374.896 1556.67 371.568 1557.89 368.496C1559.1 365.424 1560.8 362.768 1562.98 360.528C1565.15 358.288 1567.74 356.56 1570.75 355.344C1573.76 354.064 1577.06 353.424 1580.64 353.424C1583.39 353.424 1585.89 353.776 1588.13 354.48C1590.43 355.184 1592.45 356.176 1594.18 357.456C1595.97 358.672 1597.5 360.112 1598.78 361.776C1600.06 363.376 1601.09 365.072 1601.85 366.864L1592.06 370.992C1590.98 368.56 1589.47 366.672 1587.55 365.328C1585.63 363.984 1583.2 363.312 1580.26 363.312C1578.46 363.312 1576.74 363.696 1575.07 364.464C1573.47 365.168 1572.03 366.192 1570.75 367.536C1569.54 368.816 1568.54 370.384 1567.78 372.24C1567.07 374.096 1566.72 376.176 1566.72 378.48C1566.72 380.784 1567.07 382.864 1567.78 384.72C1568.54 386.576 1569.54 388.176 1570.75 389.52C1572.03 390.8 1573.47 391.824 1575.07 392.592C1576.74 393.296 1578.46 393.648 1580.26 393.648C1583.2 393.648 1585.7 392.976 1587.74 391.632C1589.86 390.224 1591.49 388.304 1592.64 385.872L1602.24 390ZM1609.94 333.264H1620.59V353.712L1620.02 361.296H1620.59C1621.94 359.056 1623.92 357.2 1626.55 355.728C1629.17 354.192 1632.08 353.424 1635.28 353.424C1638.35 353.424 1641.01 353.904 1643.25 354.864C1645.49 355.76 1647.35 357.072 1648.82 358.8C1650.29 360.528 1651.38 362.608 1652.08 365.04C1652.79 367.408 1653.14 370.032 1653.14 372.912V402H1642.48V374.352C1642.48 370.448 1641.52 367.632 1639.6 365.904C1637.75 364.176 1635.38 363.312 1632.5 363.312C1630.64 363.312 1628.98 363.728 1627.51 364.56C1626.1 365.328 1624.85 366.384 1623.76 367.728C1622.74 369.072 1621.94 370.608 1621.36 372.336C1620.85 374.064 1620.59 375.856 1620.59 377.712V402H1609.94V333.264ZM1707.05 390.768C1705.07 394.416 1702.25 397.456 1698.61 399.888C1694.96 402.32 1690.48 403.536 1685.17 403.536C1681.65 403.536 1678.38 402.928 1675.37 401.712C1672.43 400.432 1669.87 398.672 1667.69 396.432C1665.52 394.192 1663.82 391.568 1662.61 388.56C1661.39 385.488 1660.78 382.128 1660.78 378.48C1660.78 375.088 1661.36 371.888 1662.51 368.88C1663.66 365.808 1665.26 363.152 1667.31 360.912C1669.42 358.608 1671.95 356.784 1674.89 355.44C1677.84 354.096 1681.1 353.424 1684.69 353.424C1688.33 353.424 1691.57 354.032 1694.38 355.248C1697.26 356.464 1699.69 358.16 1701.68 360.336C1703.66 362.512 1705.17 365.136 1706.19 368.208C1707.28 371.28 1707.82 374.64 1707.82 378.288C1707.82 378.608 1707.82 378.896 1707.82 379.152C1707.76 379.472 1707.73 379.76 1707.73 380.016C1707.66 380.272 1707.63 380.528 1707.63 380.784H1671.44C1671.63 383.024 1672.17 384.976 1673.07 386.64C1673.97 388.304 1675.05 389.68 1676.33 390.768C1677.68 391.856 1679.15 392.656 1680.75 393.168C1682.35 393.68 1683.92 393.936 1685.45 393.936C1688.53 393.936 1691.05 393.2 1693.04 391.728C1695.02 390.256 1696.65 388.432 1697.93 386.256L1707.05 390.768ZM1697.17 372.624C1697.04 371.664 1696.72 370.608 1696.21 369.456C1695.76 368.24 1695.02 367.152 1694 366.192C1693.04 365.168 1691.76 364.304 1690.16 363.6C1688.62 362.896 1686.73 362.544 1684.49 362.544C1681.42 362.544 1678.77 363.472 1676.53 365.328C1674.35 367.12 1672.88 369.552 1672.11 372.624H1697.17ZM1715.88 354.96H1725.96V362.064H1726.53C1727.11 360.848 1727.88 359.728 1728.84 358.704C1729.86 357.616 1730.98 356.72 1732.2 356.016C1733.48 355.248 1734.79 354.672 1736.13 354.288C1737.54 353.84 1738.88 353.616 1740.16 353.616C1741.7 353.616 1743.01 353.744 1744.1 354C1745.19 354.256 1746.18 354.608 1747.08 355.056L1744 364.944C1743.3 364.624 1742.5 364.4 1741.6 364.272C1740.77 364.08 1739.75 363.984 1738.53 363.984C1736.8 363.984 1735.2 364.336 1733.73 365.04C1732.32 365.744 1731.08 366.704 1729.99 367.92C1728.9 369.136 1728.04 370.576 1727.4 372.24C1726.82 373.904 1726.53 375.664 1726.53 377.52V402H1715.88V354.96Z" fill="#5F6368"/>
<rect x="330" y="212" width="52" height="81" fill="#4285F4"/>
<circle cx="355" cy="212" r="20" fill="white"/>
</g>
<defs>
<clipPath id="clip0_15_12">
<rect width="1879" height="775" fill="white"/>
</clipPath>
</defs>
</svg>
