<svg width="1280" height="493" viewBox="0 0 1280 493" fill="none" xmlns="http://www.w3.org/2000/svg">
<g clip-path="url(#clip0_15_12)">
<rect width="1280" height="492.307" rx="28" fill="#F5EDE9"/>
<g opacity="0.54">
<path d="M171.301 490.544C178.569 493.943 186.969 493.943 194.237 490.544L220.226 478.391C223.104 477.045 226.198 476.216 229.363 475.943L257.948 473.473C265.941 472.783 273.216 468.582 277.81 462.005L294.241 438.486C296.061 435.881 298.325 433.616 300.93 431.797L324.45 415.366C331.027 410.771 335.227 403.496 335.918 395.503L338.387 366.919C338.661 363.753 339.49 360.66 340.836 357.782L352.989 331.792C356.387 324.525 356.387 316.124 352.989 308.857L340.836 282.867C339.49 279.989 338.661 276.896 338.387 273.73L335.918 245.146C335.227 237.153 331.027 229.878 324.45 225.283L300.93 208.852C298.325 207.032 296.061 204.768 294.241 202.163L277.81 178.643C273.216 172.067 265.941 167.866 257.948 167.176L229.363 164.706C226.198 164.433 223.104 163.604 220.226 162.258L194.237 150.104C186.969 146.706 178.569 146.706 171.301 150.104L145.312 162.258C142.433 163.604 139.34 164.433 136.174 164.706L107.59 167.176C99.5972 167.866 92.3221 172.067 87.7275 178.643L71.2967 202.163C69.4769 204.768 67.2126 207.032 64.6077 208.852L41.0879 225.283C34.511 229.878 30.3107 237.153 29.6202 245.146L27.1506 273.73C26.877 276.896 26.0483 279.989 24.7022 282.867L12.5488 308.857C9.15039 316.124 9.15038 324.525 12.5488 331.792L24.7022 357.782C26.0483 360.66 26.877 363.753 27.1506 366.919L29.6202 395.503C30.3107 403.496 34.511 410.771 41.0879 415.366L64.6077 431.797C67.2126 433.616 69.4769 435.881 71.2967 438.486L87.7275 462.005C92.3221 468.582 99.5971 472.783 107.59 473.473L136.174 475.943C139.34 476.216 142.433 477.045 145.312 478.391L171.301 490.544Z" fill="#FFC5BF"/>
<path d="M52.8135 48.7822C52.8135 7.63628 86.1689 -25.7191 127.315 -25.7191H276.317C317.463 -25.7191 350.819 7.63628 350.819 48.7822C350.819 89.9281 317.463 123.283 276.317 123.283H127.315C86.1689 123.283 52.8135 89.9281 52.8135 48.7822Z" fill="#FFD58F"/>
<path d="M90.0635 48.7823C90.0635 28.2094 106.741 11.5317 127.314 11.5317C147.887 11.5317 164.565 28.2094 164.565 48.7823C164.565 69.3553 147.887 86.033 127.314 86.033C106.741 86.033 90.0635 69.3553 90.0635 48.7823Z" fill="white"/>
<path fill-rule="evenodd" clip-rule="evenodd" d="M742.844 258.878C757.563 251.404 773.591 251.404 788.311 258.878C798.551 264.077 808.937 264.077 819.177 258.878C833.897 251.404 849.925 251.404 864.644 258.878C874.885 264.077 885.27 264.077 895.511 258.878C910.23 251.404 926.258 251.404 940.978 258.878C951.218 264.077 961.604 264.077 971.844 258.878C986.564 251.404 1002.59 251.404 1017.31 258.878C1027.55 264.077 1037.94 264.077 1048.18 258.878C1062.9 251.404 1078.93 251.404 1093.64 258.878L1093.64 258.878C1103.89 264.077 1114.27 264.077 1124.51 258.878C1127.8 257.209 1132.1 258.061 1134.11 260.781C1136.13 263.5 1135.1 267.057 1131.81 268.726C1117.09 276.2 1101.06 276.2 1086.34 268.726C1076.1 263.526 1065.72 263.526 1055.48 268.726C1040.76 276.2 1024.73 276.2 1010.01 268.726C999.771 263.526 989.385 263.526 979.144 268.726C964.425 276.2 948.397 276.2 933.678 268.726C923.437 263.526 913.051 263.526 902.811 268.726C888.092 276.2 872.063 276.2 857.344 268.726C847.104 263.526 836.718 263.526 826.477 268.726C811.758 276.2 795.73 276.2 781.011 268.726C770.77 263.526 760.384 263.526 750.144 268.726C746.858 270.394 742.56 269.542 740.544 266.823C738.529 264.103 739.558 260.546 742.844 258.878Z" fill="#B1CCC6"/>
<path d="M1193.59 262.775C1193.59 252.705 1185.43 244.541 1175.36 244.541H1168.14C1158.07 244.541 1149.91 252.705 1149.91 262.775C1149.91 272.846 1158.07 281.009 1168.14 281.009L1175.36 281.009C1185.43 281.009 1193.59 272.846 1193.59 262.775Z" fill="#D7FCB4"/>
<path d="M1207.13 262.775C1207.13 259.796 1209.55 257.381 1212.52 257.381L1449.08 257.381C1452.06 257.381 1454.48 259.796 1454.48 262.775C1454.48 265.753 1452.06 268.168 1449.08 268.168L1212.52 268.168C1209.55 268.168 1207.13 265.753 1207.13 262.775Z" fill="#775654"/>
</g>
<path d="M784.842 529.626C728.424 421.188 860.267 311.128 990.167 358.224L1011.64 366.011C1051.3 380.39 1096.33 380.389 1135.99 366.011L1157.47 358.224C1287.37 311.128 1419.21 421.188 1362.79 529.626L1353.47 547.555C1336.24 580.662 1336.24 618.25 1353.47 651.357L1362.79 669.286C1419.21 777.724 1287.37 887.784 1157.47 840.688L1135.99 832.901C1096.33 818.522 1051.3 818.522 1011.64 832.901L990.167 840.688C860.267 887.784 728.424 777.724 784.842 669.286L794.17 651.357C811.394 618.25 811.394 580.662 794.17 547.555L784.842 529.626Z" fill="#FCAAC3" fill-opacity="0.3"/>
<path d="M914.911 -337.74C978.154 -443.522 1163.9 -429.959 1204.18 -316.618L1210.84 -297.878C1223.14 -263.275 1252.08 -234.481 1290.77 -218.362L1311.72 -209.634C1438.44 -156.84 1422.19 -1.78309 1286.42 31.8439L1263.97 37.4037C1222.52 47.6702 1188.03 71.8321 1168.72 104.128L1158.26 121.618C1095.02 227.4 909.274 213.837 868.992 100.495L862.332 81.7558C850.033 47.1521 821.089 18.3582 782.402 2.23991L761.45 -6.48892C634.732 -59.2828 650.98 -214.34 786.753 -247.967L809.201 -253.526C850.654 -263.793 885.146 -287.955 904.455 -320.251L914.911 -337.74Z" fill="#8CFDEB"/>
<path d="M221.822 310.247H246.928C247.071 310.82 247.19 311.511 247.286 312.322C247.381 313.132 247.429 313.943 247.429 314.753C247.429 318.044 246.928 321.143 245.927 324.052C244.925 326.961 243.352 329.559 241.206 331.848C238.917 334.28 236.175 336.164 232.98 337.499C229.786 338.834 226.138 339.502 222.037 339.502C218.318 339.502 214.813 338.834 211.523 337.499C208.232 336.164 205.371 334.304 202.939 331.92C200.508 329.536 198.576 326.722 197.146 323.48C195.715 320.189 195 316.613 195 312.751C195 308.888 195.715 305.336 197.146 302.093C198.576 298.803 200.508 295.966 202.939 293.582C205.371 291.198 208.232 289.338 211.523 288.003C214.813 286.668 218.318 286 222.037 286C226.185 286 229.881 286.715 233.123 288.146C236.414 289.576 239.227 291.555 241.564 294.082L234.912 300.591C233.243 298.827 231.383 297.492 229.333 296.586C227.282 295.632 224.826 295.155 221.965 295.155C219.629 295.155 217.412 295.584 215.313 296.443C213.215 297.253 211.38 298.422 209.806 299.948C208.232 301.473 206.969 303.333 206.015 305.527C205.109 307.672 204.656 310.08 204.656 312.751C204.656 315.421 205.109 317.853 206.015 320.046C206.969 322.192 208.232 324.028 209.806 325.554C211.427 327.08 213.287 328.272 215.385 329.13C217.483 329.941 219.724 330.346 222.108 330.346C224.826 330.346 227.115 329.965 228.975 329.202C230.882 328.391 232.504 327.366 233.839 326.126C234.792 325.268 235.603 324.195 236.271 322.907C236.986 321.572 237.534 320.094 237.916 318.473H221.822V310.247ZM270.882 302.165C273.6 302.165 276.079 302.642 278.321 303.595C280.609 304.501 282.564 305.789 284.186 307.458C285.855 309.079 287.142 311.034 288.048 313.323C289.002 315.612 289.479 318.115 289.479 320.833C289.479 323.551 289.002 326.055 288.048 328.343C287.142 330.632 285.855 332.611 284.186 334.28C282.564 335.901 280.609 337.189 278.321 338.143C276.079 339.049 273.6 339.502 270.882 339.502C268.164 339.502 265.66 339.049 263.372 338.143C261.13 337.189 259.175 335.901 257.506 334.28C255.885 332.611 254.598 330.632 253.644 328.343C252.738 326.055 252.285 323.551 252.285 320.833C252.285 318.115 252.738 315.612 253.644 313.323C254.598 311.034 255.885 309.079 257.506 307.458C259.175 305.789 261.13 304.501 263.372 303.595C265.66 302.642 268.164 302.165 270.882 302.165ZM270.882 330.847C272.074 330.847 273.218 330.632 274.315 330.203C275.46 329.726 276.461 329.059 277.319 328.2C278.178 327.342 278.845 326.293 279.322 325.053C279.846 323.813 280.109 322.407 280.109 320.833C280.109 319.26 279.846 317.853 279.322 316.613C278.845 315.373 278.178 314.324 277.319 313.466C276.461 312.608 275.46 311.964 274.315 311.535C273.218 311.058 272.074 310.82 270.882 310.82C269.642 310.82 268.474 311.058 267.377 311.535C266.28 311.964 265.303 312.608 264.444 313.466C263.586 314.324 262.895 315.373 262.37 316.613C261.893 317.853 261.655 319.26 261.655 320.833C261.655 322.407 261.893 323.813 262.37 325.053C262.895 326.293 263.586 327.342 264.444 328.2C265.303 329.059 266.28 329.726 267.377 330.203C268.474 330.632 269.642 330.847 270.882 330.847ZM312.465 302.165C315.183 302.165 317.663 302.642 319.904 303.595C322.193 304.501 324.148 305.789 325.769 307.458C327.438 309.079 328.726 311.034 329.632 313.323C330.585 315.612 331.062 318.115 331.062 320.833C331.062 323.551 330.585 326.055 329.632 328.343C328.726 330.632 327.438 332.611 325.769 334.28C324.148 335.901 322.193 337.189 319.904 338.143C317.663 339.049 315.183 339.502 312.465 339.502C309.747 339.502 307.244 339.049 304.955 338.143C302.714 337.189 300.759 335.901 299.09 334.28C297.469 332.611 296.181 330.632 295.228 328.343C294.322 326.055 293.869 323.551 293.869 320.833C293.869 318.115 294.322 315.612 295.228 313.323C296.181 311.034 297.469 309.079 299.09 307.458C300.759 305.789 302.714 304.501 304.955 303.595C307.244 302.642 309.747 302.165 312.465 302.165ZM312.465 330.847C313.657 330.847 314.802 330.632 315.899 330.203C317.043 329.726 318.044 329.059 318.903 328.2C319.761 327.342 320.429 326.293 320.905 325.053C321.43 323.813 321.692 322.407 321.692 320.833C321.692 319.26 321.43 317.853 320.905 316.613C320.429 315.373 319.761 314.324 318.903 313.466C318.044 312.608 317.043 311.964 315.899 311.535C314.802 311.058 313.657 310.82 312.465 310.82C311.226 310.82 310.057 311.058 308.961 311.535C307.864 311.964 306.886 312.608 306.028 313.466C305.17 314.324 304.478 315.373 303.954 316.613C303.477 317.853 303.238 319.26 303.238 320.833C303.238 322.407 303.477 323.813 303.954 325.053C304.478 326.293 305.17 327.342 306.028 328.2C306.886 329.059 307.864 329.726 308.961 330.203C310.057 330.632 311.226 330.847 312.465 330.847ZM353.621 354.951C351.142 354.951 348.924 354.617 346.969 353.95C345.062 353.33 343.393 352.495 341.962 351.446C340.532 350.445 339.34 349.324 338.386 348.085C337.432 346.845 336.741 345.605 336.312 344.365L345.253 340.789C345.92 342.649 347.017 344.079 348.543 345.081C350.069 346.13 351.762 346.654 353.621 346.654C356.578 346.654 358.914 345.724 360.631 343.865C362.347 342.053 363.206 339.502 363.206 336.211V333.779H362.634C361.537 335.305 360.082 336.521 358.27 337.427C356.506 338.286 354.408 338.715 351.976 338.715C349.878 338.715 347.828 338.286 345.825 337.427C343.87 336.569 342.129 335.353 340.604 333.779C339.078 332.158 337.838 330.227 336.884 327.986C335.93 325.745 335.454 323.241 335.454 320.476C335.454 317.71 335.93 315.206 336.884 312.965C337.838 310.676 339.078 308.745 340.604 307.172C342.129 305.55 343.87 304.311 345.825 303.452C347.828 302.594 349.878 302.165 351.976 302.165C354.408 302.165 356.506 302.618 358.27 303.524C360.082 304.382 361.537 305.574 362.634 307.1H363.206V303.309H372.147V335.854C372.147 338.81 371.694 341.457 370.788 343.793C369.882 346.177 368.618 348.18 366.997 349.801C365.375 351.47 363.42 352.734 361.132 353.592C358.89 354.498 356.387 354.951 353.621 354.951ZM353.979 330.275C355.123 330.275 356.244 330.06 357.341 329.631C358.485 329.202 359.486 328.582 360.345 327.771C361.203 326.913 361.894 325.888 362.419 324.696C362.943 323.456 363.206 322.049 363.206 320.476C363.206 318.902 362.943 317.495 362.419 316.256C361.894 315.016 361.203 313.991 360.345 313.18C359.486 312.322 358.485 311.678 357.341 311.249C356.244 310.82 355.123 310.605 353.979 310.605C352.834 310.605 351.714 310.82 350.617 311.249C349.52 311.678 348.543 312.322 347.685 313.18C346.826 314.038 346.135 315.087 345.61 316.327C345.086 317.519 344.824 318.902 344.824 320.476C344.824 322.049 345.086 323.456 345.61 324.696C346.135 325.888 346.826 326.913 347.685 327.771C348.543 328.582 349.52 329.202 350.617 329.631C351.714 330.06 352.834 330.275 353.979 330.275ZM380.506 338.357V287.144H389.876V338.357H380.506ZM431.111 329.917C429.49 332.778 427.296 335.091 424.531 336.855C421.813 338.619 418.475 339.502 414.517 339.502C411.847 339.502 409.367 339.049 407.078 338.143C404.837 337.189 402.882 335.878 401.213 334.209C399.544 332.54 398.233 330.585 397.279 328.343C396.373 326.055 395.92 323.551 395.92 320.833C395.92 318.306 396.373 315.922 397.279 313.681C398.185 311.392 399.449 309.413 401.07 307.744C402.691 306.027 404.599 304.668 406.792 303.667C409.033 302.666 411.489 302.165 414.159 302.165C416.973 302.165 419.476 302.642 421.67 303.595C423.863 304.501 425.699 305.789 427.177 307.458C428.655 309.079 429.776 311.01 430.539 313.251C431.302 315.493 431.683 317.924 431.683 320.547C431.683 320.881 431.683 321.167 431.683 321.405C431.635 321.692 431.612 321.954 431.612 322.192C431.564 322.431 431.54 322.693 431.54 322.979H405.147C405.338 324.41 405.719 325.649 406.291 326.698C406.911 327.7 407.65 328.558 408.509 329.273C409.415 329.941 410.392 330.442 411.441 330.775C412.49 331.061 413.563 331.205 414.66 331.205C416.806 331.205 418.57 330.728 419.953 329.774C421.383 328.773 422.504 327.533 423.315 326.055L431.111 329.917ZM422.599 316.327C422.552 315.707 422.337 315.016 421.956 314.253C421.622 313.49 421.097 312.775 420.382 312.107C419.714 311.439 418.856 310.891 417.807 310.462C416.806 310.033 415.59 309.818 414.159 309.818C412.157 309.818 410.392 310.39 408.866 311.535C407.34 312.679 406.268 314.277 405.648 316.327H422.599ZM470.364 339.502C468.314 339.502 466.311 339.192 464.356 338.572C462.448 338 460.66 337.117 458.991 335.925C457.37 334.733 455.939 333.255 454.7 331.491C453.46 329.726 452.506 327.676 451.839 325.339L459.564 322.192C459.897 323.527 460.374 324.791 460.994 325.983C461.662 327.128 462.448 328.129 463.354 328.987C464.308 329.846 465.357 330.537 466.502 331.061C467.694 331.538 469.005 331.777 470.435 331.777C471.628 331.777 472.772 331.634 473.869 331.348C474.965 331.014 475.919 330.537 476.73 329.917C477.54 329.297 478.184 328.534 478.661 327.628C479.185 326.722 479.448 325.673 479.448 324.481C479.448 323.432 479.257 322.478 478.876 321.62C478.494 320.762 477.898 319.975 477.087 319.26C476.277 318.544 475.204 317.877 473.869 317.257C472.534 316.589 470.936 315.922 469.076 315.254L465.858 314.11C464.475 313.633 463.044 313.013 461.566 312.25C460.136 311.439 458.824 310.486 457.632 309.389C456.488 308.245 455.534 306.909 454.771 305.384C454.056 303.858 453.698 302.07 453.698 300.019C453.698 298.112 454.08 296.324 454.843 294.655C455.653 292.938 456.774 291.436 458.204 290.149C459.635 288.861 461.328 287.86 463.283 287.144C465.286 286.381 467.479 286 469.863 286C472.343 286 474.512 286.358 476.372 287.073C478.28 287.74 479.877 288.599 481.164 289.648C482.452 290.697 483.477 291.865 484.24 293.153C485.051 294.392 485.647 295.561 486.028 296.657L478.732 299.733C478.494 299.018 478.136 298.302 477.66 297.587C477.23 296.824 476.658 296.157 475.943 295.584C475.228 295.012 474.369 294.535 473.368 294.154C472.414 293.772 471.294 293.582 470.006 293.582C468.862 293.582 467.789 293.749 466.788 294.082C465.786 294.369 464.904 294.798 464.141 295.37C463.426 295.942 462.854 296.61 462.425 297.373C461.995 298.136 461.781 298.97 461.781 299.876C461.781 301.688 462.52 303.166 463.998 304.311C465.524 305.407 467.741 306.456 470.65 307.458L473.869 308.602C475.871 309.27 477.707 310.057 479.376 310.963C481.045 311.869 482.5 312.965 483.739 314.253C484.979 315.493 485.933 316.947 486.6 318.616C487.316 320.285 487.673 322.216 487.673 324.41C487.673 327.08 487.125 329.369 486.028 331.276C484.979 333.136 483.62 334.685 481.951 335.925C480.282 337.165 478.423 338.071 476.372 338.643C474.322 339.215 472.319 339.502 470.364 339.502ZM494.874 287.144H502.813V302.379L502.384 308.03H502.813C503.814 306.361 505.293 304.978 507.248 303.882C509.203 302.737 511.372 302.165 513.756 302.165C516.045 302.165 518.024 302.523 519.693 303.238C521.362 303.905 522.745 304.883 523.842 306.17C524.938 307.458 525.749 309.008 526.274 310.82C526.798 312.584 527.06 314.539 527.06 316.685V338.357H519.121V317.758C519.121 314.849 518.406 312.751 516.975 311.463C515.592 310.176 513.828 309.532 511.682 309.532C510.299 309.532 509.06 309.842 507.963 310.462C506.914 311.034 505.984 311.821 505.173 312.822C504.41 313.824 503.814 314.968 503.385 316.256C503.004 317.543 502.813 318.878 502.813 320.261V338.357H494.874V287.144ZM551.439 302.165C554.109 302.165 556.565 302.642 558.806 303.595C561.047 304.501 562.978 305.789 564.6 307.458C566.221 309.127 567.485 311.106 568.391 313.394C569.297 315.683 569.75 318.163 569.75 320.833C569.75 323.504 569.297 325.983 568.391 328.272C567.485 330.561 566.221 332.54 564.6 334.209C562.978 335.878 561.047 337.189 558.806 338.143C556.565 339.049 554.109 339.502 551.439 339.502C548.769 339.502 546.313 339.049 544.072 338.143C541.831 337.189 539.899 335.878 538.278 334.209C536.657 332.54 535.393 330.561 534.487 328.272C533.581 325.983 533.128 323.504 533.128 320.833C533.128 318.163 533.581 315.683 534.487 313.394C535.393 311.106 536.657 309.127 538.278 307.458C539.899 305.789 541.831 304.501 544.072 303.595C546.313 302.642 548.769 302.165 551.439 302.165ZM551.439 332.134C552.774 332.134 554.061 331.872 555.301 331.348C556.541 330.823 557.638 330.084 558.591 329.13C559.593 328.177 560.38 327.008 560.952 325.625C561.524 324.195 561.81 322.598 561.81 320.833C561.81 319.069 561.524 317.495 560.952 316.112C560.38 314.682 559.593 313.49 558.591 312.536C557.638 311.582 556.541 310.843 555.301 310.319C554.061 309.794 552.774 309.532 551.439 309.532C550.104 309.532 548.816 309.794 547.576 310.319C546.337 310.843 545.216 311.582 544.215 312.536C543.261 313.49 542.498 314.682 541.926 316.112C541.354 317.495 541.068 319.069 541.068 320.833C541.068 322.598 541.354 324.195 541.926 325.625C542.498 327.008 543.261 328.177 544.215 329.13C545.216 330.084 546.337 330.823 547.576 331.348C548.816 331.872 550.104 332.134 551.439 332.134ZM582.967 308.602H583.396C584.35 306.6 585.78 305.05 587.688 303.953C589.643 302.856 591.789 302.308 594.125 302.308C594.888 302.308 595.436 302.332 595.77 302.379C596.152 302.427 596.533 302.499 596.915 302.594V310.605C596.39 310.414 595.866 310.295 595.341 310.247C594.864 310.152 594.22 310.104 593.41 310.104C590.406 310.104 587.974 311.034 586.114 312.894C584.302 314.706 583.396 317.114 583.396 320.118V338.357H575.457V303.309H582.967V308.602ZM607.644 310.319H601.492V303.309H607.644V292.58H615.583V303.309H624.238V310.319H615.583V325.912C615.583 326.77 615.678 327.557 615.869 328.272C616.06 328.987 616.346 329.583 616.727 330.06C617.538 330.966 618.563 331.419 619.803 331.419C620.566 331.419 621.162 331.371 621.591 331.276C622.02 331.133 622.473 330.942 622.95 330.704L625.382 337.713C624.381 338.095 623.332 338.381 622.235 338.572C621.138 338.81 619.898 338.929 618.516 338.929C616.847 338.929 615.368 338.667 614.081 338.143C612.793 337.618 611.673 336.903 610.719 335.997C608.669 333.946 607.644 331.157 607.644 327.628V310.319ZM663.273 329.416C662.605 330.799 661.771 332.111 660.77 333.35C659.816 334.542 658.672 335.615 657.336 336.569C656.049 337.475 654.547 338.19 652.83 338.715C651.114 339.239 649.23 339.502 647.18 339.502C644.509 339.502 642.054 339.049 639.812 338.143C637.571 337.189 635.64 335.878 634.019 334.209C632.398 332.54 631.134 330.561 630.228 328.272C629.322 325.983 628.869 323.504 628.869 320.833C628.869 318.163 629.322 315.683 630.228 313.394C631.134 311.106 632.398 309.127 634.019 307.458C635.64 305.789 637.571 304.501 639.812 303.595C642.054 302.642 644.509 302.165 647.18 302.165C649.23 302.165 651.09 302.427 652.759 302.952C654.475 303.476 655.977 304.215 657.265 305.169C658.6 306.075 659.744 307.148 660.698 308.388C661.652 309.58 662.415 310.843 662.987 312.179L655.691 315.254C654.881 313.442 653.76 312.036 652.33 311.034C650.899 310.033 649.087 309.532 646.894 309.532C645.558 309.532 644.271 309.818 643.031 310.39C641.839 310.915 640.766 311.678 639.812 312.679C638.906 313.633 638.167 314.801 637.595 316.184C637.071 317.567 636.808 319.117 636.808 320.833C636.808 322.55 637.071 324.1 637.595 325.482C638.167 326.865 638.906 328.057 639.812 329.059C640.766 330.012 641.839 330.775 643.031 331.348C644.271 331.872 645.558 332.134 646.894 332.134C649.087 332.134 650.947 331.634 652.473 330.632C654.046 329.583 655.262 328.153 656.12 326.341L663.273 329.416ZM693.773 333.636H693.344C692.295 335.305 690.793 336.712 688.838 337.856C686.93 338.953 684.761 339.502 682.329 339.502C677.894 339.502 674.58 338.19 672.387 335.568C670.193 332.897 669.096 329.369 669.096 324.982V303.309H677.036V323.909C677.036 326.961 677.727 329.106 679.11 330.346C680.541 331.538 682.4 332.134 684.689 332.134C686.024 332.134 687.216 331.848 688.266 331.276C689.362 330.704 690.292 329.941 691.055 328.987C691.818 327.986 692.39 326.865 692.772 325.625C693.153 324.338 693.344 323.003 693.344 321.62V303.309H701.283V338.357H693.773V333.636ZM713.851 310.319H707.7V303.309H713.851V292.58H721.79V303.309H730.445V310.319H721.79V325.912C721.79 326.77 721.886 327.557 722.077 328.272C722.267 328.987 722.553 329.583 722.935 330.06C723.745 330.966 724.771 331.419 726.01 331.419C726.773 331.419 727.37 331.371 727.799 331.276C728.228 331.133 728.681 330.942 729.158 330.704L731.59 337.713C730.588 338.095 729.539 338.381 728.442 338.572C727.346 338.81 726.106 338.929 724.723 338.929C723.054 338.929 721.576 338.667 720.288 338.143C719.001 337.618 717.88 336.903 716.927 335.997C714.876 333.946 713.851 331.157 713.851 327.628V310.319ZM751.395 339.502C749.249 339.502 747.318 339.215 745.601 338.643C743.885 338.071 742.383 337.332 741.095 336.426C739.808 335.472 738.711 334.399 737.805 333.207C736.947 332.015 736.279 330.775 735.802 329.488L742.955 326.484C743.765 328.534 744.934 330.06 746.46 331.061C747.985 332.015 749.631 332.492 751.395 332.492C753.398 332.492 754.971 332.087 756.116 331.276C757.26 330.465 757.832 329.559 757.832 328.558C757.832 327.557 757.403 326.698 756.545 325.983C755.686 325.22 754.065 324.553 751.681 323.98L746.674 322.764C745.577 322.526 744.457 322.168 743.312 321.692C742.216 321.167 741.19 320.523 740.237 319.76C739.283 318.95 738.496 317.996 737.876 316.899C737.304 315.755 737.018 314.42 737.018 312.894C737.018 311.177 737.376 309.651 738.091 308.316C738.854 306.981 739.879 305.86 741.167 304.954C742.454 304.048 743.932 303.357 745.601 302.88C747.318 302.403 749.13 302.165 751.037 302.165C752.611 302.165 754.113 302.332 755.543 302.666C757.022 302.999 758.381 303.5 759.62 304.168C760.86 304.835 761.957 305.694 762.911 306.743C763.912 307.744 764.699 308.936 765.271 310.319L758.261 313.251C757.594 311.726 756.545 310.629 755.114 309.961C753.684 309.246 752.229 308.888 750.751 308.888C750.084 308.888 749.392 308.984 748.677 309.174C748.009 309.317 747.389 309.556 746.817 309.89C746.293 310.176 745.84 310.557 745.458 311.034C745.124 311.511 744.958 312.036 744.958 312.608C744.958 313.561 745.363 314.324 746.173 314.897C747.032 315.421 748.319 315.898 750.036 316.327L755.4 317.686C759.024 318.592 761.671 319.975 763.34 321.835C765.056 323.647 765.915 325.792 765.915 328.272C765.915 329.798 765.557 331.228 764.842 332.564C764.174 333.899 763.197 335.091 761.909 336.14C760.622 337.189 759.072 338 757.26 338.572C755.496 339.192 753.541 339.502 751.395 339.502ZM789.225 287.144H797.307V330.632H819.266V338.357H789.225V287.144ZM847.507 334.066H847.078C846.029 335.448 844.669 336.712 843.001 337.856C841.332 338.953 839.21 339.502 836.635 339.502C834.775 339.502 833.035 339.192 831.413 338.572C829.792 338 828.385 337.189 827.193 336.14C826.001 335.043 825.047 333.779 824.332 332.349C823.665 330.871 823.331 329.249 823.331 327.485C823.331 325.625 823.688 323.957 824.404 322.478C825.167 321 826.192 319.76 827.479 318.759C828.814 317.758 830.388 316.995 832.2 316.47C834.012 315.898 835.967 315.612 838.065 315.612C840.402 315.612 842.357 315.85 843.93 316.327C845.504 316.756 846.696 317.162 847.507 317.543V316.184C847.507 315.135 847.268 314.157 846.791 313.251C846.362 312.345 845.742 311.582 844.932 310.963C844.169 310.295 843.287 309.794 842.285 309.461C841.284 309.079 840.235 308.888 839.138 308.888C837.374 308.888 835.776 309.246 834.346 309.961C832.963 310.629 831.723 311.726 830.626 313.251L824.332 309.103C826.001 306.814 828.075 305.097 830.555 303.953C833.035 302.761 835.848 302.165 838.995 302.165C844.193 302.165 848.198 303.452 851.011 306.027C853.872 308.602 855.303 312.274 855.303 317.042V338.357H847.507V334.066ZM847.507 323.766C846.458 323.146 845.289 322.645 844.002 322.264C842.714 321.882 841.236 321.692 839.567 321.692C837.088 321.692 835.109 322.264 833.631 323.408C832.152 324.553 831.413 325.935 831.413 327.557C831.413 328.415 831.604 329.178 831.985 329.846C832.367 330.465 832.844 331.014 833.416 331.491C834.036 331.967 834.727 332.325 835.49 332.564C836.301 332.802 837.112 332.921 837.922 332.921C839.21 332.921 840.426 332.683 841.57 332.206C842.762 331.681 843.787 331.014 844.646 330.203C845.504 329.345 846.195 328.367 846.72 327.271C847.244 326.174 847.507 325.006 847.507 323.766ZM887.536 333.636H887.107C886.058 335.305 884.556 336.712 882.601 337.856C880.693 338.953 878.524 339.502 876.092 339.502C871.657 339.502 868.343 338.19 866.15 335.568C863.956 332.897 862.859 329.369 862.859 324.982V303.309H870.799V323.909C870.799 326.961 871.49 329.106 872.873 330.346C874.304 331.538 876.163 332.134 878.452 332.134C879.787 332.134 880.979 331.848 882.028 331.276C883.125 330.704 884.055 329.941 884.818 328.987C885.581 327.986 886.153 326.865 886.535 325.625C886.916 324.338 887.107 323.003 887.107 321.62V303.309H895.046V338.357H887.536V333.636ZM910.912 308.03H911.341C912.39 306.361 913.868 304.978 915.775 303.882C917.731 302.737 919.924 302.165 922.356 302.165C926.791 302.165 930.105 303.5 932.298 306.17C934.492 308.793 935.588 312.298 935.588 316.685V338.357H927.649V317.758C927.649 314.706 926.934 312.584 925.503 311.392C924.12 310.152 922.284 309.532 919.995 309.532C918.613 309.532 917.397 309.818 916.348 310.39C915.299 310.963 914.393 311.749 913.63 312.751C912.867 313.704 912.294 314.825 911.913 316.112C911.531 317.352 911.341 318.664 911.341 320.046V338.357H903.401V303.309H910.912V308.03ZM976.06 329.416C975.393 330.799 974.558 332.111 973.557 333.35C972.603 334.542 971.459 335.615 970.123 336.569C968.836 337.475 967.334 338.19 965.617 338.715C963.901 339.239 962.017 339.502 959.967 339.502C957.296 339.502 954.841 339.049 952.599 338.143C950.358 337.189 948.427 335.878 946.806 334.209C945.185 332.54 943.921 330.561 943.015 328.272C942.109 325.983 941.656 323.504 941.656 320.833C941.656 318.163 942.109 315.683 943.015 313.394C943.921 311.106 945.185 309.127 946.806 307.458C948.427 305.789 950.358 304.501 952.599 303.595C954.841 302.642 957.296 302.165 959.967 302.165C962.017 302.165 963.877 302.427 965.546 302.952C967.262 303.476 968.764 304.215 970.052 305.169C971.387 306.075 972.531 307.148 973.485 308.388C974.439 309.58 975.202 310.843 975.774 312.179L968.478 315.254C967.668 313.442 966.547 312.036 965.117 311.034C963.686 310.033 961.874 309.532 959.681 309.532C958.345 309.532 957.058 309.818 955.818 310.39C954.626 310.915 953.553 311.678 952.599 312.679C951.693 313.633 950.954 314.801 950.382 316.184C949.858 317.567 949.595 319.117 949.595 320.833C949.595 322.55 949.858 324.1 950.382 325.482C950.954 326.865 951.693 328.057 952.599 329.059C953.553 330.012 954.626 330.775 955.818 331.348C957.058 331.872 958.345 332.134 959.681 332.134C961.874 332.134 963.734 331.634 965.26 330.632C966.833 329.583 968.049 328.153 968.908 326.341L976.06 329.416ZM982.17 287.144H990.109V302.379L989.68 308.03H990.109C991.11 306.361 992.589 304.978 994.544 303.882C996.499 302.737 998.668 302.165 1001.05 302.165C1003.34 302.165 1005.32 302.523 1006.99 303.238C1008.66 303.905 1010.04 304.883 1011.14 306.17C1012.23 307.458 1013.05 309.008 1013.57 310.82C1014.09 312.584 1014.36 314.539 1014.36 316.685V338.357H1006.42V317.758C1006.42 314.849 1005.7 312.751 1004.27 311.463C1002.89 310.176 1001.12 309.532 998.978 309.532C997.595 309.532 996.356 309.842 995.259 310.462C994.21 311.034 993.28 311.821 992.469 312.822C991.706 313.824 991.11 314.968 990.681 316.256C990.3 317.543 990.109 318.878 990.109 320.261V338.357H982.17V287.144ZM1054.9 329.989C1053.42 332.707 1051.32 334.972 1048.6 336.784C1045.89 338.596 1042.55 339.502 1038.59 339.502C1035.97 339.502 1033.54 339.049 1031.29 338.143C1029.1 337.189 1027.19 335.878 1025.57 334.209C1023.95 332.54 1022.69 330.585 1021.78 328.343C1020.88 326.055 1020.42 323.551 1020.42 320.833C1020.42 318.306 1020.85 315.922 1021.71 313.681C1022.57 311.392 1023.76 309.413 1025.29 307.744C1026.86 306.027 1028.74 304.668 1030.94 303.667C1033.13 302.666 1035.56 302.165 1038.23 302.165C1040.95 302.165 1043.36 302.618 1045.46 303.524C1047.6 304.43 1049.41 305.694 1050.89 307.315C1052.37 308.936 1053.49 310.891 1054.25 313.18C1055.07 315.469 1055.47 317.972 1055.47 320.69C1055.47 320.929 1055.47 321.143 1055.47 321.334C1055.42 321.572 1055.4 321.787 1055.4 321.978C1055.35 322.168 1055.33 322.359 1055.33 322.55H1028.36C1028.51 324.219 1028.91 325.673 1029.58 326.913C1030.25 328.153 1031.06 329.178 1032.01 329.989C1033.01 330.799 1034.11 331.395 1035.3 331.777C1036.49 332.158 1037.66 332.349 1038.8 332.349C1041.09 332.349 1042.98 331.801 1044.46 330.704C1045.93 329.607 1047.15 328.248 1048.1 326.627L1054.9 329.989ZM1047.53 316.47C1047.44 315.755 1047.2 314.968 1046.82 314.11C1046.48 313.204 1045.93 312.393 1045.17 311.678C1044.46 310.915 1043.5 310.271 1042.31 309.747C1041.17 309.222 1039.76 308.96 1038.09 308.96C1035.8 308.96 1033.82 309.651 1032.15 311.034C1030.53 312.369 1029.44 314.181 1028.86 316.47H1047.53ZM1061.85 303.309H1069.36V308.602H1069.78C1070.21 307.696 1070.79 306.862 1071.5 306.099C1072.26 305.288 1073.1 304.621 1074 304.096C1074.96 303.524 1075.94 303.095 1076.94 302.809C1077.99 302.475 1078.99 302.308 1079.94 302.308C1081.09 302.308 1082.06 302.403 1082.87 302.594C1083.68 302.785 1084.42 303.047 1085.09 303.381L1082.8 310.748C1082.28 310.51 1081.68 310.343 1081.01 310.247C1080.39 310.104 1079.63 310.033 1078.73 310.033C1077.44 310.033 1076.25 310.295 1075.15 310.82C1074.1 311.344 1073.17 312.059 1072.36 312.965C1071.55 313.871 1070.91 314.944 1070.43 316.184C1070 317.424 1069.78 318.735 1069.78 320.118V338.357H1061.85V303.309Z" fill="#4A454E"/>
<rect x="419.5" y="-118.5" width="440" height="335" rx="35.5" fill="#FF9A8B"/>
<rect x="463" y="135" width="353" height="52" rx="26" fill="#FFF8F4"/>
<circle cx="497" cy="79" r="30" fill="#FAD7D2"/>
<circle cx="592" cy="79" r="30" fill="#FAD7D2"/>
<circle cx="687" cy="79" r="30" fill="#FAD7D2"/>
<circle cx="782" cy="79" r="30" fill="#FAD7D2"/>
<path fill-rule="evenodd" clip-rule="evenodd" d="M766.667 63.6667H778.167L782 67.5H797.333C799.442 67.5 801.167 69.225 801.167 71.3334V90.5C801.167 92.6083 799.442 94.3333 797.333 94.3333H766.667C764.558 94.3333 762.833 92.6083 762.833 90.5L762.837 86.0249H771.248L776.178 90.9543C777.011 91.7877 778.103 92.314 779.274 92.4473L779.536 92.4772C781.286 92.6762 782.939 91.6368 783.518 89.9742C783.869 88.9663 783.957 87.8853 783.773 86.834L781.787 75.494C781.196 72.054 778.213 69.5536 774.723 69.5536H762.851L762.852 67.5C762.852 65.3917 764.558 63.6667 766.667 63.6667ZM773.292 73.8526C773.292 72.7059 772.368 71.7817 771.233 71.7817C770.086 71.7817 769.162 72.7059 769.162 73.8526C769.162 74.9877 770.086 75.9119 771.233 75.9119C772.368 75.9119 773.292 74.9877 773.292 73.8526ZM765.231 77.7873C765.231 78.9339 766.156 79.8582 767.291 79.8582C768.437 79.8582 769.362 78.934 769.362 77.7873C769.362 76.6522 768.437 75.7279 767.291 75.7279C766.156 75.7279 765.231 76.6521 765.231 77.7873ZM769.162 81.7297C769.162 82.8763 770.086 83.7891 771.233 83.7891C772.368 83.7891 773.293 82.8763 773.292 81.7297C773.292 80.5946 772.368 79.6703 771.233 79.6703C770.086 79.6703 769.162 80.5945 769.162 81.7297ZM773.147 77.7873C773.147 78.9339 774.071 79.8582 775.218 79.8582C776.349 79.8582 777.273 78.934 777.277 77.7873C777.277 76.6522 776.353 75.7279 775.218 75.7279C774.071 75.7279 773.147 76.6521 773.147 77.7873Z" fill="#97392C"/>
<path fill-rule="evenodd" clip-rule="evenodd" d="M585.315 81.3663C584.447 82.5256 583.062 83.2775 581.5 83.2775C578.875 83.2775 576.731 81.1337 576.731 78.5C576.731 75.8662 578.866 73.7225 581.5 73.7225C583.064 73.7225 584.451 74.4765 585.319 75.6387H585.315V75.6562C585.919 76.4437 586.278 77.4324 586.278 78.4999C586.278 79.5674 585.91 80.5562 585.315 81.3524V81.3663ZM591.604 81.3699C590.352 85.7722 586.297 89 581.5 89C575.707 89 571 84.2925 571 78.5C571 72.7075 575.716 68 581.5 68C586.308 68 590.357 71.2397 591.606 75.6387H601.537H602.027H613V80.8887H613V87.1012H609.185V85.1762C609.185 84.1262 608.328 83.2774 607.269 83.2774C606.219 83.2774 605.361 84.1262 605.361 85.1849V87.0924H601.546V81.3699H601.537H591.606H591.604Z" fill="#97392C"/>
<path fill-rule="evenodd" clip-rule="evenodd" d="M499.878 96.6216L496.5 100L493.122 96.6216L490.13 93.6296H486.148H481.37V88.8519V84.8704L478.378 81.8784L475 78.5L478.378 75.1216L481.37 72.1296V68.1481V63.3704H486.148H490.13L493.122 60.3784L496.5 57L499.878 60.3784L502.87 63.3704H506.852H511.63V68.1481V72.1296L514.622 75.1216L518 78.5L514.622 81.8784L511.63 84.8704V88.8519V93.6296H506.852H502.87L499.878 96.6216ZM495.022 68.1481H496.5H498.191C500.113 68.4367 501.776 69.2403 503.149 70.4059L503.488 70.7447L500.588 73.6447V73.6363C499.503 72.6018 498.127 72.0679 496.583 72.0679C493.171 72.0679 490.393 74.9544 490.393 78.3749C490.393 81.7953 493.171 84.6818 496.583 84.6818C499.687 84.6818 501.798 82.9049 502.231 80.4772H496.583V76.4394H506.328C506.453 77.1318 506.519 77.8576 506.519 78.6085C506.519 84.5317 502.565 88.728 496.592 88.728C495.224 88.728 493.88 88.461 492.621 87.9438C491.369 87.4265 490.226 86.659 489.267 85.6996C488.308 84.7402 487.54 83.5973 487.015 82.3376C486.506 81.0862 486.23 79.7431 486.23 78.3832C486.23 77.0234 486.506 75.6719 487.023 74.4205C487.54 73.1608 488.308 72.0179 489.267 71.0585C490.226 70.0991 491.369 69.3316 492.621 68.8143C493.395 68.4964 494.201 68.2731 495.022 68.1481Z" fill="#97392C"/>
<path fill-rule="evenodd" clip-rule="evenodd" d="M701 69V70.4286H697.158H693H691.313V87.5713L691.305 87.5559C691.242 93.1091 686.721 97.5915 681.153 97.5915C675.546 97.5915 671 93.0459 671 87.4386C671 81.8314 675.546 77.2858 681.153 77.2858C682.596 77.2858 683.968 77.5867 685.211 78.1291V70.4286H685.21V61H689.158H691.21H693H697.158H701V62.4286V69ZM685.306 87.4386C685.306 89.7322 683.446 91.5915 681.153 91.5915C678.859 91.5915 677 89.7322 677 87.4386C677 85.1451 678.859 83.2858 681.153 83.2858C683.446 83.2858 685.306 85.1451 685.306 87.4386Z" fill="#97392C"/>
<path d="M504.074 158.389H503V158.333H491V163.667H498.535C497.436 166.771 494.482 169 491 169C486.582 169 483 165.418 483 161C483 156.582 486.582 153 491 153C493.039 153 494.895 153.769 496.307 155.026L500.079 151.255C497.697 149.035 494.512 147.667 491 147.667C483.637 147.667 477.667 153.637 477.667 161C477.667 168.363 483.637 174.333 491 174.333C498.363 174.333 504.333 168.363 504.333 161C504.333 160.106 504.241 159.233 504.074 158.389Z" fill="#F15B45"/>
<path d="M479.204 154.794L483.585 158.007C484.77 155.072 487.641 153 491 153C493.039 153 494.895 153.769 496.307 155.026L500.079 151.255C497.697 149.035 494.512 147.667 491 147.667C485.879 147.667 481.437 150.558 479.204 154.794Z" fill="#F15B45"/>
<path d="M491 174.333C494.444 174.333 497.573 173.015 499.939 170.872L495.813 167.38C494.429 168.432 492.738 169.001 491 169C487.532 169 484.587 166.789 483.478 163.703L479.13 167.053C481.337 171.371 485.818 174.333 491 174.333Z" fill="#F15B45"/>
<path d="M504.074 158.389H503V158.333H491V163.667H498.535C498.009 165.144 497.062 166.435 495.811 167.381L495.813 167.379L499.939 170.871C499.647 171.137 504.333 167.667 504.333 161C504.333 160.106 504.241 159.233 504.074 158.389Z" fill="#F15B45"/>
<rect x="419.5" y="-118.5" width="440" height="335" rx="35.5" stroke="#4A454E" stroke-width="17"/>
</g>
<defs>
<clipPath id="clip0_15_12">
<rect width="1280" height="492.307" rx="28" fill="white"/>
</clipPath>
</defs>
</svg>
