<svg width="650" height="250" viewBox="0 0 650 250" fill="none" xmlns="http://www.w3.org/2000/svg">
<g clip-path="url(#clip0_15_12)">
<rect width="650" height="250" fill="#F5EDE9"/>
<g opacity="0.54">
<path d="M115.301 433.88C122.569 437.279 130.969 437.279 138.237 433.88L164.226 421.727C167.104 420.381 170.198 419.552 173.363 419.278L201.948 416.809C209.941 416.118 217.216 411.918 221.81 405.341L238.241 381.821C240.061 379.216 242.325 376.952 244.93 375.132L268.45 358.701C275.027 354.107 279.227 346.832 279.918 338.839L282.387 310.255C282.661 307.089 283.49 303.996 284.836 301.117L296.989 275.128C300.387 267.86 300.387 259.46 296.989 252.192L284.836 226.203C283.49 223.324 282.661 220.231 282.387 217.066L279.918 188.481C279.227 180.488 275.027 173.213 268.45 168.619L244.93 152.188C242.325 150.368 240.061 148.104 238.241 145.499L221.81 121.979C217.216 115.402 209.941 111.202 201.948 110.511L173.363 108.042C170.198 107.768 167.104 106.939 164.226 105.593L138.237 93.44C130.969 90.0416 122.569 90.0416 115.301 93.44L89.3118 105.593C86.4332 106.939 83.3403 107.768 80.1744 108.042L51.5902 110.511C43.5972 111.202 36.3221 115.402 31.7275 121.979L15.2967 145.499C13.4769 148.104 11.2126 150.368 8.60766 152.188L-14.9121 168.619C-21.489 173.213 -25.6893 180.488 -26.3798 188.481L-28.8494 217.066C-29.123 220.231 -29.9517 223.324 -31.2978 226.203L-43.4512 252.192C-46.8496 259.46 -46.8496 267.86 -43.4512 275.128L-31.2978 301.117C-29.9517 303.996 -29.123 307.089 -28.8494 310.255L-26.3798 338.839C-25.6893 346.832 -21.489 354.107 -14.9121 358.701L8.60765 375.132C11.2126 376.952 13.4769 379.216 15.2967 381.821L31.7275 405.341C36.3221 411.918 43.5971 416.118 51.5902 416.809L80.1744 419.278C83.3403 419.552 86.4332 420.381 89.3118 421.727L115.301 433.88Z" fill="#FFC5BF"/>
<path d="M-3.18652 -7.88215C-3.18652 -49.0281 30.1688 -82.3834 71.3147 -82.3834H220.317C261.463 -82.3834 294.819 -49.0281 294.819 -7.88215V-7.88215C294.819 33.2638 261.463 66.6191 220.317 66.6191H71.3147C30.1688 66.6191 -3.18652 33.2638 -3.18652 -7.88215V-7.88215Z" fill="#FFD58F"/>
<path d="M34.0635 -7.88199C34.0635 -28.4549 50.7412 -45.1326 71.3141 -45.1326V-45.1326C91.8871 -45.1326 108.565 -28.4549 108.565 -7.88199V-7.88199C108.565 12.691 91.8871 29.3686 71.3141 29.3686V29.3686C50.7412 29.3686 34.0635 12.691 34.0635 -7.88199V-7.88199Z" fill="white"/>
<path fill-rule="evenodd" clip-rule="evenodd" d="M348.502 96.1256C355.977 92.3304 364.116 92.3304 371.591 96.1256C376.791 98.7661 382.065 98.7661 387.265 96.1256C394.74 92.3304 402.879 92.3304 410.354 96.1256C415.554 98.7661 420.828 98.7661 426.029 96.1256C433.503 92.3304 441.643 92.3304 449.117 96.1256C454.318 98.7661 459.592 98.7661 464.792 96.1256C472.266 92.3304 480.406 92.3304 487.88 96.1256C493.081 98.7661 498.355 98.7661 503.555 96.1256C511.03 92.3304 519.169 92.3304 526.644 96.1256L526.644 96.1256C531.844 98.7661 537.118 98.7661 542.318 96.1257C543.987 95.2784 546.169 95.7111 547.193 97.0921C548.217 98.4731 547.694 100.279 546.025 101.127C538.551 104.922 530.411 104.922 522.937 101.127C517.736 98.4862 512.462 98.4862 507.262 101.127C499.787 104.922 491.648 104.922 484.173 101.127C478.973 98.4862 473.699 98.4862 468.499 101.127C461.024 104.922 452.885 104.922 445.41 101.127C440.21 98.4862 434.936 98.4862 429.736 101.127C422.261 104.922 414.122 104.922 406.647 101.127C401.447 98.4862 396.173 98.4862 390.973 101.127C383.498 104.922 375.359 104.922 367.884 101.127C362.684 98.4862 357.41 98.4862 352.209 101.127C350.541 101.974 348.358 101.541 347.335 100.16C346.311 98.7792 346.834 96.9728 348.502 96.1256Z" fill="#B1CCC6"/>
<path d="M577.399 98.1049C577.399 92.991 573.253 88.8455 568.139 88.8455H564.474C559.36 88.8455 555.215 92.991 555.215 98.1049V98.1049C555.215 103.219 559.36 107.364 564.474 107.364H568.139C573.253 107.364 577.399 103.219 577.399 98.1049V98.1049Z" fill="#D7FCB4"/>
<path d="M584.273 98.1045C584.273 96.592 585.499 95.3658 587.012 95.3658L707.139 95.3658C708.652 95.3658 709.878 96.592 709.878 98.1045V98.1045C709.878 99.6171 708.652 100.843 707.139 100.843L587.012 100.843C585.499 100.843 584.273 99.6171 584.273 98.1045V98.1045Z" fill="#775654"/>
</g>
<path d="M369.829 233.616C341.18 178.549 408.131 122.659 474.096 146.576L485.003 150.53C505.142 157.832 528.008 157.832 548.147 150.53L559.054 146.576C625.019 122.659 691.97 178.549 663.321 233.616L658.584 242.72C649.837 259.532 649.837 278.62 658.584 295.432L663.321 304.537C691.97 359.603 625.019 415.493 559.054 391.577L548.147 387.623C528.008 380.321 505.142 380.321 485.003 387.623L474.096 391.577C408.131 415.493 341.18 359.603 369.829 304.537L374.566 295.432C383.313 278.62 383.313 259.532 374.566 242.72L369.829 233.616Z" fill="#FCAAC3" fill-opacity="0.3"/>
<path d="M435.88 -206.845C467.996 -260.562 562.319 -253.675 582.775 -196.119L586.157 -186.603C592.403 -169.03 607.101 -154.408 626.747 -146.223L637.386 -141.791C701.735 -114.981 693.484 -36.2418 624.537 -19.1656L613.138 -16.3422C592.088 -11.1288 574.572 1.14095 564.767 17.5412L559.457 26.4227C527.341 80.14 433.018 73.2526 412.562 15.6966L409.18 6.18042C402.935 -11.3918 388.236 -26.0137 368.59 -34.1987L357.951 -38.6313C293.602 -65.4406 301.853 -144.18 370.8 -161.257L382.2 -164.08C403.25 -169.293 420.766 -181.563 430.571 -197.963L435.88 -206.845Z" fill="#8CFDEB"/>
<mask id="mask0_15_12" style="mask-type:luminance" maskUnits="userSpaceOnUse" x="206" y="-382" width="238" height="514">
<path d="M433.057 -381.402H216.945C211.231 -381.402 206.599 -376.77 206.599 -371.056V120.945C206.599 126.658 211.231 131.29 216.945 131.29H433.057C438.771 131.29 443.403 126.658 443.403 120.945V-371.056C443.403 -376.77 438.771 -381.402 433.057 -381.402Z" fill="white"/>
</mask>
<g mask="url(#mask0_15_12)">
<g clip-path="url(#clip1_15_12)">
<rect width="240.827" height="132.771" transform="translate(204.873 -0.331055)" fill="#FE7676"/>
</g>
<mask id="mask1_15_12" style="mask-type:luminance" maskUnits="userSpaceOnUse" x="224" y="18" width="36" height="36">
<path d="M242.233 53.1219C251.756 53.1219 259.476 45.402 259.476 35.8789C259.476 26.3559 251.756 18.6359 242.233 18.6359C232.71 18.6359 224.99 26.3559 224.99 35.8789C224.99 45.402 232.71 53.1219 242.233 53.1219Z" fill="white"/>
</mask>
<g mask="url(#mask1_15_12)">
<path d="M297.062 18.7078H225.062V53.0501H297.062V18.7078Z" fill="#FFD9D9"/>
<path d="M273 11H221V63H273V11Z" fill="#FFD9D9"/>
<path fill-rule="evenodd" clip-rule="evenodd" d="M213 8.1805L213.18 8H299.82L300 8.1805V94.8195L299.82 95H213.18L213 94.8195V8.1805ZM213.361 8.361V94.639H299.639V8.361H213.361Z" fill="#A03535"/>
<path d="M238.747 37.186C238.297 37.9667 237.454 38.4936 236.486 38.4936C235.049 38.4936 233.876 37.3201 233.876 35.8784C233.876 34.4367 235.045 33.2632 236.486 33.2632C237.454 33.2632 238.297 33.79 238.747 34.5708H242.086C241.491 32.0322 239.212 30.1307 236.486 30.1307C233.32 30.1307 230.739 32.7076 230.739 35.8784C230.739 39.0492 233.315 41.626 236.486 41.626C239.207 41.626 241.491 39.7293 242.086 37.186H238.747Z" fill="#A03535"/>
<path d="M247.724 34.3125H241.976V37.4498H247.724V34.3125Z" fill="#A03535"/>
<path d="M253.728 37.1857V40.5864H251.64V39.5326C251.64 38.9578 251.171 38.4933 250.591 38.4933C250.016 38.4933 249.547 38.9578 249.547 39.5374V40.5816H247.459V37.1857H253.728Z" fill="#A03535"/>
<path d="M253.728 34.3125H247.453V37.4498H253.728V34.3125Z" fill="#A03535"/>
<path d="M242.017 34.3125H238.573V34.3221C238.904 34.7532 239.1 35.2944 239.1 35.8787C239.1 36.4631 238.899 37.0043 238.573 37.4402V37.4498H242.017C242.156 36.9468 242.233 36.4248 242.233 35.8787C242.233 35.3375 242.156 34.8107 242.017 34.3125Z" fill="#A03535"/>
<path fill-rule="evenodd" clip-rule="evenodd" d="M219 15H276V72H219V15ZM219.237 15.2375V71.7625H275.762V15.2375H219.237Z" fill="#A03535"/>
</g>
<path d="M314.655 35.8789C314.655 26.3559 306.935 18.6359 297.412 18.6359C287.889 18.6359 280.169 26.3559 280.169 35.8789C280.169 45.402 287.889 53.1219 297.412 53.1219C306.935 53.1219 314.655 45.402 314.655 35.8789Z" fill="#FFD9D9"/>
<path d="M297.412 48.523L284.767 35.8781L297.412 23.2333L310.057 35.8781L297.412 48.523Z" fill="#A03535"/>
<path d="M291.558 42.6689L284.767 35.8781L297.412 23.2333L303.735 29.5557L291.558 42.6689Z" fill="#A03535"/>
<path d="M297.412 26.9807H306.31V35.8789H297.412V26.9807Z" fill="#A03535"/>
<path d="M288.512 35.878H306.308V44.7762H288.512V35.878Z" fill="#A03535"/>
<path d="M297.412 35.878H306.31V44.7762H297.412V35.878Z" fill="#A03535"/>
<path d="M288.512 26.9807H297.41V35.8789H288.512V26.9807Z" fill="#A03535"/>
<path d="M297.42 26.9471C295.049 26.9471 292.774 27.8891 291.098 29.5657C289.421 31.2424 288.479 33.5164 288.479 35.8875C288.479 38.2587 289.421 40.5327 291.098 42.2094C292.774 43.886 295.049 44.8279 297.42 44.8279C299.791 44.8279 302.065 43.886 303.742 42.2094C305.418 40.5327 306.36 38.2587 306.36 35.8875C306.36 33.5164 305.418 31.2424 303.742 29.5657C302.065 27.8891 299.791 26.9471 297.42 26.9471Z" fill="#A03535"/>
<path d="M302.937 34.7309C303.007 35.1196 303.044 35.527 303.044 35.9486C303.044 39.2737 300.824 41.6294 297.471 41.6294C296.703 41.6294 295.949 41.4795 295.242 41.1892C294.539 40.8988 293.898 40.4679 293.359 39.9293C292.821 39.3908 292.39 38.7492 292.095 38.042C291.809 37.3395 291.654 36.5855 291.654 35.8221C291.654 35.0587 291.809 34.3 292.099 33.5975C292.39 32.8903 292.821 32.2487 293.359 31.7102C293.898 31.1716 294.539 30.7407 295.242 30.4504C295.949 30.16 296.703 30.0101 297.466 30.0101C299.036 30.0101 300.347 30.5862 301.354 31.5229L299.714 33.162V33.1573C299.106 32.5766 298.333 32.2768 297.466 32.2768C295.551 32.2768 293.991 33.8973 293.991 35.8174C293.991 37.7376 295.551 39.358 297.466 39.358C299.209 39.358 300.394 38.3604 300.637 36.9976H297.466V34.7309H302.937Z" fill="#FFD9D9"/>
<path d="M369.833 35.8789C369.833 26.3559 362.113 18.6359 352.59 18.6359C343.067 18.6359 335.347 26.3559 335.347 35.8789C335.347 45.402 343.067 53.1219 352.59 53.1219C362.113 53.1219 369.833 45.402 369.833 35.8789Z" fill="#FFD9D9"/>
<path d="M355.64 40.8051V27.5034H352.192V40.8051H355.64Z" fill="#A03535"/>
<path d="M361.209 30.9518V25.5326H352.192V30.9518H361.209Z" fill="#A03535"/>
<path fill-rule="evenodd" clip-rule="evenodd" d="M349.802 43.1161C351.12 43.1161 352.189 42.0474 352.189 40.7292C352.189 39.4109 351.12 38.3423 349.802 38.3423C348.484 38.3423 347.415 39.4109 347.415 40.7292C347.415 42.0474 348.484 43.1161 349.802 43.1161ZM349.802 46.5647C353.025 46.5647 355.638 43.952 355.638 40.7292C355.638 37.5063 353.025 34.8937 349.802 34.8937C346.579 34.8937 343.967 37.5063 343.967 40.7292C343.967 43.952 346.579 46.5647 349.802 46.5647Z" fill="#A03535"/>
<path d="M355.64 30.9518V25.5326H352.192V30.9518H355.64Z" fill="#A03535"/>
<path d="M425.009 35.8789C425.009 26.3559 417.289 18.6359 407.766 18.6359C398.243 18.6359 390.523 26.3559 390.523 35.8789C390.523 45.402 398.243 53.1219 407.766 53.1219C417.289 53.1219 425.009 45.402 425.009 35.8789Z" fill="#FFD9D9"/>
<mask id="mask2_15_12" style="mask-type:luminance" maskUnits="userSpaceOnUse" x="224" y="73" width="202" height="31">
<path d="M410.065 73.8134H239.934C231.68 73.8134 224.99 80.504 224.99 88.7573C224.99 97.0106 231.68 103.701 239.934 103.701H410.065C418.318 103.701 425.008 97.0106 425.008 88.7573C425.008 80.504 418.318 73.8134 410.065 73.8134Z" fill="white"/>
</mask>
<g mask="url(#mask2_15_12)">
<path d="M425.008 73.8134H224.99V103.701H425.008V73.8134Z" fill="#FEEEEE"/>
<mask id="mask3_15_12" style="mask-type:luminance" maskUnits="userSpaceOnUse" x="233" y="81" width="15" height="15">
<path d="M247.406 81.8602H233.612V95.9779H247.406V81.8602Z" fill="white"/>
</mask>
<g mask="url(#mask3_15_12)">
<path d="M247.399 89.051C247.399 88.4728 247.352 88.0504 247.251 87.613H240.646V90.2236H244.523C244.445 90.8725 244.023 91.849 243.085 92.506L243.072 92.5933L245.16 94.2107L245.304 94.2257C246.633 92.998 247.399 91.1926 247.399 89.051Z" fill="#E23D3D"/>
<path d="M240.646 95.9296C242.546 95.9296 244.14 95.3043 245.305 94.226L243.085 92.5063C242.49 92.9201 241.693 93.2098 240.646 93.2098C238.786 93.2098 237.207 91.9827 236.644 90.2866L236.562 90.2935L234.39 91.9741L234.362 92.0528C235.519 94.3507 237.895 95.9296 240.646 95.9296Z" fill="#8F2D2D"/>
<path d="M236.644 90.2863C236.496 89.8483 236.41 89.3793 236.41 88.8948C236.41 88.4103 236.496 87.9413 236.637 87.5033L236.633 87.4102L234.434 85.7031L234.362 85.737C233.885 86.6906 233.612 87.7614 233.612 88.8948C233.612 90.0282 233.885 91.099 234.362 92.0526L236.644 90.2863Z" fill="#E23D3D"/>
<path d="M240.646 84.58C241.967 84.58 242.858 85.1508 243.366 85.6278L245.352 83.6891C244.132 82.5557 242.546 81.8602 240.646 81.8602C237.895 81.8602 235.519 83.4391 234.362 85.737L236.637 87.5033C237.207 85.8071 238.786 84.58 240.646 84.58Z" fill="#F97878"/>
</g>
</g>
<path d="M345.116 125.542H304.882C304.565 125.542 304.308 125.799 304.308 126.116C304.308 126.434 304.565 126.691 304.882 126.691H345.116C345.433 126.691 345.691 126.434 345.691 126.116C345.691 125.799 345.433 125.542 345.116 125.542Z" fill="#FFD9D9"/>
<path fill-rule="evenodd" clip-rule="evenodd" d="M402.252 30.5213L397.801 34.4841L401.4 36.296C401.945 35.0927 402.503 34.0683 403.074 33.2228C403.646 32.3773 404.418 31.4426 405.392 30.4185L404.111 30.0771C403.784 29.9869 403.455 29.9827 403.124 30.0647C402.793 30.1461 402.502 30.2983 402.252 30.5213ZM404.557 33.7542C403.82 34.7919 403.234 35.8978 402.798 37.0717L406.509 41.2411C407.751 40.9213 408.927 40.4581 410.037 39.8513C411.147 39.2451 412.19 38.5072 413.166 37.6377C414.731 36.2443 415.93 34.6216 416.761 32.7695C417.593 30.9185 417.914 29.1682 417.725 27.5186C416.109 27.1398 414.333 27.2564 412.398 27.8685C410.462 28.4805 408.712 29.4831 407.147 30.8765C406.158 31.7572 405.294 32.7164 404.557 33.7542ZM407.119 42.7191L408.502 46.504L412.953 42.5411C413.203 42.3182 413.388 42.047 413.508 41.7277C413.627 41.4078 413.661 41.0802 413.609 40.7447L413.418 39.4334C412.289 40.2821 411.271 40.9414 410.364 41.4113C409.459 41.8812 408.377 42.3171 407.119 42.7191ZM410.952 31.9541C410.533 31.8288 410.088 31.8223 409.665 31.9356C409.321 32.0279 408.992 32.1992 408.708 32.4523C408.476 32.6582 408.288 32.9077 408.153 33.1865C408.018 33.4653 407.939 33.768 407.921 34.0772C407.903 34.3864 407.946 34.6962 408.048 34.9887C408.15 35.2812 408.308 35.5508 408.515 35.7821C408.938 36.2577 409.45 36.5162 409.979 36.5678C410.582 36.6282 411.205 36.4181 411.742 35.9404C411.866 35.8292 411.977 35.711 412.073 35.5877L410.596 33.9287L409.915 34.5353L410.759 35.4834C410.634 35.5597 410.494 35.6098 410.349 35.6307C410.204 35.6516 410.056 35.6429 409.914 35.605C409.668 35.5413 409.426 35.3953 409.215 35.1584C408.807 34.6995 408.771 34.0354 409.064 33.5262C409.138 33.3969 409.233 33.2765 409.349 33.173C409.465 33.0695 409.596 32.9892 409.733 32.9303C410.272 32.698 410.928 32.8103 411.337 33.2692C411.567 33.5278 411.685 33.8392 411.673 34.1773L412.628 34.2325C412.641 33.6743 412.46 33.1203 412.037 32.6456C411.747 32.3189 411.371 32.0795 410.952 31.9541Z" fill="#A03535"/>
<path d="M397.797 34.4873L402.248 30.5244C402.498 30.3015 402.789 30.1493 403.12 30.0679C403.451 29.9859 403.781 29.99 404.108 30.0803L405.388 30.4217C404.415 31.4457 403.642 32.3805 403.07 33.226C402.499 34.0715 401.941 35.0959 401.396 36.2992L397.797 34.4873Z" fill="#A03535"/>
<path d="M408.501 46.5038L407.118 42.7189C408.376 42.3169 409.458 41.881 410.364 41.4111C411.27 40.9412 412.288 40.2819 413.417 39.4332L413.609 40.7445C413.66 41.0799 413.626 41.4076 413.507 41.7275C413.387 42.0468 413.202 42.318 412.952 42.5409L408.501 46.5038Z" fill="#A03535"/>
<path d="M400.057 39.4408C400.607 38.9378 401.258 38.699 402.01 38.7246C402.763 38.7507 403.39 39.0386 403.893 39.5883C404.396 40.1379 404.631 40.7887 404.597 41.5406C404.564 42.2926 404.272 42.9201 403.723 43.423C403.33 43.7824 402.688 44.0779 401.797 44.3096C400.905 44.5413 399.68 44.7281 398.121 44.87C398.401 43.3303 398.695 42.1304 399.004 41.2701C399.313 40.4099 399.665 39.8001 400.057 39.4408Z" fill="#A03535"/>
</g>
<path fill-rule="evenodd" clip-rule="evenodd" d="M216.944 -381.402C211.23 -381.402 206.598 -376.77 206.598 -371.056V120.943C206.598 126.657 211.23 131.289 216.944 131.289H433.056C438.77 131.289 443.402 126.657 443.402 120.943V-371.056C443.402 -376.77 438.77 -381.402 433.056 -381.402H216.944ZM202 -371.056C202 -379.309 208.691 -386 216.944 -386H433.056C441.309 -386 448 -379.309 448 -371.056V120.943C448 129.197 441.309 135.887 433.056 135.887H216.944C208.691 135.887 202 129.197 202 120.943V-371.056Z" fill="#4A454E"/>
<path d="M109.621 186.313H122.37C122.442 186.604 122.503 186.955 122.551 187.366C122.6 187.778 122.624 188.19 122.624 188.601C122.624 190.272 122.37 191.846 121.861 193.323C121.353 194.8 120.554 196.12 119.464 197.282C118.302 198.517 116.909 199.474 115.287 200.152C113.665 200.83 111.812 201.169 109.73 201.169C107.841 201.169 106.061 200.83 104.39 200.152C102.72 199.474 101.267 198.529 100.032 197.319C98.7968 196.108 97.8161 194.679 97.0897 193.033C96.3632 191.362 96 189.546 96 187.584C96 185.623 96.3632 183.819 97.0897 182.172C97.8161 180.502 98.7968 179.061 100.032 177.85C101.267 176.639 102.72 175.695 104.39 175.017C106.061 174.339 107.841 174 109.73 174C111.836 174 113.713 174.363 115.36 175.09C117.03 175.816 118.459 176.821 119.646 178.104L116.268 181.41C115.42 180.514 114.476 179.836 113.435 179.376C112.393 178.891 111.146 178.649 109.693 178.649C108.507 178.649 107.381 178.867 106.315 179.303C105.25 179.715 104.318 180.308 103.519 181.083C102.72 181.858 102.078 182.802 101.594 183.916C101.133 185.006 100.903 186.228 100.903 187.584C100.903 188.94 101.133 190.175 101.594 191.289C102.078 192.379 102.72 193.311 103.519 194.086C104.342 194.861 105.286 195.466 106.352 195.902C107.417 196.314 108.555 196.52 109.766 196.52C111.146 196.52 112.309 196.326 113.253 195.938C114.222 195.527 115.045 195.006 115.723 194.377C116.207 193.941 116.619 193.396 116.958 192.742C117.321 192.064 117.599 191.313 117.793 190.49H109.621V186.313ZM134.534 182.209C135.914 182.209 137.173 182.451 138.311 182.935C139.474 183.395 140.466 184.049 141.29 184.897C142.137 185.72 142.791 186.713 143.251 187.875C143.735 189.037 143.977 190.309 143.977 191.689C143.977 193.069 143.735 194.34 143.251 195.503C142.791 196.665 142.137 197.67 141.29 198.517C140.466 199.341 139.474 199.994 138.311 200.479C137.173 200.939 135.914 201.169 134.534 201.169C133.154 201.169 131.882 200.939 130.72 200.479C129.582 199.994 128.589 199.341 127.742 198.517C126.918 197.67 126.264 196.665 125.78 195.503C125.32 194.34 125.09 193.069 125.09 191.689C125.09 190.309 125.32 189.037 125.78 187.875C126.264 186.713 126.918 185.72 127.742 184.897C128.589 184.049 129.582 183.395 130.72 182.935C131.882 182.451 133.154 182.209 134.534 182.209ZM134.534 196.774C135.139 196.774 135.72 196.665 136.277 196.447C136.858 196.205 137.367 195.866 137.803 195.43C138.239 194.994 138.578 194.461 138.82 193.832C139.086 193.202 139.219 192.488 139.219 191.689C139.219 190.89 139.086 190.175 138.82 189.546C138.578 188.916 138.239 188.383 137.803 187.948C137.367 187.512 136.858 187.185 136.277 186.967C135.72 186.725 135.139 186.604 134.534 186.604C133.904 186.604 133.311 186.725 132.754 186.967C132.197 187.185 131.701 187.512 131.265 187.948C130.829 188.383 130.478 188.916 130.211 189.546C129.969 190.175 129.848 190.89 129.848 191.689C129.848 192.488 129.969 193.202 130.211 193.832C130.478 194.461 130.829 194.994 131.265 195.43C131.701 195.866 132.197 196.205 132.754 196.447C133.311 196.665 133.904 196.774 134.534 196.774ZM155.65 182.209C157.031 182.209 158.29 182.451 159.428 182.935C160.59 183.395 161.583 184.049 162.406 184.897C163.254 185.72 163.908 186.713 164.368 187.875C164.852 189.037 165.094 190.309 165.094 191.689C165.094 193.069 164.852 194.34 164.368 195.503C163.908 196.665 163.254 197.67 162.406 198.517C161.583 199.341 160.59 199.994 159.428 200.479C158.29 200.939 157.031 201.169 155.65 201.169C154.27 201.169 152.999 200.939 151.837 200.479C150.699 199.994 149.706 199.341 148.858 198.517C148.035 197.67 147.381 196.665 146.897 195.503C146.437 194.34 146.207 193.069 146.207 191.689C146.207 190.309 146.437 189.037 146.897 187.875C147.381 186.713 148.035 185.72 148.858 184.897C149.706 184.049 150.699 183.395 151.837 182.935C152.999 182.451 154.27 182.209 155.65 182.209ZM155.65 196.774C156.256 196.774 156.837 196.665 157.394 196.447C157.975 196.205 158.484 195.866 158.919 195.43C159.355 194.994 159.694 194.461 159.936 193.832C160.203 193.202 160.336 192.488 160.336 191.689C160.336 190.89 160.203 190.175 159.936 189.546C159.694 188.916 159.355 188.383 158.919 187.948C158.484 187.512 157.975 187.185 157.394 186.967C156.837 186.725 156.256 186.604 155.65 186.604C155.021 186.604 154.428 186.725 153.871 186.967C153.314 187.185 152.817 187.512 152.381 187.948C151.946 188.383 151.595 188.916 151.328 189.546C151.086 190.175 150.965 190.89 150.965 191.689C150.965 192.488 151.086 193.202 151.328 193.832C151.595 194.461 151.946 194.994 152.381 195.43C152.817 195.866 153.314 196.205 153.871 196.447C154.428 196.665 155.021 196.774 155.65 196.774ZM176.55 209.014C175.291 209.014 174.165 208.845 173.172 208.506C172.203 208.191 171.356 207.767 170.629 207.235C169.903 206.726 169.298 206.157 168.813 205.527C168.329 204.898 167.978 204.268 167.76 203.639L172.3 201.823C172.639 202.767 173.196 203.493 173.971 204.002C174.746 204.535 175.606 204.801 176.55 204.801C178.051 204.801 179.238 204.329 180.109 203.384C180.981 202.464 181.417 201.169 181.417 199.498V198.263H181.127C180.57 199.038 179.831 199.655 178.911 200.115C178.015 200.551 176.949 200.769 175.715 200.769C174.649 200.769 173.608 200.551 172.591 200.115C171.598 199.68 170.714 199.062 169.939 198.263C169.164 197.44 168.535 196.459 168.051 195.321C167.566 194.183 167.324 192.912 167.324 191.507C167.324 190.103 167.566 188.831 168.051 187.693C168.535 186.531 169.164 185.55 169.939 184.751C170.714 183.928 171.598 183.298 172.591 182.863C173.608 182.427 174.649 182.209 175.715 182.209C176.949 182.209 178.015 182.439 178.911 182.899C179.831 183.335 180.57 183.94 181.127 184.715H181.417V182.79H185.957V199.316C185.957 200.818 185.727 202.162 185.267 203.348C184.807 204.559 184.165 205.576 183.342 206.399C182.519 207.247 181.526 207.888 180.364 208.324C179.226 208.784 177.954 209.014 176.55 209.014ZM176.732 196.483C177.313 196.483 177.882 196.374 178.439 196.156C179.02 195.938 179.528 195.624 179.964 195.212C180.4 194.776 180.751 194.256 181.018 193.65C181.284 193.021 181.417 192.306 181.417 191.507C181.417 190.708 181.284 189.994 181.018 189.364C180.751 188.735 180.4 188.214 179.964 187.802C179.528 187.366 179.02 187.04 178.439 186.822C177.882 186.604 177.313 186.495 176.732 186.495C176.15 186.495 175.581 186.604 175.024 186.822C174.467 187.04 173.971 187.366 173.535 187.802C173.099 188.238 172.748 188.771 172.482 189.401C172.216 190.006 172.082 190.708 172.082 191.507C172.082 192.306 172.216 193.021 172.482 193.65C172.748 194.256 173.099 194.776 173.535 195.212C173.971 195.624 174.467 195.938 175.024 196.156C175.581 196.374 176.15 196.483 176.732 196.483ZM190.202 200.588V174.581H194.961V200.588H190.202ZM215.9 196.302C215.077 197.755 213.963 198.929 212.559 199.825C211.178 200.721 209.483 201.169 207.474 201.169C206.118 201.169 204.858 200.939 203.696 200.479C202.558 199.994 201.565 199.329 200.718 198.481C199.87 197.633 199.204 196.641 198.72 195.503C198.26 194.34 198.03 193.069 198.03 191.689C198.03 190.405 198.26 189.195 198.72 188.057C199.18 186.894 199.822 185.889 200.645 185.042C201.468 184.17 202.437 183.48 203.551 182.972C204.689 182.463 205.936 182.209 207.292 182.209C208.721 182.209 209.992 182.451 211.106 182.935C212.22 183.395 213.152 184.049 213.903 184.897C214.653 185.72 215.222 186.701 215.61 187.839C215.997 188.977 216.191 190.212 216.191 191.544C216.191 191.713 216.191 191.858 216.191 191.979C216.167 192.125 216.154 192.258 216.154 192.379C216.13 192.5 216.118 192.633 216.118 192.778H202.715C202.812 193.505 203.006 194.134 203.297 194.667C203.611 195.176 203.987 195.612 204.422 195.975C204.883 196.314 205.379 196.568 205.912 196.738C206.444 196.883 206.989 196.955 207.546 196.955C208.636 196.955 209.532 196.713 210.234 196.229C210.96 195.721 211.529 195.091 211.941 194.34L215.9 196.302ZM211.578 189.401C211.554 189.086 211.445 188.735 211.251 188.347C211.082 187.96 210.815 187.597 210.452 187.258C210.113 186.919 209.677 186.64 209.144 186.422C208.636 186.204 208.018 186.095 207.292 186.095C206.275 186.095 205.379 186.386 204.604 186.967C203.829 187.548 203.284 188.359 202.97 189.401H211.578ZM235.833 201.169C234.792 201.169 233.775 201.011 232.782 200.697C231.814 200.406 230.906 199.958 230.058 199.353C229.235 198.747 228.508 197.997 227.879 197.101C227.249 196.205 226.765 195.164 226.426 193.977L230.349 192.379C230.518 193.057 230.76 193.699 231.075 194.304C231.414 194.885 231.814 195.394 232.274 195.83C232.758 196.265 233.291 196.616 233.872 196.883C234.477 197.125 235.143 197.246 235.87 197.246C236.475 197.246 237.056 197.173 237.613 197.028C238.17 196.859 238.654 196.616 239.066 196.302C239.478 195.987 239.805 195.599 240.047 195.139C240.313 194.679 240.446 194.147 240.446 193.541C240.446 193.008 240.349 192.524 240.156 192.088C239.962 191.652 239.659 191.253 239.248 190.89C238.836 190.526 238.291 190.187 237.613 189.873C236.935 189.534 236.124 189.195 235.18 188.856L233.545 188.275C232.843 188.032 232.116 187.718 231.366 187.33C230.639 186.919 229.973 186.434 229.368 185.877C228.787 185.296 228.303 184.618 227.915 183.843C227.552 183.068 227.37 182.16 227.37 181.119C227.37 180.151 227.564 179.242 227.952 178.395C228.363 177.523 228.932 176.76 229.659 176.107C230.385 175.453 231.245 174.944 232.238 174.581C233.255 174.194 234.368 174 235.579 174C236.838 174 237.94 174.182 238.884 174.545C239.853 174.884 240.664 175.32 241.318 175.852C241.972 176.385 242.492 176.978 242.88 177.632C243.291 178.262 243.594 178.855 243.788 179.412L240.083 180.974C239.962 180.611 239.78 180.247 239.538 179.884C239.32 179.497 239.03 179.158 238.667 178.867C238.303 178.577 237.867 178.334 237.359 178.141C236.875 177.947 236.306 177.85 235.652 177.85C235.071 177.85 234.526 177.935 234.017 178.104C233.509 178.25 233.061 178.468 232.673 178.758C232.31 179.049 232.02 179.388 231.802 179.775C231.584 180.163 231.475 180.586 231.475 181.046C231.475 181.967 231.85 182.717 232.601 183.298C233.376 183.855 234.502 184.388 235.979 184.897L237.613 185.478C238.63 185.817 239.562 186.216 240.41 186.676C241.257 187.136 241.996 187.693 242.626 188.347C243.255 188.977 243.739 189.715 244.078 190.563C244.442 191.41 244.623 192.391 244.623 193.505C244.623 194.861 244.345 196.023 243.788 196.992C243.255 197.936 242.565 198.723 241.718 199.353C240.87 199.982 239.926 200.442 238.884 200.733C237.843 201.024 236.826 201.169 235.833 201.169ZM248.28 174.581H252.311V182.318L252.094 185.187H252.311C252.82 184.34 253.571 183.637 254.563 183.08C255.556 182.499 256.658 182.209 257.869 182.209C259.031 182.209 260.036 182.39 260.883 182.754C261.731 183.093 262.433 183.589 262.99 184.243C263.547 184.897 263.959 185.684 264.225 186.604C264.491 187.5 264.625 188.492 264.625 189.582V200.588H260.593V190.127C260.593 188.65 260.23 187.584 259.503 186.931C258.801 186.277 257.905 185.95 256.815 185.95C256.113 185.95 255.484 186.107 254.927 186.422C254.394 186.713 253.922 187.112 253.51 187.621C253.123 188.129 252.82 188.71 252.602 189.364C252.408 190.018 252.311 190.696 252.311 191.398V200.588H248.28V174.581ZM277.004 182.209C278.36 182.209 279.607 182.451 280.745 182.935C281.884 183.395 282.864 184.049 283.688 184.897C284.511 185.744 285.153 186.749 285.613 187.911C286.073 189.074 286.303 190.333 286.303 191.689C286.303 193.045 286.073 194.304 285.613 195.466C285.153 196.629 284.511 197.633 283.688 198.481C282.864 199.329 281.884 199.994 280.745 200.479C279.607 200.939 278.36 201.169 277.004 201.169C275.648 201.169 274.401 200.939 273.263 200.479C272.125 199.994 271.144 199.329 270.321 198.481C269.498 197.633 268.856 196.629 268.396 195.466C267.936 194.304 267.706 193.045 267.706 191.689C267.706 190.333 267.936 189.074 268.396 187.911C268.856 186.749 269.498 185.744 270.321 184.897C271.144 184.049 272.125 183.395 273.263 182.935C274.401 182.451 275.648 182.209 277.004 182.209ZM277.004 197.428C277.682 197.428 278.336 197.294 278.966 197.028C279.595 196.762 280.152 196.386 280.636 195.902C281.145 195.418 281.545 194.825 281.835 194.122C282.126 193.396 282.271 192.585 282.271 191.689C282.271 190.793 282.126 189.994 281.835 189.292C281.545 188.565 281.145 187.96 280.636 187.475C280.152 186.991 279.595 186.616 278.966 186.349C278.336 186.083 277.682 185.95 277.004 185.95C276.326 185.95 275.673 186.083 275.043 186.349C274.413 186.616 273.844 186.991 273.336 187.475C272.851 187.96 272.464 188.565 272.173 189.292C271.883 189.994 271.738 190.793 271.738 191.689C271.738 192.585 271.883 193.396 272.173 194.122C272.464 194.825 272.851 195.418 273.336 195.902C273.844 196.386 274.413 196.762 275.043 197.028C275.673 197.294 276.326 197.428 277.004 197.428ZM293.015 185.478H293.233C293.717 184.461 294.443 183.674 295.412 183.117C296.405 182.56 297.494 182.281 298.681 182.281C299.068 182.281 299.347 182.293 299.516 182.318C299.71 182.342 299.904 182.378 300.097 182.427V186.495C299.831 186.398 299.565 186.337 299.298 186.313C299.056 186.265 298.729 186.241 298.318 186.241C296.792 186.241 295.557 186.713 294.613 187.657C293.693 188.577 293.233 189.8 293.233 191.326V200.588H289.201V182.79H293.015V185.478ZM305.546 186.349H302.422V182.79H305.546V177.342H309.578V182.79H313.972V186.349H309.578V194.268C309.578 194.704 309.626 195.103 309.723 195.466C309.82 195.829 309.965 196.132 310.159 196.374C310.57 196.834 311.091 197.064 311.721 197.064C312.108 197.064 312.411 197.04 312.629 196.992C312.846 196.919 313.077 196.822 313.319 196.701L314.554 200.261C314.045 200.454 313.512 200.6 312.955 200.697C312.399 200.818 311.769 200.878 311.067 200.878C310.219 200.878 309.469 200.745 308.815 200.479C308.161 200.212 307.592 199.849 307.108 199.389C306.066 198.348 305.546 196.931 305.546 195.139V186.349ZM333.795 196.047C333.456 196.75 333.032 197.416 332.524 198.045C332.04 198.651 331.458 199.195 330.78 199.68C330.127 200.14 329.364 200.503 328.492 200.769C327.62 201.036 326.664 201.169 325.623 201.169C324.267 201.169 323.02 200.939 321.882 200.479C320.743 199.994 319.763 199.329 318.939 198.481C318.116 197.633 317.475 196.629 317.014 195.466C316.554 194.304 316.324 193.045 316.324 191.689C316.324 190.333 316.554 189.074 317.014 187.911C317.475 186.749 318.116 185.744 318.939 184.897C319.763 184.049 320.743 183.395 321.882 182.935C323.02 182.451 324.267 182.209 325.623 182.209C326.664 182.209 327.608 182.342 328.456 182.608C329.328 182.875 330.09 183.25 330.744 183.734C331.422 184.194 332.003 184.739 332.488 185.369C332.972 185.974 333.359 186.616 333.65 187.294L329.945 188.856C329.533 187.936 328.964 187.221 328.238 186.713C327.511 186.204 326.591 185.95 325.477 185.95C324.799 185.95 324.146 186.095 323.516 186.386C322.911 186.652 322.366 187.04 321.882 187.548C321.421 188.032 321.046 188.626 320.756 189.328C320.489 190.03 320.356 190.817 320.356 191.689C320.356 192.561 320.489 193.347 320.756 194.05C321.046 194.752 321.421 195.357 321.882 195.866C322.366 196.35 322.911 196.738 323.516 197.028C324.146 197.294 324.799 197.428 325.477 197.428C326.591 197.428 327.536 197.173 328.311 196.665C329.11 196.132 329.727 195.406 330.163 194.486L333.795 196.047ZM349.283 198.19H349.066C348.533 199.038 347.77 199.752 346.777 200.333C345.809 200.89 344.707 201.169 343.472 201.169C341.22 201.169 339.537 200.503 338.423 199.171C337.309 197.815 336.752 196.023 336.752 193.795V182.79H340.784V193.251C340.784 194.8 341.135 195.89 341.837 196.52C342.564 197.125 343.508 197.428 344.671 197.428C345.349 197.428 345.954 197.282 346.487 196.992C347.044 196.701 347.516 196.314 347.903 195.83C348.291 195.321 348.581 194.752 348.775 194.122C348.969 193.469 349.066 192.791 349.066 192.088V182.79H353.097V200.588H349.283V198.19ZM359.479 186.349H356.356V182.79H359.479V177.342H363.511V182.79H367.906V186.349H363.511V194.268C363.511 194.704 363.559 195.103 363.656 195.466C363.753 195.829 363.898 196.132 364.092 196.374C364.504 196.834 365.024 197.064 365.654 197.064C366.041 197.064 366.344 197.04 366.562 196.992C366.78 196.919 367.01 196.822 367.252 196.701L368.487 200.261C367.979 200.454 367.446 200.6 366.889 200.697C366.332 200.818 365.702 200.878 365 200.878C364.153 200.878 363.402 200.745 362.748 200.479C362.094 200.212 361.525 199.849 361.041 199.389C360 198.348 359.479 196.931 359.479 195.139V186.349ZM378.545 201.169C377.455 201.169 376.474 201.024 375.602 200.733C374.731 200.442 373.968 200.067 373.314 199.607C372.66 199.123 372.103 198.578 371.643 197.972C371.208 197.367 370.868 196.738 370.626 196.084L374.259 194.558C374.67 195.599 375.263 196.374 376.038 196.883C376.813 197.367 377.649 197.609 378.545 197.609C379.562 197.609 380.361 197.403 380.942 196.992C381.523 196.58 381.813 196.12 381.813 195.612C381.813 195.103 381.596 194.667 381.16 194.304C380.724 193.917 379.901 193.578 378.69 193.287L376.147 192.669C375.59 192.548 375.021 192.367 374.44 192.125C373.883 191.858 373.363 191.531 372.878 191.144C372.394 190.732 371.994 190.248 371.68 189.691C371.389 189.11 371.244 188.432 371.244 187.657C371.244 186.785 371.425 186.01 371.789 185.332C372.176 184.654 372.697 184.085 373.351 183.625C374.004 183.165 374.755 182.814 375.602 182.572C376.474 182.33 377.394 182.209 378.363 182.209C379.162 182.209 379.925 182.294 380.651 182.463C381.402 182.633 382.092 182.887 382.722 183.226C383.351 183.565 383.908 184.001 384.392 184.533C384.901 185.042 385.3 185.647 385.591 186.349L382.031 187.839C381.692 187.064 381.16 186.507 380.433 186.168C379.707 185.805 378.968 185.623 378.218 185.623C377.879 185.623 377.528 185.671 377.164 185.768C376.825 185.841 376.511 185.962 376.22 186.132C375.954 186.277 375.724 186.471 375.53 186.713C375.36 186.955 375.276 187.221 375.276 187.512C375.276 187.996 375.481 188.384 375.893 188.674C376.329 188.94 376.983 189.183 377.854 189.401L380.579 190.091C382.419 190.551 383.763 191.253 384.61 192.197C385.482 193.117 385.918 194.207 385.918 195.466C385.918 196.241 385.736 196.968 385.373 197.646C385.034 198.324 384.538 198.929 383.884 199.462C383.23 199.994 382.443 200.406 381.523 200.697C380.627 201.011 379.634 201.169 378.545 201.169ZM397.755 174.581H401.859V196.665H413.01V200.588H397.755V174.581ZM427.351 198.408H427.133C426.601 199.111 425.911 199.752 425.063 200.333C424.216 200.89 423.138 201.169 421.83 201.169C420.886 201.169 420.002 201.011 419.179 200.697C418.356 200.406 417.641 199.994 417.036 199.462C416.431 198.905 415.946 198.263 415.583 197.537C415.244 196.786 415.075 195.963 415.075 195.067C415.075 194.122 415.256 193.275 415.619 192.524C416.007 191.774 416.527 191.144 417.181 190.635C417.859 190.127 418.658 189.74 419.578 189.473C420.499 189.183 421.491 189.037 422.557 189.037C423.743 189.037 424.736 189.158 425.535 189.401C426.334 189.618 426.94 189.824 427.351 190.018V189.328C427.351 188.795 427.23 188.299 426.988 187.839C426.77 187.379 426.455 186.991 426.044 186.676C425.656 186.337 425.208 186.083 424.7 185.914C424.191 185.72 423.659 185.623 423.102 185.623C422.206 185.623 421.395 185.805 420.668 186.168C419.966 186.507 419.336 187.064 418.779 187.839L415.583 185.732C416.431 184.57 417.484 183.698 418.743 183.117C420.002 182.511 421.431 182.209 423.029 182.209C425.668 182.209 427.702 182.863 429.131 184.17C430.584 185.478 431.31 187.342 431.31 189.764V200.588H427.351V198.408ZM427.351 193.178C426.819 192.863 426.225 192.609 425.572 192.415C424.918 192.222 424.167 192.125 423.32 192.125C422.06 192.125 421.056 192.415 420.305 192.996C419.554 193.578 419.179 194.28 419.179 195.103C419.179 195.539 419.276 195.926 419.469 196.265C419.663 196.58 419.905 196.859 420.196 197.101C420.511 197.343 420.862 197.525 421.249 197.646C421.661 197.767 422.073 197.827 422.484 197.827C423.138 197.827 423.755 197.706 424.337 197.464C424.942 197.198 425.463 196.859 425.899 196.447C426.334 196.011 426.685 195.515 426.952 194.958C427.218 194.401 427.351 193.808 427.351 193.178ZM447.679 198.19H447.461C446.928 199.038 446.165 199.752 445.173 200.333C444.204 200.89 443.102 201.169 441.867 201.169C439.615 201.169 437.932 200.503 436.819 199.171C435.705 197.815 435.148 196.023 435.148 193.795V182.79H439.179V193.251C439.179 194.8 439.531 195.89 440.233 196.52C440.959 197.125 441.904 197.428 443.066 197.428C443.744 197.428 444.349 197.282 444.882 196.992C445.439 196.701 445.911 196.314 446.299 195.83C446.686 195.321 446.977 194.752 447.17 194.122C447.364 193.469 447.461 192.791 447.461 192.088V182.79H451.493V200.588H447.679V198.19ZM459.549 185.187H459.767C460.3 184.34 461.051 183.637 462.019 183.08C463.012 182.499 464.126 182.209 465.361 182.209C467.613 182.209 469.296 182.887 470.41 184.243C471.523 185.575 472.08 187.354 472.08 189.582V200.588H468.049V190.127C468.049 188.577 467.685 187.5 466.959 186.894C466.257 186.265 465.324 185.95 464.162 185.95C463.46 185.95 462.842 186.095 462.31 186.386C461.777 186.676 461.317 187.076 460.93 187.584C460.542 188.069 460.251 188.638 460.058 189.292C459.864 189.921 459.767 190.587 459.767 191.289V200.588H455.735V182.79H459.549V185.187ZM492.632 196.047C492.293 196.75 491.87 197.416 491.361 198.045C490.877 198.651 490.296 199.195 489.618 199.68C488.964 200.14 488.201 200.503 487.329 200.769C486.458 201.036 485.501 201.169 484.46 201.169C483.104 201.169 481.857 200.939 480.719 200.479C479.581 199.994 478.6 199.329 477.777 198.481C476.954 197.633 476.312 196.629 475.852 195.466C475.392 194.304 475.162 193.045 475.162 191.689C475.162 190.333 475.392 189.074 475.852 187.911C476.312 186.749 476.954 185.744 477.777 184.897C478.6 184.049 479.581 183.395 480.719 182.935C481.857 182.451 483.104 182.209 484.46 182.209C485.501 182.209 486.446 182.342 487.293 182.608C488.165 182.875 488.928 183.25 489.581 183.734C490.259 184.194 490.841 184.739 491.325 185.369C491.809 185.974 492.197 186.616 492.487 187.294L488.782 188.856C488.371 187.936 487.802 187.221 487.075 186.713C486.349 186.204 485.429 185.95 484.315 185.95C483.637 185.95 482.983 186.095 482.353 186.386C481.748 186.652 481.203 187.04 480.719 187.548C480.259 188.032 479.883 188.626 479.593 189.328C479.327 190.03 479.193 190.817 479.193 191.689C479.193 192.561 479.327 193.347 479.593 194.05C479.883 194.752 480.259 195.357 480.719 195.866C481.203 196.35 481.748 196.738 482.353 197.028C482.983 197.294 483.637 197.428 484.315 197.428C485.429 197.428 486.373 197.173 487.148 196.665C487.947 196.132 488.564 195.406 489 194.486L492.632 196.047ZM495.735 174.581H499.767V182.318L499.549 185.187H499.767C500.275 184.34 501.026 183.637 502.019 183.08C503.011 182.499 504.113 182.209 505.324 182.209C506.486 182.209 507.491 182.39 508.339 182.754C509.186 183.093 509.888 183.589 510.445 184.243C511.002 184.897 511.414 185.684 511.68 186.604C511.947 187.5 512.08 188.492 512.08 189.582V200.588H508.048V190.127C508.048 188.65 507.685 187.584 506.958 186.931C506.256 186.277 505.36 185.95 504.271 185.95C503.568 185.95 502.939 186.107 502.382 186.422C501.849 186.713 501.377 187.112 500.965 187.621C500.578 188.129 500.275 188.71 500.057 189.364C499.864 190.018 499.767 190.696 499.767 191.398V200.588H495.735V174.581ZM532.668 196.338C531.917 197.718 530.851 198.868 529.471 199.789C528.091 200.709 526.396 201.169 524.386 201.169C523.054 201.169 521.819 200.939 520.681 200.479C519.567 199.994 518.599 199.329 517.776 198.481C516.952 197.633 516.311 196.641 515.851 195.503C515.39 194.34 515.16 193.069 515.16 191.689C515.16 190.405 515.378 189.195 515.814 188.057C516.25 186.894 516.855 185.889 517.63 185.042C518.429 184.17 519.386 183.48 520.5 182.972C521.614 182.463 522.849 182.209 524.205 182.209C525.585 182.209 526.808 182.439 527.873 182.899C528.963 183.359 529.883 184.001 530.634 184.824C531.384 185.647 531.953 186.64 532.341 187.802C532.752 188.965 532.958 190.236 532.958 191.616C532.958 191.737 532.958 191.846 532.958 191.943C532.934 192.064 532.922 192.173 532.922 192.27C532.898 192.367 532.886 192.464 532.886 192.561H519.192C519.265 193.408 519.471 194.147 519.81 194.776C520.149 195.406 520.56 195.926 521.045 196.338C521.553 196.75 522.11 197.052 522.715 197.246C523.321 197.44 523.914 197.537 524.495 197.537C525.657 197.537 526.614 197.258 527.365 196.701C528.115 196.144 528.733 195.454 529.217 194.631L532.668 196.338ZM528.926 189.473C528.878 189.11 528.757 188.71 528.563 188.275C528.394 187.814 528.115 187.403 527.728 187.04C527.365 186.652 526.88 186.325 526.275 186.059C525.694 185.793 524.979 185.659 524.132 185.659C522.97 185.659 521.965 186.01 521.117 186.713C520.294 187.391 519.737 188.311 519.446 189.473H528.926ZM536.195 182.79H540.009V185.478H540.227C540.445 185.018 540.736 184.594 541.099 184.206C541.486 183.795 541.91 183.456 542.37 183.189C542.854 182.899 543.351 182.681 543.859 182.536C544.392 182.366 544.901 182.281 545.385 182.281C545.966 182.281 546.462 182.33 546.874 182.427C547.286 182.524 547.661 182.657 548 182.826L546.838 186.567C546.571 186.446 546.269 186.362 545.93 186.313C545.615 186.24 545.227 186.204 544.767 186.204C544.114 186.204 543.508 186.337 542.951 186.604C542.419 186.87 541.946 187.233 541.535 187.693C541.123 188.153 540.796 188.698 540.554 189.328C540.336 189.957 540.227 190.623 540.227 191.326V200.588H536.195V182.79Z" fill="#4A454E"/>
</g>
<defs>
<clipPath id="clip0_15_12">
<rect width="650" height="250" fill="white"/>
</clipPath>
<clipPath id="clip1_15_12">
<rect width="240.827" height="132.771" fill="white" transform="translate(204.873 -0.331055)"/>
</clipPath>
</defs>
</svg>
