<svg width="1280" height="640" viewBox="0 0 1280 640" fill="none" xmlns="http://www.w3.org/2000/svg">
<g clip-path="url(#clip0_961_35)">
<rect width="1280" height="640" fill="white"/>
<path fill-rule="evenodd" clip-rule="evenodd" d="M891.525 412.997C792.773 440.691 720.19 497.604 696.821 577.013C673.453 656.421 703.639 743.578 771.649 820.347C839.649 897.104 945.365 963.349 1072.7 1000.82C1200.03 1038.29 1324.78 1039.87 1423.51 1012.18C1522.26 984.479 1594.85 927.57 1618.22 848.161C1641.58 768.753 1611.4 681.596 1543.39 604.827C1475.39 528.07 1369.67 461.828 1242.34 424.357C1115.01 386.885 990.257 385.307 891.525 412.997ZM890.985 411.071C990.137 383.265 1115.27 384.878 1242.91 422.438C1370.54 459.998 1476.6 526.421 1544.89 603.501C1613.16 680.568 1643.77 768.419 1620.13 848.726C1596.5 929.032 1523.19 986.299 1424.05 1014.1C1324.9 1041.91 1199.77 1040.3 1072.13 1002.74C944.498 965.179 838.437 898.753 770.152 821.673C701.877 744.606 671.27 656.755 694.903 576.448C718.535 496.141 791.849 438.873 890.985 411.071Z" fill="black" fill-opacity="0.2"/>
<path fill-rule="evenodd" clip-rule="evenodd" d="M-36.9926 -139.302C-135.744 -111.608 -208.328 -54.6948 -231.696 24.7137C-255.064 104.122 -224.878 191.279 -156.868 268.048C-88.8685 344.805 16.848 411.047 144.179 448.518C271.51 485.989 396.256 487.568 494.992 459.878C593.744 432.184 666.327 375.271 689.696 295.862C713.064 216.454 682.878 129.297 614.868 52.5281C546.868 -24.2288 441.152 -90.4713 313.821 -127.943C186.49 -165.414 61.7437 -166.992 -36.9926 -139.302ZM-37.5326 -141.228C61.6188 -169.034 186.751 -167.421 314.385 -129.861C442.019 -92.3008 548.08 -25.8778 616.365 51.2018C684.64 128.269 715.247 216.12 691.615 296.427C667.982 376.733 594.668 434.002 495.532 461.804C396.381 489.61 271.248 487.997 143.614 450.437C15.9805 412.877 -90.0797 346.454 -158.365 269.374C-226.64 192.307 -257.247 104.456 -233.615 24.149C-209.982 -56.1576 -136.668 -113.426 -37.5326 -141.228Z" fill="black" fill-opacity="0.05"/>
<path d="M485 468.5C485 480.926 474.926 491 462.5 491C450.073 491 440 480.926 440 468.5C440 456.074 450.073 446 462.5 446C474.926 446 485 456.074 485 468.5Z" fill="#0EBC5F"/>
<path d="M1233.87 599.172C1233.85 599.076 1233.84 598.982 1233.82 598.887C1233.42 596.45 1232.63 594.093 1231.49 591.903C1230.37 589.757 1228.93 587.796 1227.21 586.091C1225.95 584.845 1224.56 583.743 1223.06 582.807L1223.09 582.761L1224.51 580.32L1226.88 576.224C1226.96 576.088 1227.02 575.949 1227.07 575.805C1227.16 575.514 1227.19 575.206 1227.16 574.902C1227.12 574.598 1227.02 574.305 1226.86 574.043C1226.68 573.737 1226.43 573.482 1226.12 573.301C1225.84 573.136 1225.53 573.036 1225.21 573.008C1224.96 572.987 1224.71 573.009 1224.47 573.071C1224.2 573.144 1223.94 573.269 1223.72 573.44C1223.5 573.611 1223.31 573.825 1223.17 574.069L1222.17 575.781L1220.79 578.165C1220.32 578.979 1219.85 579.792 1219.38 580.606L1219.22 580.873C1219.15 580.845 1219.08 580.817 1219.01 580.789C1216.34 579.772 1213.51 579.253 1210.65 579.257C1210.57 579.256 1210.49 579.257 1210.41 579.258C1207.86 579.281 1205.33 579.72 1202.92 580.557C1202.65 580.652 1202.38 580.751 1202.12 580.856C1202.07 580.773 1202.02 580.69 1201.97 580.607L1200.56 578.166L1198.18 574.07C1197.98 573.717 1197.68 573.43 1197.32 573.242C1196.96 573.054 1196.55 572.973 1196.14 573.009C1195.82 573.036 1195.51 573.136 1195.23 573.302C1194.75 573.589 1194.4 574.053 1194.25 574.595C1194.15 574.993 1194.16 575.414 1194.28 575.806C1194.33 575.949 1194.39 576.089 1194.47 576.225C1194.8 576.795 1195.13 577.366 1195.46 577.937C1195.92 578.732 1196.39 579.526 1196.85 580.321L1198.26 582.762L1198.27 582.782C1196.76 583.724 1195.35 584.835 1194.09 586.093C1193.15 587.029 1192.29 588.043 1191.51 589.125C1190.88 590.01 1190.31 590.939 1189.81 591.905C1188.94 593.568 1188.28 595.33 1187.83 597.152C1187.69 597.727 1187.57 598.306 1187.48 598.889C1187.46 598.984 1187.45 599.079 1187.43 599.174C1187.38 599.516 1187.33 599.858 1187.3 600.202H1234C1233.96 599.857 1233.91 599.514 1233.86 599.174L1233.87 599.172Z" fill="#34A853"/>
<path d="M1222.79 593.743C1223.73 593.121 1223.86 591.682 1223.1 590.529C1222.33 589.376 1220.95 588.945 1220.02 589.568C1219.08 590.19 1218.95 591.628 1219.71 592.782C1220.48 593.935 1221.86 594.365 1222.79 593.743ZM1201.62 592.786C1202.39 591.633 1202.25 590.193 1201.32 589.571C1200.38 588.949 1199 589.38 1198.24 590.533C1197.47 591.686 1197.6 593.125 1198.54 593.748C1199.47 594.37 1200.85 593.939 1201.62 592.786ZM1164.2 591.455C1164.2 588.321 1166.46 585.849 1169.31 585.849C1172.17 585.849 1174.25 588.252 1174.25 591.455C1174.25 594.658 1172.13 597.13 1169.31 597.13C1166.49 597.13 1164.2 594.623 1164.2 591.455ZM1154.38 600.195H1158.39V582.785H1154.38V600.195ZM1153.76 576.97C1153.76 578.467 1154.98 579.686 1156.4 579.686C1157.83 579.686 1159.01 578.467 1159.01 576.97C1159.01 575.577 1157.83 574.394 1156.4 574.394C1154.98 574.394 1153.76 575.578 1153.76 576.97ZM1138.06 591.42C1138.06 588.286 1140.36 585.849 1143.32 585.849C1146.28 585.849 1148.57 588.286 1148.57 591.42C1148.57 594.553 1146.24 597.13 1143.32 597.13C1140.4 597.13 1138.06 594.588 1138.06 591.42ZM1133.99 591.42C1133.99 596.642 1138.1 600.751 1143.32 600.751C1148.54 600.751 1152.64 596.643 1152.64 591.42C1152.64 586.197 1148.61 582.227 1143.32 582.227C1138.03 582.227 1133.99 586.232 1133.99 591.42ZM1123.17 600.194H1127.17V591.072C1127.17 587.451 1129.09 585.849 1132.29 585.849C1132.88 585.849 1133.33 585.884 1133.75 585.988V582.471C1133.33 582.332 1132.6 582.228 1131.8 582.228C1126.37 582.228 1123.17 585.64 1123.17 591.072V600.194ZM1107.13 591.455C1107.13 588.321 1109.39 585.849 1112.24 585.849C1115.1 585.849 1117.19 588.251 1117.19 591.454C1117.19 594.658 1115.06 597.13 1112.24 597.13C1109.43 597.13 1107.13 594.623 1107.13 591.455ZM1103.06 591.454C1103.06 596.503 1107.09 600.751 1111.86 600.751C1113.84 600.751 1115.65 599.95 1116.73 598.627H1116.91V600.194H1120.91V573.001H1116.91V584.212H1116.73C1115.69 582.959 1113.88 582.228 1111.86 582.228C1107.06 582.228 1103.06 586.441 1103.06 591.455M1085.52 600.195H1089.52V589.992C1089.52 587.555 1091.16 585.849 1093.42 585.849C1095.68 585.849 1097.32 587.555 1097.32 589.993V600.195H1101.32V589.992C1101.32 585.745 1097.94 582.228 1093.42 582.228C1088.89 582.228 1085.52 585.745 1085.52 589.993V600.195ZM1067.15 589.749L1071.46 577.388H1071.67L1075.98 589.749H1067.15ZM1059 600.195H1063.53L1065.79 593.718H1077.34L1079.6 600.195H1084.13L1074.07 573.001H1069.06L1059 600.195ZM1168.93 600.752C1170.91 600.752 1172.72 599.951 1173.8 598.628H1173.98V600.195H1177.98V573.001H1173.98V584.212H1173.8C1172.76 582.959 1170.95 582.228 1168.93 582.228C1164.13 582.228 1160.13 586.441 1160.13 591.455C1160.13 596.469 1164.16 600.752 1168.93 600.752Z" fill="#44474F"/>
<path d="M1055.86 91.3418C1055.86 110.909 1040 126.771 1020.43 126.771C1000.86 126.771 985 110.909 985 91.3418C985 71.7747 1000.86 55.9124 1020.43 55.9124C1040 55.9124 1055.86 71.7747 1055.86 91.3418Z" fill="url(#paint0_linear_961_35)"/>
<path d="M1056.14 91.4979C1056.14 111.065 1040.27 126.927 1020.71 126.927C1005.14 127.393 1021.17 100.821 1021.17 101.288C1021.17 81.7205 1031.71 58.8655 1031.71 58.8655C1040.48 59.1743 1056.14 71.9308 1056.14 91.4979Z" fill="#191F4F"/>
<path d="M1023.63 74.6998C1023.67 74.6063 1023.71 74.5095 1023.73 74.4103L1027.85 59.1742C1028.13 58.1556 1029.19 57.5682 1030.2 57.8785L1034.27 59.1302C1034.37 59.1604 1034.46 59.1986 1034.55 59.2446L1040.01 61.9726L1043.63 64.6901C1043.7 64.7431 1043.77 64.8009 1043.83 64.8633L1047 68.0329L1042.04 82.4577C1041.93 82.7801 1041.74 83.0659 1041.47 83.2841L1036.43 87.492C1036.33 87.572 1036.23 87.6421 1036.12 87.7013L1030.22 90.8755L1024.93 93.5186C1024.73 93.6204 1024.55 93.7586 1024.39 93.9264L1020.26 98.4386C1019.79 98.948 1019.08 99.1574 1018.41 98.9827L1015.29 98.168C1014.17 97.8751 1013.59 96.6414 1014.07 95.5878L1023.63 74.6998Z" fill="url(#paint1_linear_961_35)"/>
<path d="M1022.29 117.914L1020.9 120.71L1019.5 123.973L1017.63 125.838L1016.7 126.304L1012.97 124.906L1006.44 120.245V99.7329H1020.43L1022.29 117.914Z" fill="url(#paint2_linear_961_35)"/>
<path fill-rule="evenodd" clip-rule="evenodd" d="M1037.37 60.355C1037.44 60.3804 1037.52 60.4124 1037.58 60.4468C1037.62 60.4646 1037.65 60.4858 1037.68 60.5073C1037.69 60.5159 1037.7 60.5246 1037.71 60.5327C1037.72 60.5377 1037.73 60.5425 1037.74 60.5474C1037.74 60.5433 1037.75 60.5415 1037.76 60.5415C1037.79 60.5416 1037.81 60.5511 1037.83 60.5601C1037.83 60.5641 1037.84 60.569 1037.85 60.5728L1037.85 60.5737C1037.86 60.5779 1037.86 60.5807 1037.87 60.5835C1037.9 60.5984 1037.93 60.6156 1037.96 60.6314C1037.96 60.6324 1037.96 60.6333 1037.96 60.6343C1037.99 60.6513 1038.02 60.6679 1038.05 60.6821C1038.09 60.7 1038.12 60.7297 1038.14 60.7524C1038.15 60.756 1038.15 60.7591 1038.15 60.7622C1038.16 60.7641 1038.16 60.7668 1038.16 60.769C1038.17 60.7723 1038.17 60.7764 1038.18 60.7798C1038.18 60.7784 1038.18 60.7761 1038.18 60.7749C1038.21 60.7616 1038.23 60.768 1038.25 60.7896C1038.26 60.8023 1038.27 60.813 1038.28 60.8228C1038.28 60.8222 1038.28 60.8228 1038.29 60.8228C1038.31 60.8228 1038.33 60.833 1038.34 60.8394C1038.35 60.8442 1038.36 60.8514 1038.37 60.856C1038.37 60.8578 1038.38 60.8599 1038.38 60.8599C1038.38 60.8619 1038.39 60.8638 1038.39 60.8657C1038.42 60.8844 1038.45 60.9 1038.48 60.9087L1038.48 60.9097C1038.54 60.9261 1038.61 60.9448 1038.67 60.98C1038.71 61.0011 1038.74 61.0298 1038.76 61.0601C1038.78 61.0683 1038.81 61.0796 1038.82 61.0913C1038.84 61.1014 1038.86 61.1131 1038.87 61.1235C1038.88 61.1285 1038.89 61.1332 1038.89 61.1372C1038.91 61.1515 1038.94 61.1673 1038.96 61.1831C1038.96 61.1828 1038.96 61.1809 1038.97 61.1812C1038.98 61.1824 1038.99 61.187 1039 61.1909C1039.01 61.1952 1039.02 61.2004 1039.03 61.2056C1039.04 61.2158 1039.06 61.2278 1039.07 61.2358C1039.07 61.2397 1039.07 61.244 1039.08 61.2476L1039.1 61.2671L1039.12 61.2827C1039.13 61.2883 1039.14 61.294 1039.14 61.2983C1039.15 61.3033 1039.16 61.3065 1039.16 61.311H1039.17L1039.17 61.3091C1039.18 61.307 1039.18 61.309 1039.18 61.313L1039.19 61.3149C1039.19 61.3152 1039.19 61.318 1039.19 61.3208C1039.2 61.3234 1039.2 61.3254 1039.21 61.3267C1039.21 61.3286 1039.21 61.3308 1039.21 61.3325L1039.21 61.3335C1039.22 61.3354 1039.22 61.3366 1039.22 61.3374C1039.23 61.3408 1039.24 61.3483 1039.25 61.354C1039.26 61.3602 1039.26 61.3646 1039.27 61.3667C1039.28 61.3725 1039.3 61.3824 1039.31 61.3921C1039.32 61.3943 1039.32 61.3966 1039.32 61.3989C1039.32 61.3996 1039.33 61.4002 1039.33 61.4009L1039.33 61.4019C1039.34 61.4045 1039.35 61.4072 1039.36 61.4126C1039.37 61.4157 1039.37 61.4201 1039.37 61.4233L1039.38 61.4253C1039.38 61.4277 1039.38 61.43 1039.38 61.4321C1039.39 61.4369 1039.4 61.4418 1039.4 61.4468H1039.4C1039.41 61.4468 1039.41 61.4478 1039.41 61.4478C1039.41 61.4491 1039.41 61.4511 1039.42 61.4526C1039.42 61.4542 1039.42 61.4555 1039.42 61.4565C1039.46 61.471 1039.49 61.4885 1039.52 61.5103C1039.52 61.5116 1039.53 61.5146 1039.53 61.5181C1039.54 61.5218 1039.54 61.5274 1039.54 61.5317C1039.55 61.5358 1039.55 61.5397 1039.55 61.5425L1039.55 61.5454C1039.56 61.547 1039.56 61.5503 1039.56 61.5503C1039.56 61.5537 1039.57 61.5646 1039.58 61.5737C1039.58 61.5783 1039.58 61.5828 1039.59 61.5864L1039.59 61.5923C1039.59 61.5923 1039.59 61.5948 1039.59 61.5972C1039.59 61.5972 1039.59 61.6009 1039.59 61.603H1039.59C1039.6 61.617 1039.62 61.631 1039.64 61.646C1039.64 61.6492 1039.65 61.652 1039.66 61.6567C1039.67 61.6711 1039.69 61.6822 1039.7 61.6909C1039.68 61.664 1039.65 61.6361 1039.63 61.6069L1039.77 61.7124C1039.78 61.7139 1039.79 61.7162 1039.8 61.7192C1039.81 61.7242 1039.83 61.7327 1039.83 61.7358C1039.84 61.74 1039.84 61.7448 1039.84 61.7476L1039.86 61.7622L1039.87 61.7671L1039.87 61.7681C1039.87 61.77 1039.88 61.7733 1039.88 61.7759C1039.9 61.7882 1039.92 61.8043 1039.93 61.812L1039.95 61.8296L1039.95 61.8345C1039.95 61.837 1039.96 61.8391 1039.96 61.8413C1039.97 61.8479 1039.98 61.8554 1039.98 61.8599C1039.98 61.8617 1039.99 61.8647 1039.99 61.8647C1039.99 61.867 1039.99 61.8682 1039.99 61.8696C1040.02 61.8823 1040.04 61.9001 1040.06 61.9126L1040.07 61.9165C1040.07 61.9184 1040.08 61.922 1040.08 61.9263C1040.09 61.9285 1040.09 61.9317 1040.1 61.936C1040.1 61.936 1040.1 61.939 1040.1 61.9409L1040.1 61.9429C1040.11 61.9457 1040.12 61.9509 1040.13 61.9595C1040.14 61.9647 1040.14 61.9696 1040.15 61.9731C1040.16 61.9827 1040.16 61.9875 1040.17 61.9907C1040.2 62.0086 1040.24 62.0311 1040.26 62.0513L1040.26 62.0522C1040.27 62.0532 1040.27 62.0542 1040.27 62.0552C1040.3 62.0591 1040.33 62.0724 1040.35 62.0855C1040.36 62.0951 1040.38 62.1058 1040.39 62.1157C1040.4 62.1201 1040.4 62.1247 1040.41 62.1294C1040.43 62.1391 1040.44 62.1492 1040.45 62.1587C1040.49 62.1831 1040.52 62.2065 1040.56 62.228C1040.57 62.2341 1040.58 62.2406 1040.59 62.2476C1040.61 62.2607 1040.64 62.275 1040.66 62.2896C1040.68 62.3021 1040.69 62.3169 1040.71 62.3335C1040.76 62.3599 1040.8 62.3864 1040.85 62.4155C1040.87 62.4325 1040.9 62.4501 1040.93 62.4683C1041 62.5111 1041.07 62.5579 1041.13 62.6089C1041.14 62.6174 1041.16 62.6252 1041.17 62.6353L1041.18 62.6382C1041.19 62.6382 1041.2 62.6403 1041.22 62.647C1041.24 62.658 1041.26 62.6723 1041.27 62.6821C1041.28 62.6838 1041.28 62.6856 1041.28 62.687C1041.3 62.6975 1041.32 62.7065 1041.34 62.7173C1041.34 62.7196 1041.35 62.7225 1041.35 62.7251C1041.37 62.7336 1041.39 62.7434 1041.4 62.7534C1041.44 62.7762 1041.48 62.8004 1041.53 62.8286C1041.53 62.8342 1041.54 62.8392 1041.55 62.8442C1041.56 62.8529 1041.57 62.8621 1041.58 62.8706C1041.6 62.8815 1041.61 62.8938 1041.62 62.9009L1041.62 62.9038C1041.63 62.9076 1041.63 62.9091 1041.63 62.9106L1041.63 62.9126C1041.65 62.9241 1041.67 62.9396 1041.68 62.9468L1041.69 62.9565C1041.69 62.9588 1041.69 62.9605 1041.69 62.9605C1041.69 62.9628 1041.7 62.9648 1041.7 62.9692L1041.7 62.9702C1041.71 62.9742 1041.72 62.9805 1041.73 62.9868L1041.79 63.0327C1041.81 63.0475 1041.82 63.0619 1041.84 63.0757C1041.88 63.1097 1041.92 63.1409 1041.97 63.1685C1041.97 63.172 1041.98 63.176 1041.98 63.1802C1042.02 63.1993 1042.06 63.2249 1042.09 63.2554C1042.1 63.2632 1042.11 63.2705 1042.13 63.2827L1042.13 63.2837C1042.15 63.2942 1042.17 63.3098 1042.2 63.3296C1042.2 63.3319 1042.2 63.3353 1042.21 63.3403C1042.21 63.3403 1042.22 63.3425 1042.22 63.3442C1042.22 63.3486 1042.24 63.3552 1042.24 63.3599C1042.25 63.3677 1042.27 63.3761 1042.28 63.3833C1042.28 63.3847 1042.28 63.3859 1042.28 63.3872C1042.29 63.3957 1042.3 63.4032 1042.31 63.4097C1042.35 63.4306 1042.38 63.4601 1042.4 63.48C1042.41 63.4861 1042.41 63.4926 1042.42 63.5015L1042.43 63.5034C1042.44 63.5114 1042.45 63.5221 1042.46 63.5337C1042.47 63.5376 1042.47 63.5416 1042.48 63.5493L1042.48 63.5513C1042.49 63.558 1042.51 63.5682 1042.52 63.5796C1042.53 63.5858 1042.53 63.5908 1042.54 63.5952C1042.55 63.6052 1042.56 63.611 1042.56 63.6167C1042.58 63.6284 1042.6 63.6422 1042.61 63.6528C1042.61 63.6548 1042.61 63.6569 1042.62 63.6587C1042.63 63.6712 1042.64 63.6798 1042.66 63.686C1042.67 63.6953 1042.69 63.7084 1042.69 63.7163C1042.7 63.7254 1042.71 63.7358 1042.72 63.7446C1042.73 63.7508 1042.73 63.758 1042.74 63.7661C1042.75 63.7789 1042.76 63.7932 1042.77 63.8052C1042.78 63.81 1042.78 63.8125 1042.79 63.8218C1042.79 63.8241 1042.8 63.8272 1042.8 63.8306C1042.81 63.8372 1042.82 63.8438 1042.82 63.8491L1042.84 63.8696C1042.87 63.883 1042.89 63.9 1042.9 63.9106L1042.9 63.9126C1042.92 63.9256 1042.92 63.9298 1042.93 63.9321C1042.95 63.944 1042.96 63.9595 1042.97 63.9683L1042.98 63.979L1042.98 63.9819C1042.99 63.9844 1042.99 63.9882 1043 63.9927C1043 63.9967 1043.01 64.002 1043.02 64.0073C1043.02 64.0121 1043.03 64.0206 1043.04 64.0288C1043.06 64.0467 1043.09 64.0644 1043.11 64.0825C1043.13 64.101 1043.15 64.1175 1043.18 64.1372C1043.18 64.1386 1043.18 64.1407 1043.19 64.1421C1043.22 64.1625 1043.25 64.1861 1043.28 64.2144C1043.34 64.2718 1043.42 64.3277 1043.49 64.3804C1043.52 64.3989 1043.54 64.4212 1043.56 64.4429C1043.58 64.4437 1043.6 64.4484 1043.61 64.4575L1043.67 64.519L1043.79 64.645H1043.8L1043.67 64.519L1043.63 64.478L1043.64 64.4819L1043.65 64.4858L1043.66 64.4927C1043.66 64.4948 1043.67 64.4976 1043.67 64.5015C1043.69 64.5194 1043.71 64.5397 1043.73 64.5601C1043.74 64.5617 1043.74 64.5638 1043.74 64.5659C1043.76 64.5806 1043.78 64.6071 1043.8 64.6343C1043.8 64.638 1043.81 64.6413 1043.81 64.645C1043.85 64.647 1043.88 64.6695 1043.89 64.7046L1043.89 64.7075C1043.9 64.7111 1043.9 64.7149 1043.91 64.7192L1043.93 64.7329L1043.94 64.7388L1043.94 64.7397C1043.95 64.7425 1043.95 64.7468 1043.96 64.7505C1043.97 64.755 1043.97 64.7609 1043.98 64.7681C1043.99 64.7748 1044.01 64.7857 1044.02 64.8013C1044.02 64.8136 1044.03 64.8296 1044.04 64.8403C1044.04 64.8438 1044.04 64.847 1044.04 64.8491C1044.05 64.8613 1044.05 64.8677 1044.06 64.8716C1044.07 64.8862 1044.08 64.9044 1044.08 64.9233C1044.09 64.9273 1044.09 64.9311 1044.09 64.9351L1044.11 64.9478C1044.14 64.9435 1044.17 64.9501 1044.19 64.9692C1044.2 64.982 1044.22 64.9935 1044.24 65.0083L1044.24 65.0103C1044.26 65.024 1044.29 65.0405 1044.31 65.0601C1044.33 65.0794 1044.35 65.1002 1044.37 65.1187C1044.37 65.124 1044.38 65.1294 1044.38 65.1343C1044.39 65.1473 1044.4 65.1582 1044.41 65.1694C1044.43 65.1816 1044.44 65.1941 1044.45 65.2056L1044.45 65.2095C1044.46 65.2224 1044.48 65.2346 1044.49 65.2456C1044.51 65.2665 1044.53 65.289 1044.55 65.3101C1044.56 65.3188 1044.56 65.3275 1044.57 65.3355C1044.6 65.3642 1044.62 65.3901 1044.65 65.4116C1044.68 65.435 1044.7 65.4609 1044.72 65.4829C1044.73 65.4882 1044.73 65.4938 1044.73 65.4985C1044.75 65.5149 1044.76 65.5284 1044.77 65.5415L1044.8 65.5728C1044.81 65.5757 1044.82 65.58 1044.82 65.5845C1044.84 65.5915 1044.86 65.6017 1044.87 65.6157C1044.91 65.6403 1044.94 65.6634 1044.97 65.6812C1045.03 65.7168 1045.08 65.7663 1045.12 65.8247C1045.12 65.8247 1045.12 65.8264 1045.12 65.8286L1045.13 65.8364C1045.14 65.8399 1045.14 65.8447 1045.15 65.8501C1045.16 65.8663 1045.18 65.8877 1045.19 65.9019C1045.19 65.9054 1045.19 65.9082 1045.19 65.9106L1045.2 65.9136C1045.21 65.9341 1045.23 65.956 1045.25 65.98C1045.25 65.9848 1045.26 65.9891 1045.26 65.9937C1045.27 65.9983 1045.28 66.0031 1045.28 66.0073C1045.32 66.0348 1045.35 66.0749 1045.37 66.103L1045.37 66.104L1045.37 66.1128C1045.38 66.1166 1045.38 66.1245 1045.38 66.1323C1045.39 66.1401 1045.41 66.1476 1045.42 66.1587C1045.43 66.1663 1045.44 66.1753 1045.46 66.187C1045.46 66.1888 1045.46 66.1908 1045.46 66.1929C1045.48 66.2023 1045.5 66.2146 1045.51 66.2271C1045.54 66.251 1045.57 66.2811 1045.59 66.3032C1045.59 66.3099 1045.6 66.316 1045.6 66.3208L1045.54 66.3062C1045.56 66.3256 1045.57 66.3451 1045.59 66.3638C1045.59 66.3671 1045.6 66.3703 1045.6 66.3735C1045.61 66.3829 1045.62 66.392 1045.62 66.4009C1045.67 66.3836 1045.73 66.4086 1045.74 66.4565C1045.75 66.4645 1045.75 66.4771 1045.77 66.4946C1045.78 66.503 1045.78 66.5114 1045.79 66.5171L1045.79 66.5308L1045.8 66.5327C1045.82 66.5447 1045.84 66.562 1045.85 66.5708L1045.85 66.5757C1045.86 66.5794 1045.86 66.5819 1045.86 66.5845C1045.87 66.5868 1045.87 66.5884 1045.87 66.5884C1045.92 66.6169 1045.95 66.654 1045.97 66.687C1045.97 66.6891 1045.97 66.6918 1045.97 66.6939C1046 66.6994 1046.03 66.7204 1046.04 66.7515L1046.05 66.7622C1046.06 66.7665 1046.06 66.7737 1046.07 66.7817C1046.08 66.794 1046.08 66.8063 1046.09 66.8159L1046.09 66.8169C1046.1 66.825 1046.1 66.8318 1046.1 66.8374C1046.15 66.8544 1046.17 66.8911 1046.18 66.9077C1046.19 66.9116 1046.19 66.9157 1046.19 66.9194C1046.2 66.9218 1046.21 66.9268 1046.23 66.9341C1046.26 66.9588 1046.3 66.9931 1046.33 67.0347C1046.36 67.0693 1046.38 67.1142 1046.39 67.1655L1046.4 67.1646C1046.44 67.1564 1046.48 67.178 1046.5 67.2144L1046.5 67.2163C1046.51 67.2205 1046.52 67.2283 1046.54 67.2388C1046.55 67.2517 1046.57 67.2725 1046.58 67.3032C1046.59 67.3229 1046.59 67.3426 1046.58 67.3608C1046.58 67.3631 1046.59 67.3661 1046.59 67.3687C1046.59 67.3708 1046.6 67.373 1046.6 67.3755C1046.61 67.3841 1046.63 67.3952 1046.64 67.4058C1046.64 67.4058 1046.64 67.4073 1046.64 67.4087C1046.65 67.4162 1046.67 67.4311 1046.69 67.4468C1046.69 67.449 1046.69 67.452 1046.7 67.4546C1046.71 67.4626 1046.72 67.471 1046.74 67.479L1046.75 67.481C1046.75 67.4847 1046.76 67.4894 1046.76 67.4927L1046.78 67.5005C1046.78 67.5019 1046.78 67.5034 1046.78 67.5034C1046.8 67.5056 1046.82 67.5271 1046.82 67.5522C1046.82 67.5631 1046.82 67.5711 1046.81 67.5786C1046.81 67.5829 1046.81 67.5867 1046.81 67.5913C1046.82 67.6166 1046.8 67.6419 1046.78 67.647C1046.77 67.6487 1046.76 67.6442 1046.75 67.6411C1046.76 67.6505 1046.76 67.6585 1046.77 67.6675L1046.77 67.6704L1046.78 67.6743L1046.78 67.6772C1046.78 67.6772 1046.78 67.681 1046.78 67.6851C1046.78 67.6872 1046.78 67.692 1046.78 67.6978C1046.78 67.7033 1046.78 67.7146 1046.78 67.7261C1046.76 67.7478 1046.74 67.7476 1046.73 67.7466C1046.74 67.7572 1046.75 67.7678 1046.75 67.7778C1046.77 67.7993 1046.76 67.8281 1046.74 67.8423C1046.72 67.8564 1046.69 67.8511 1046.67 67.8296C1046.65 67.7993 1046.64 67.7708 1046.62 67.7427C1046.6 67.7069 1046.57 67.6715 1046.55 67.6353C1046.55 67.6328 1046.55 67.6299 1046.54 67.6274L1046.54 67.6265C1046.54 67.6244 1046.54 67.6217 1046.54 67.6196L1046.53 67.6235C1046.49 67.6465 1046.43 67.6276 1046.41 67.5815C1046.4 67.5596 1046.38 67.5391 1046.36 67.5112L1046.36 67.5073C1046.36 67.5056 1046.36 67.5041 1046.35 67.5024C1046.33 67.4741 1046.32 67.4486 1046.3 67.4263C1046.29 67.4171 1046.28 67.4082 1046.26 67.3931L1046.26 67.3921C1046.24 67.3789 1046.22 67.36 1046.2 67.3355C1046.19 67.3226 1046.18 67.3099 1046.17 67.2964C1046.17 67.292 1046.16 67.2875 1046.16 67.2827C1046.15 67.2718 1046.14 67.2592 1046.13 67.2466C1046.09 67.2217 1046.05 67.1962 1046.01 67.1724C1045.99 67.1608 1045.99 67.1389 1045.99 67.1187C1045.9 66.9693 1045.74 66.8898 1045.56 66.8052C1045.55 66.7979 1045.53 66.7901 1045.52 66.7827C1045.46 66.7536 1045.4 66.7241 1045.34 66.6948C1045.16 66.6053 1044.98 66.5166 1044.8 66.437C1044.78 66.4268 1044.77 66.399 1044.78 66.3755C1044.79 66.3519 1044.81 66.3408 1044.84 66.3511C1045.02 66.4318 1045.2 66.5229 1045.38 66.6128C1045.44 66.6418 1045.5 66.6712 1045.56 66.6997C1045.57 66.7076 1045.59 66.7152 1045.61 66.7231C1045.65 66.7427 1045.69 66.7632 1045.73 66.7847C1045.71 66.7659 1045.69 66.7468 1045.67 66.728C1045.66 66.7212 1045.65 66.7144 1045.65 66.7075C1045.6 66.6611 1045.55 66.6134 1045.5 66.564C1045.49 66.5535 1045.48 66.545 1045.46 66.5347C1045.46 66.5307 1045.45 66.526 1045.45 66.521L1045.44 66.519C1045.43 66.5293 1045.41 66.5322 1045.4 66.5327C1045.39 66.5338 1045.38 66.5323 1045.38 66.5317L1045.36 66.5249C1045.35 66.5231 1045.35 66.521 1045.34 66.519C1045.33 66.5157 1045.32 66.5096 1045.31 66.5054C1045.27 66.482 1045.24 66.4462 1045.23 66.4253C1045.23 66.4235 1045.22 66.422 1045.22 66.4204C1045.22 66.4133 1045.21 66.4062 1045.2 66.3989C1045.19 66.3892 1045.19 66.3786 1045.18 66.3687C1045.18 66.3823 1045.18 66.3949 1045.18 66.4058C1045.17 66.4176 1045.17 66.429 1045.16 66.436C1045.15 66.4431 1045.14 66.4453 1045.12 66.4429C1045.08 66.4354 1045.04 66.4152 1045 66.3921C1044.97 66.3705 1044.93 66.3459 1044.91 66.3237C1044.9 66.3222 1044.9 66.3203 1044.9 66.3189C1044.8 66.246 1044.72 66.1579 1044.66 66.0601C1044.58 65.9566 1044.51 65.8499 1044.44 65.7437C1044.43 65.7243 1044.41 65.6889 1044.39 65.6675C1044.39 65.6675 1044.39 65.6644 1044.39 65.6626L1044.38 65.6567C1044.38 65.6525 1044.38 65.6451 1044.38 65.6362C1044.38 65.6324 1044.38 65.6301 1044.39 65.6294H1044.39L1044.4 65.6323L1044.41 65.6392C1044.42 65.6445 1044.43 65.6514 1044.44 65.6587C1044.46 65.6726 1044.49 65.6875 1044.49 65.6899C1044.55 65.7323 1044.61 65.7755 1044.67 65.8189L1044.7 65.8364C1044.7 65.8338 1044.69 65.8313 1044.69 65.8286C1044.68 65.8115 1044.67 65.7991 1044.67 65.7876C1044.66 65.7837 1044.65 65.7797 1044.64 65.7749C1044.6 65.7576 1044.58 65.7182 1044.58 65.6792L1044.58 65.6782C1044.58 65.6741 1044.57 65.6706 1044.56 65.6626L1044.56 65.6597C1044.55 65.6513 1044.53 65.6384 1044.51 65.6206C1044.49 65.5958 1044.47 65.5741 1044.44 65.5503C1044.43 65.5461 1044.42 65.5421 1044.42 65.5376C1044.39 65.5177 1044.36 65.4948 1044.33 65.4692C1044.31 65.4468 1044.29 65.423 1044.27 65.3999L1044.2 65.312C1044.18 65.2928 1044.17 65.2725 1044.16 65.2544C1044.16 65.2514 1044.15 65.2485 1044.15 65.2456C1044.15 65.2414 1044.15 65.237 1044.14 65.2329C1044.14 65.2312 1044.14 65.2311 1044.13 65.229C1044.07 65.1822 1044.02 65.1278 1043.97 65.0786C1043.93 65.0505 1043.89 65.021 1043.84 64.9878C1043.84 64.9803 1043.83 64.973 1043.81 64.9644C1043.81 64.9613 1043.8 64.9583 1043.8 64.9546C1043.78 64.9419 1043.76 64.9246 1043.74 64.9028C1043.72 64.8865 1043.7 64.8683 1043.69 64.8501C1043.65 64.811 1043.6 64.7681 1043.57 64.7231C1043.56 64.7159 1043.55 64.7087 1043.55 64.7017C1043.49 64.633 1043.44 64.575 1043.38 64.5327C1043.31 64.4794 1043.23 64.4184 1043.16 64.353C1043.13 64.3334 1043.11 64.3153 1043.08 64.2944C1043.08 64.2929 1043.07 64.2912 1043.07 64.2896C1043.05 64.2709 1043.01 64.2493 1042.99 64.2251C1042.95 64.1978 1042.92 64.1747 1042.89 64.1499C1042.87 64.1336 1042.84 64.116 1042.82 64.0962C1042.73 64.0262 1042.63 63.9603 1042.54 63.8931C1042.52 63.8808 1042.5 63.8684 1042.48 63.856C1042.37 63.7761 1042.26 63.6929 1042.15 63.6011C1042.04 63.5087 1041.91 63.4264 1041.79 63.3442C1041.7 63.2884 1041.61 63.2278 1041.53 63.1685C1041.48 63.1359 1041.44 63.1034 1041.4 63.0728C1041.36 63.0462 1041.31 63.0298 1041.26 63.0083C1041.25 63.0044 1041.24 62.9999 1041.23 62.9956C1041.17 62.969 1041.1 62.9337 1041.04 62.9019C1041.02 62.8885 1040.99 62.8762 1040.97 62.8647C1040.95 62.8523 1040.92 62.8395 1040.89 62.8267C1040.81 62.7835 1040.72 62.7374 1040.63 62.686C1040.62 62.679 1040.61 62.6719 1040.6 62.6646C1040.54 62.6317 1040.48 62.5956 1040.43 62.5552C1040.4 62.531 1040.37 62.5151 1040.34 62.5034C1040.3 62.483 1040.28 62.4285 1040.3 62.3814C1040.31 62.3581 1040.32 62.3404 1040.35 62.3315C1040.32 62.3118 1040.29 62.2919 1040.26 62.27C1040.24 62.2599 1040.23 62.25 1040.21 62.2388L1040.21 62.2378C1040.19 62.2274 1040.17 62.2158 1040.15 62.2017C1040.14 62.1906 1040.12 62.1803 1040.11 62.1704C1040.12 62.1844 1040.13 62.198 1040.14 62.2114L1040.14 62.2153C1040.16 62.2397 1040.19 62.264 1040.21 62.2886C1040.22 62.3079 1040.22 62.3371 1040.2 62.354C1040.18 62.3709 1040.15 62.3686 1040.14 62.3491C1040.1 62.3124 1040.07 62.2756 1040.04 62.2388L1040.04 62.2378C1040.01 62.2012 1039.97 62.1645 1039.94 62.1274L1039.94 62.1245C1039.92 62.1025 1039.89 62.0825 1039.87 62.0649C1039.8 62.0132 1039.72 61.9636 1039.65 61.9136C1039.64 61.9062 1039.63 61.8986 1039.62 61.8911C1039.57 61.8639 1039.54 61.8322 1039.5 61.8003C1039.49 61.7967 1039.48 61.7923 1039.48 61.7886C1039.46 61.7783 1039.43 61.7678 1039.41 61.7554C1039.37 61.7373 1039.34 61.7158 1039.31 61.6939C1039.29 61.676 1039.26 61.6631 1039.23 61.648C1039.22 61.6446 1039.21 61.6408 1039.21 61.6372C1039.1 61.5838 1038.99 61.5249 1038.89 61.4565C1038.85 61.4488 1038.81 61.4418 1038.76 61.4312C1038.62 61.3952 1038.48 61.3388 1038.35 61.2603L1038.35 61.2593C1038.28 61.2297 1038.21 61.1938 1038.15 61.146H1038.14C1038.14 61.1449 1038.13 61.1419 1038.13 61.1411L1038.12 61.1372C1038.11 61.1313 1038.09 61.1226 1038.09 61.1226C1038.03 61.0967 1037.98 61.065 1037.93 61.0288C1037.93 61.0275 1037.93 61.0262 1037.92 61.0249C1037.91 61.0181 1037.89 61.0116 1037.87 61.0044C1037.79 60.9725 1037.72 60.9413 1037.64 60.9126C1037.63 60.9108 1037.63 60.9096 1037.62 60.9077C1037.56 60.8864 1037.5 60.8635 1037.44 60.8306C1037.44 60.8295 1037.44 60.8281 1037.43 60.8267C1037.43 60.8267 1037.43 60.8244 1037.43 60.8228C1037.43 60.8228 1037.43 60.8199 1037.42 60.8179C1037.4 60.8044 1037.37 60.7892 1037.34 60.772C1037.34 60.7699 1037.34 60.7673 1037.33 60.7642L1037.33 60.7632C1037.32 60.7596 1037.32 60.7552 1037.31 60.7505C1037.3 60.7421 1037.28 60.7277 1037.27 60.7085C1037.25 60.6871 1037.24 60.664 1037.24 60.6411C1037.21 60.6316 1037.19 60.6234 1037.17 60.6177L1037.16 60.6167L1037.15 60.6157H1037.15C1037.14 60.6148 1037.13 60.6136 1037.12 60.6118C1037.11 60.6099 1037.09 60.6066 1037.08 60.6011C1037.07 60.5959 1037.05 60.5853 1037.04 60.5649C1037.03 60.5475 1037.03 60.5304 1037.03 60.519C1037.02 60.5176 1037.01 60.5158 1037 60.5142C1036.99 60.5284 1036.97 60.5306 1036.97 60.5308C1036.96 60.531 1036.95 60.5297 1036.95 60.5288C1036.93 60.5236 1036.92 60.5136 1036.91 60.5005C1036.9 60.4976 1036.89 60.4931 1036.88 60.4878C1036.88 60.4863 1036.88 60.4841 1036.87 60.48C1036.87 60.4771 1036.86 60.4651 1036.86 60.4468C1036.86 60.4294 1036.87 60.4175 1036.88 60.4106C1036.86 60.4095 1036.84 60.4083 1036.83 60.4067C1036.76 60.4007 1036.68 60.3901 1036.61 60.3501L1036.61 60.3481C1036.55 60.34 1036.49 60.3301 1036.44 60.3159C1036.43 60.3146 1036.43 60.3135 1036.42 60.312C1036.4 60.3065 1036.37 60.2997 1036.34 60.2905C1036.32 60.2807 1036.29 60.2662 1036.26 60.2437C1036.26 60.2412 1036.25 60.2386 1036.24 60.2358L1036.24 60.2349C1036.23 60.2305 1036.22 60.2221 1036.2 60.2114C1036.19 60.1992 1036.17 60.1771 1036.17 60.144C1036.17 60.1344 1036.17 60.1263 1036.17 60.1196C1036.16 60.1167 1036.16 60.1133 1036.15 60.1099C1036.08 60.0855 1036.01 60.0463 1035.95 60.0112C1035.95 60.0088 1035.94 60.0058 1035.94 60.0034C1035.92 59.9918 1035.9 59.9857 1035.87 59.978L1035.86 59.9771C1035.83 59.9701 1035.8 59.9619 1035.77 59.9439C1035.76 59.9421 1035.76 59.9398 1035.76 59.937C1035.75 59.9357 1035.75 59.9325 1035.75 59.9292C1035.75 59.9266 1035.74 59.9185 1035.74 59.9058C1035.73 59.8982 1035.74 59.8889 1035.74 59.8794C1035.74 59.87 1035.75 59.8629 1035.75 59.8589C1035.76 59.8571 1035.76 59.8561 1035.76 59.855C1035.75 59.849 1035.73 59.843 1035.72 59.8374C1035.71 59.8366 1035.7 59.8353 1035.7 59.8345C1035.57 59.8162 1035.43 59.7865 1035.31 59.7183C1035.29 59.7141 1035.28 59.7095 1035.26 59.7046L1035.26 59.7036C1035.21 59.6914 1035.16 59.6743 1035.11 59.646C1035.11 59.6442 1035.1 59.6412 1035.1 59.6362C1035.1 59.6309 1035.09 59.6204 1035.09 59.6069C1035.09 59.5971 1035.09 59.5889 1035.09 59.5825L1037.37 60.355ZM1044.46 65.7339C1044.53 65.84 1044.6 65.9463 1044.67 66.0493C1044.74 66.1461 1044.82 66.2329 1044.91 66.3042C1044.91 66.3056 1044.92 66.3067 1044.92 66.3081C1044.95 66.3304 1044.98 66.3553 1045.01 66.3765C1045.05 66.399 1045.09 66.4174 1045.13 66.4243C1045.14 66.4262 1045.14 66.4246 1045.15 66.4214C1045.15 66.418 1045.16 66.4113 1045.16 66.4019C1045.16 66.3862 1045.16 66.3648 1045.16 66.3403C1045.13 66.3084 1045.1 66.2757 1045.08 66.2417C1045.07 66.2391 1045.07 66.2365 1045.07 66.2339C1045.06 66.2248 1045.05 66.2138 1045.03 66.2056C1045.03 66.2034 1045.01 66.1903 1044.99 66.1782C1044.98 66.1721 1044.97 66.1656 1044.96 66.1616L1044.95 66.1587C1044.94 66.1521 1044.92 66.1347 1044.92 66.1147C1044.92 66.1055 1044.93 66.0942 1044.93 66.0845C1044.94 66.0754 1044.95 66.0714 1044.96 66.0698L1044.96 66.0689C1044.95 66.0539 1044.94 66.0414 1044.92 66.0249C1044.91 66.0214 1044.91 66.0167 1044.91 66.0132C1044.87 66.0294 1044.82 66.0206 1044.8 65.9858C1044.77 65.9524 1044.75 65.9159 1044.73 65.8804C1044.72 65.8781 1044.72 65.8758 1044.72 65.8735L1044.66 65.8345C1044.6 65.7912 1044.54 65.7478 1044.48 65.7056L1044.48 65.7046L1044.47 65.7026L1044.46 65.6958L1044.43 65.6753L1044.41 65.6646C1044.43 65.686 1044.45 65.7166 1044.46 65.7339ZM1039.55 61.5669L1039.55 61.5689C1039.55 61.5671 1039.55 61.5649 1039.55 61.5649L1039.55 61.5669Z" fill="url(#paint3_linear_961_35)"/>
<path d="M1039.6 61.5786C1039.61 61.5867 1039.62 61.5942 1039.62 61.6021C1039.63 61.6036 1039.63 61.6054 1039.63 61.6069L1039.57 61.563C1039.58 61.5637 1039.59 61.5689 1039.6 61.5786Z" fill="url(#paint4_linear_961_35)"/>
<path d="M1035.87 59.7095C1036.06 59.7274 1036.29 59.7987 1036.43 59.9468C1036.44 59.9491 1036.44 59.9518 1036.44 59.9546C1036.49 59.9649 1036.54 59.9774 1036.59 59.9966C1036.64 60.0177 1036.69 60.0388 1036.74 60.0601C1036.82 60.0963 1036.91 60.1328 1036.99 60.1675C1037.06 60.1973 1037.14 60.2372 1037.2 60.2739L1037.21 60.2778C1037.22 60.2842 1037.23 60.2902 1037.25 60.2964C1037.25 60.2988 1037.25 60.3016 1037.26 60.3042C1037.28 60.3132 1037.3 60.3225 1037.32 60.3345L1035.86 59.7095H1035.87Z" fill="url(#paint5_linear_961_35)"/>
<path d="M1035.86 59.7095L1035.85 59.7085C1035.85 59.708 1035.84 59.7075 1035.83 59.7075C1035.82 59.7075 1035.82 59.7074 1035.82 59.7075C1035.82 59.6983 1035.81 59.6912 1035.81 59.686L1035.86 59.7095Z" fill="url(#paint6_linear_961_35)"/>
<path d="M1035.78 59.6626C1035.78 59.6634 1035.79 59.666 1035.8 59.6714C1035.8 59.6731 1035.8 59.677 1035.81 59.6831L1035.81 59.686L1035.74 59.6567C1035.75 59.6583 1035.77 59.6603 1035.78 59.6626Z" fill="url(#paint7_linear_961_35)"/>
<path d="M1035.69 59.6538H1035.69C1035.62 59.6311 1035.55 59.615 1035.49 59.6021C1035.48 59.6013 1035.48 59.6009 1035.48 59.6001C1035.45 59.5948 1035.42 59.5887 1035.39 59.5835C1035.39 59.5802 1035.39 59.5767 1035.39 59.5767C1035.39 59.5714 1035.38 59.5669 1035.38 59.5669L1035.38 59.5659L1035.69 59.6538Z" fill="url(#paint8_linear_961_35)"/>
<path d="M1035.18 59.4868C1035.2 59.4895 1035.21 59.4918 1035.23 59.4946C1035.23 59.4953 1035.24 59.4966 1035.24 59.4976C1035.25 59.4996 1035.27 59.5024 1035.29 59.5054C1035.31 59.5101 1035.33 59.5176 1035.36 59.5347C1035.37 59.5428 1035.37 59.5527 1035.37 59.5571L1035.38 59.5601C1035.38 59.5618 1035.38 59.5639 1035.38 59.5659L1034.96 59.4468C1034.97 59.4414 1034.98 59.4401 1034.99 59.4439C1035.05 59.4636 1035.12 59.475 1035.18 59.4868Z" fill="url(#paint9_linear_961_35)"/>
<path fill-rule="evenodd" clip-rule="evenodd" d="M1118.07 57.9039C1111.8 61.2206 1104.14 60.3236 1098.81 55.6495C1092.79 50.3709 1083.52 51.5379 1078.99 58.1424C1074.99 63.9906 1067.78 66.7572 1060.89 65.0951C1053.11 63.2181 1045.44 68.5633 1044.5 76.5136C1043.67 83.5536 1038.58 89.3499 1031.71 91.0806C1023.94 93.0351 1019.63 101.334 1022.5 108.809C1025.04 115.428 1023.22 122.926 1017.94 127.653C1011.97 132.991 1012.01 142.343 1018.03 147.63C1023.35 152.311 1025.23 159.794 1022.75 166.434C1019.95 173.933 1024.33 182.195 1032.11 184.083C1038.99 185.754 1044.14 191.507 1045.02 198.539C1046.03 206.481 1053.75 211.761 1061.51 209.817C1068.39 208.096 1075.62 210.801 1079.67 216.614C1084.25 223.18 1093.54 224.267 1099.51 218.937C1104.8 214.217 1112.46 213.255 1118.75 216.518C1125.86 220.203 1134.58 216.849 1137.4 209.354C1139.89 202.717 1146.22 198.307 1153.31 198.272C1161.31 198.232 1167.48 191.206 1166.49 183.262C1165.61 176.229 1169.16 169.382 1175.42 166.057C1182.49 162.301 1184.69 153.212 1180.12 146.64C1176.07 140.821 1176.04 133.106 1180.04 127.253C1184.55 120.642 1182.28 111.572 1175.17 107.877C1168.89 104.605 1165.27 97.7897 1166.09 90.7486C1167.02 82.797 1160.79 75.8239 1152.78 75.8526C1145.69 75.8781 1139.32 71.523 1136.78 64.9076C1133.9 57.4368 1125.14 54.1582 1118.07 57.9039ZM1138.52 64.2377C1135.24 55.7236 1125.26 51.9871 1117.2 56.2559C1111.62 59.2106 1104.79 58.4114 1100.04 54.2476C1093.18 48.2319 1082.61 49.5618 1077.45 57.0887C1073.88 62.2985 1067.47 64.763 1061.33 63.2824C1052.46 61.1432 1043.72 67.2349 1042.65 76.2955C1041.91 82.5669 1037.38 87.7306 1031.25 89.2723C1022.4 91.4998 1017.49 100.958 1020.76 109.476C1023.02 115.373 1021.4 122.052 1016.7 126.263C1009.9 132.347 1009.94 143.005 1016.79 149.03C1021.54 153.2 1023.21 159.866 1021 165.782C1017.81 174.328 1022.8 183.743 1031.67 185.895C1037.8 187.384 1042.38 192.509 1043.17 198.773C1044.32 207.825 1053.12 213.841 1061.97 211.626C1068.09 210.093 1074.53 212.502 1078.14 217.681C1083.36 225.163 1093.95 226.403 1100.75 220.328C1105.47 216.124 1112.28 215.266 1117.89 218.173C1125.99 222.373 1135.94 218.551 1139.14 210.009C1141.36 204.096 1147 200.168 1153.31 200.137C1162.44 200.091 1169.47 192.084 1168.34 183.031C1167.55 176.765 1170.72 170.666 1176.3 167.704C1184.36 163.424 1186.86 153.065 1181.65 145.575C1178.05 140.391 1178.02 133.519 1181.58 128.304C1186.72 120.77 1184.13 110.433 1176.04 106.223C1170.43 103.308 1167.21 97.2366 1167.94 90.9641C1169 81.9021 1161.9 73.9552 1152.77 73.9879C1146.46 74.0106 1140.79 70.1309 1138.52 64.2377Z" fill="#3670F3"/>
<g clip-path="url(#clip1_961_35)">
<path fill-rule="evenodd" clip-rule="evenodd" d="M381.769 307.011C384.901 307.011 387.788 307.683 390.428 309.026C393.011 310.302 394.89 311.832 396.064 313.617L396.176 313.791V307.747H403.748V343.661C403.748 349.911 401.896 354.857 398.194 358.498C394.518 362.14 389.289 363.961 382.507 363.961C379.219 363.961 376.371 363.587 373.964 362.838C371.556 362.089 369.472 361.043 367.712 359.7C365.952 358.382 364.567 356.949 363.557 355.399C362.548 353.875 362.042 353.113 362.042 353.113L368.488 349.511C368.488 349.511 368.903 350.105 369.731 351.293C370.56 352.507 371.517 353.552 372.605 354.431C373.692 355.335 375.025 356.032 376.604 356.523C378.183 357.04 380.138 357.298 382.468 357.298C386.765 357.298 390.079 356.136 392.409 353.811C394.739 351.487 395.903 348.361 395.903 344.435V340.949H395.865C394.7 342.653 392.874 344.216 390.389 345.637C387.904 347.057 384.694 347.767 380.759 347.767C375.349 347.767 370.754 345.804 366.974 341.878C363.195 337.927 361.305 333.136 361.305 327.505C361.305 321.823 363.156 316.993 366.858 313.016C370.586 309.013 375.556 307.011 381.769 307.011ZM382.585 314.023C378.676 314.023 375.452 315.289 372.915 317.82C370.378 320.325 369.11 323.554 369.11 327.505C369.11 331.508 370.391 334.763 372.954 337.268C375.517 339.773 378.74 341.026 382.623 341.026C386.48 341.026 389.716 339.812 392.331 337.384C394.971 334.931 396.266 331.638 396.214 327.505C396.188 323.424 394.881 320.157 392.292 317.704C389.704 315.25 386.468 314.023 382.585 314.023Z" fill="#212226"/>
<path d="M236.762 292.289C240.257 292.289 243.208 292.651 245.616 293.374C248.049 294.097 250.224 295.04 252.139 296.202C253.935 297.267 255.424 298.378 256.606 299.534L258.702 301.626L253.149 307.359C253.144 307.354 252.652 306.85 251.673 305.849C250.715 304.816 249.538 303.886 248.14 303.059C246.768 302.233 245.176 301.535 243.363 300.967C241.551 300.399 239.364 300.115 236.801 300.115C231.261 300.115 226.563 302.039 222.705 305.887C218.848 309.736 216.919 314.798 216.919 321.074C216.919 327.066 218.796 331.986 222.55 335.835C226.303 339.683 231.21 341.607 237.267 341.607C243.687 341.607 248.412 339.941 251.441 336.609C254.431 333.322 256.118 329.564 256.503 325.336H236.413V318.556H264.721V322.081C264.721 330.062 262.184 336.584 257.11 341.646C252.036 346.708 245.215 349.239 236.646 349.239C228.776 349.239 222.123 346.579 216.687 341.258C211.25 335.912 208.531 329.132 208.531 320.919C208.532 312.344 211.211 305.435 216.57 300.192C221.928 294.923 228.659 292.289 236.762 292.289Z" fill="#212226"/>
<path fill-rule="evenodd" clip-rule="evenodd" d="M289.94 307.011C295.972 307.011 301.033 309.09 305.123 313.248C309.213 317.381 311.259 322.34 311.259 328.125C311.259 333.936 309.213 338.908 305.123 343.041C301.033 347.173 295.972 349.239 289.94 349.239C283.908 349.239 278.86 347.173 274.796 343.041C270.757 338.908 268.738 333.936 268.738 328.125C268.738 322.34 270.757 317.381 274.796 313.248C278.86 309.09 283.908 307.011 289.94 307.011ZM289.979 314.527C286.303 314.527 283.145 315.831 280.504 318.44C277.864 321.022 276.543 324.251 276.543 328.125C276.543 331.999 277.863 335.241 280.504 337.849C283.145 340.458 286.303 341.762 289.979 341.762C293.629 341.762 296.787 340.458 299.454 337.849C302.12 335.241 303.453 331.999 303.453 328.125C303.453 324.251 302.12 321.022 299.454 318.44C296.787 315.831 293.629 314.527 289.979 314.527Z" fill="#212226"/>
<path fill-rule="evenodd" clip-rule="evenodd" d="M336.204 307.011C342.236 307.011 347.297 309.09 351.387 313.248C355.477 317.381 357.522 322.34 357.522 328.125C357.522 333.936 355.477 338.908 351.387 343.041C347.297 347.173 342.236 349.239 336.204 349.239C330.172 349.239 325.124 347.173 321.06 343.041C317.021 338.908 315.002 333.936 315.002 328.125C315.002 322.34 317.021 317.381 321.06 313.248C325.124 309.09 330.172 307.011 336.204 307.011ZM336.243 314.527C332.567 314.527 329.408 315.831 326.767 318.44C324.127 321.022 322.807 324.251 322.807 328.125C322.807 331.999 324.127 335.241 326.767 337.849C329.408 340.458 332.567 341.762 336.243 341.762C339.893 341.762 343.051 340.458 345.717 337.849C348.384 335.241 349.717 331.999 349.717 328.125C349.717 324.251 348.384 321.022 345.717 318.44C343.051 315.831 339.893 314.527 336.243 314.527Z" fill="#212226"/>
<path fill-rule="evenodd" clip-rule="evenodd" d="M447.842 307.011C453.874 307.011 458.728 308.87 462.404 312.59C466.08 316.309 467.918 320.997 467.918 326.653V330.101H434.271C434.634 333.474 436.012 336.289 438.406 338.546C441.254 341.181 444.503 342.498 448.153 342.498C450.094 342.498 451.803 342.227 453.279 341.685C454.754 341.142 456.074 340.342 457.239 339.283C458.43 338.224 459.634 336.687 460.851 334.672L467.064 337.578C465.588 340.419 463.97 342.653 462.21 344.281C460.45 345.908 458.43 347.148 456.152 348C453.9 348.826 451.22 349.239 448.114 349.239C442.134 349.239 437.073 347.251 432.931 343.273C428.789 339.296 426.718 334.246 426.718 328.125C426.718 322.03 428.776 316.993 432.892 313.016C437.034 309.013 442.018 307.011 447.842 307.011ZM447.92 313.868C444.166 313.868 440.93 315.237 438.212 317.975C436.365 319.836 435.151 322.031 434.572 324.561H460.346C460.216 321.488 459.013 318.943 456.735 316.929C454.457 314.888 451.518 313.868 447.92 313.868Z" fill="#212226"/>
<path d="M509.038 292.289C512.222 292.289 514.915 292.651 517.115 293.374C519.341 294.097 521.309 295.234 523.017 296.783C524.726 298.333 526.033 299.96 526.939 301.665C527.871 303.343 528.337 304.183 528.337 304.183L521.192 307.011C521.19 307.006 520.853 306.399 520.183 305.19C519.51 303.951 518.668 302.853 517.659 301.897C516.649 300.942 515.484 300.257 514.164 299.844C512.869 299.405 511.225 299.185 509.232 299.185C506.151 299.185 503.653 299.831 501.738 301.122C499.822 302.414 498.864 304.209 498.864 306.507C498.864 308.393 499.589 310.007 501.039 311.35C502.515 312.693 506.32 314.268 512.455 316.076C518.772 317.936 523.134 320.235 525.541 322.973C527.949 325.685 529.153 329.042 529.153 333.045C529.153 337.953 527.327 341.878 523.677 344.823C520.027 347.767 515.277 349.239 509.426 349.239C505.776 349.239 502.618 348.774 499.951 347.844C497.311 346.889 495.085 345.546 493.273 343.815C491.461 342.059 490.101 340.2 489.195 338.237C488.289 336.248 487.836 335.253 487.836 335.253L495.292 332.542C495.292 332.542 495.615 333.252 496.262 334.672C496.91 336.093 497.816 337.372 498.981 338.508C500.171 339.619 501.647 340.523 503.407 341.22C505.168 341.917 507.239 342.266 509.62 342.266C513.115 342.266 515.833 341.504 517.775 339.98C519.742 338.43 520.726 336.222 520.726 333.355C520.726 330.566 519.768 328.474 517.853 327.079C515.963 325.659 512.416 324.225 507.213 322.779C500.767 320.945 496.366 318.75 494.01 316.193C491.68 313.61 490.516 310.511 490.516 306.895C490.516 302.607 492.185 299.108 495.525 296.396C498.89 293.658 503.394 292.289 509.038 292.289Z" fill="#212226"/>
<path fill-rule="evenodd" clip-rule="evenodd" d="M597.861 307.011C603.893 307.011 608.954 309.09 613.044 313.248C617.134 317.381 619.179 322.34 619.179 328.125C619.179 333.936 617.134 338.908 613.044 343.041C608.954 347.173 603.893 349.239 597.861 349.239C591.829 349.239 586.781 347.173 582.717 343.041C578.678 338.908 576.659 333.936 576.659 328.125C576.659 322.34 578.678 317.381 582.717 313.248C586.781 309.09 591.829 307.011 597.861 307.011ZM597.9 314.527C594.224 314.527 591.065 315.831 588.425 318.44C585.784 321.022 584.464 324.251 584.464 328.125C584.464 331.999 585.784 335.241 588.425 337.849C591.065 340.458 594.224 341.762 597.9 341.762C601.55 341.762 604.708 340.458 607.375 337.849C610.041 335.241 611.374 331.999 611.374 328.125C611.374 324.251 610.041 321.022 607.375 318.44C604.708 315.831 601.55 314.527 597.9 314.527Z" fill="#212226"/>
<path d="M663.708 307.747H673.338V314.333H663.708V337.307C663.708 339.296 664.086 340.677 664.837 341.452C665.613 342.201 666.7 342.576 668.098 342.576C668.797 342.576 669.429 342.524 669.998 342.421C670.568 342.317 671.231 342.163 671.981 341.956C672.747 341.727 673.136 341.611 673.146 341.607V347.961C673.136 347.964 672.696 348.107 671.826 348.387C670.972 348.646 670.066 348.852 669.108 349.007C668.176 349.162 667.229 349.239 666.271 349.239C663.294 349.239 660.808 348.387 658.815 346.682C656.822 344.952 655.828 342.008 655.828 337.849V314.333H649.537V307.747H655.828V297.829H663.708V307.747Z" fill="#212226"/>
<path d="M697.553 307.011C700.531 307.011 703.135 307.437 705.361 308.29C707.587 309.142 709.54 310.304 711.222 311.776C712.905 313.249 714.603 315.65 716.311 318.982L709.322 321.888C708.131 319.847 707.028 318.349 706.019 317.394C705.035 316.438 703.86 315.663 702.488 315.069C701.142 314.475 699.547 314.178 697.709 314.178C693.981 314.178 690.797 315.495 688.156 318.13C685.516 320.764 684.196 324.096 684.196 328.125C684.196 332.154 685.516 335.486 688.156 338.121C690.797 340.729 693.981 342.033 697.709 342.033C699.417 342.033 700.919 341.762 702.213 341.22C703.508 340.652 704.724 339.812 705.863 338.702C707.002 337.565 708.105 336.003 709.166 334.014L716.193 336.92C714.898 339.761 713.386 342.021 711.652 343.699C709.917 345.378 707.924 346.721 705.672 347.728C703.445 348.736 700.712 349.239 697.476 349.239C691.392 349.239 686.359 347.251 682.373 343.273C678.386 339.296 676.393 334.246 676.393 328.125C676.393 322.004 678.412 316.954 682.451 312.977C686.489 309 691.522 307.011 697.553 307.011Z" fill="#212226"/>
<path d="M728.914 332.077C728.914 335.305 729.638 337.785 731.088 339.515C732.538 341.22 734.723 342.072 737.648 342.072C740.806 342.072 743.333 341 745.223 338.857C747.139 336.687 748.096 333.936 748.096 330.604V307.747H755.94V348.503H748.252V342.266L748.003 342.676C746.737 344.7 745.07 346.281 743.007 347.419C740.832 348.633 738.244 349.239 735.241 349.239C730.788 349.239 727.309 347.896 724.798 345.21C722.287 342.498 721.028 338.882 721.028 334.363V307.747H728.914V332.077Z" fill="#212226"/>
<path d="M774.44 307.747H784.07V314.333H774.44V337.307C774.44 339.296 774.812 340.677 775.563 341.452C776.34 342.201 777.427 342.576 778.825 342.576C779.524 342.576 780.161 342.524 780.73 342.421C781.3 342.317 781.957 342.163 782.708 341.956C783.474 341.727 783.862 341.611 783.873 341.607V347.961C783.862 347.964 783.422 348.107 782.553 348.387C781.698 348.646 780.792 348.852 779.835 349.007C778.903 349.162 777.96 349.239 777.003 349.239C774.025 349.239 771.54 348.387 769.547 346.682C767.554 344.952 766.555 342.007 766.555 337.849V314.333H760.264V307.747H766.555V297.829H774.44V307.747Z" fill="#212226"/>
<path d="M803.351 307.011C805.577 307.011 807.493 307.269 809.098 307.786C810.703 308.276 812.127 309.038 813.37 310.071C814.612 311.079 815.689 312.241 816.595 313.558C817.494 314.839 817.944 315.485 817.951 315.495L812.282 318.982C812.275 318.972 811.964 318.533 811.35 317.665C810.755 316.787 810.045 316.012 809.217 315.34C808.414 314.643 807.508 314.126 806.499 313.791C805.515 313.455 804.36 313.287 803.04 313.287C800.71 313.287 798.888 313.765 797.568 314.72C796.247 315.65 795.585 316.812 795.584 318.207C795.584 319.912 796.336 321.178 797.837 322.004C799.364 322.831 801.865 323.657 805.334 324.483C810.278 325.672 813.799 327.17 815.896 328.978C818.019 330.76 819.08 333.485 819.08 337.152C819.08 340.975 817.631 343.945 814.731 346.063C811.832 348.181 808.078 349.239 803.47 349.239C800.545 349.239 798.07 348.891 796.051 348.194C794.031 347.496 792.297 346.502 790.847 345.21C789.424 343.919 788.31 342.55 787.508 341.104C786.712 339.643 786.313 338.907 786.306 338.896L792.364 335.835C792.364 335.835 792.701 336.39 793.374 337.501C794.073 338.611 794.85 339.58 795.704 340.406C796.558 341.207 797.604 341.853 798.846 342.343C800.115 342.808 801.684 343.041 803.547 343.041C805.774 343.041 807.638 342.55 809.14 341.569C810.641 340.587 811.392 339.283 811.392 337.656C811.392 335.822 810.744 334.479 809.45 333.627C808.182 332.748 805.784 331.87 802.264 330.992C796.802 329.649 793.048 328.022 791.003 326.111C788.983 324.174 787.973 321.694 787.973 318.672C787.973 315.108 789.413 312.28 792.286 310.188C795.16 308.07 798.846 307.011 803.351 307.011Z" fill="#212226"/>
<path fill-rule="evenodd" clip-rule="evenodd" d="M900.434 307.011C905.456 307.011 909.536 308.393 912.669 311.156C915.827 313.894 917.406 317.626 917.406 322.353V348.503H909.795V341.956L909.656 342.18C908.2 344.471 906.331 346.218 904.048 347.419C901.719 348.633 899.13 349.239 896.282 349.239C891.804 349.239 888.112 348.064 885.213 345.714C882.313 343.338 880.863 340.213 880.863 336.338C880.863 332.232 882.432 328.964 885.565 326.537C888.723 324.109 892.865 322.895 897.991 322.895C899.958 322.895 901.977 323.115 904.048 323.554C906.119 323.967 907.942 324.548 909.521 325.297V322.818C909.521 319.899 908.511 317.652 906.492 316.076C904.473 314.475 902.107 313.675 899.389 313.675C897.913 313.675 896.577 313.868 895.386 314.256C894.195 314.643 893.124 315.173 892.166 315.844C891.208 316.516 890.25 317.316 889.292 318.246C888.337 319.173 887.856 319.638 887.853 319.641L882.261 315.301C882.272 315.291 882.883 314.684 884.089 313.481C885.306 312.241 886.688 311.117 888.241 310.11C889.82 309.077 891.57 308.302 893.486 307.786C895.428 307.269 897.742 307.011 900.434 307.011ZM898.922 328.512C895.764 328.512 893.279 329.145 891.467 330.411C889.681 331.676 888.785 333.472 888.785 335.796C888.785 337.991 889.603 339.696 891.234 340.91C892.891 342.124 895.076 342.731 897.794 342.731C901.418 342.731 904.281 341.465 906.378 338.934C908.475 336.377 909.521 333.949 909.521 331.651V331.147C908.33 330.372 906.792 329.739 904.902 329.248C903.013 328.758 901.019 328.512 898.922 328.512Z" fill="#212226"/>
<path d="M932.623 332.077C932.623 335.305 933.348 337.785 934.797 339.515C936.247 341.22 938.438 342.072 941.363 342.072C944.521 342.072 947.042 341 948.932 338.857C950.848 336.687 951.806 333.936 951.806 330.604V307.747H959.65V348.503H951.961V342.266L951.713 342.676C950.447 344.7 948.784 346.281 946.721 347.419C944.547 348.633 941.958 349.239 938.955 349.239C934.503 349.239 931.018 347.896 928.507 345.21C925.996 342.498 924.743 338.882 924.743 334.363V307.747H932.623V332.077Z" fill="#212226"/>
<path d="M1030.5 307.011C1033.48 307.011 1036.08 307.437 1038.31 308.29C1040.53 309.142 1042.49 310.304 1044.17 311.776C1045.86 313.249 1047.55 315.65 1049.26 318.982L1042.27 321.888C1041.08 319.847 1039.98 318.35 1038.97 317.394C1037.99 316.438 1036.8 315.663 1035.43 315.069C1034.09 314.475 1032.5 314.178 1030.66 314.178C1026.93 314.178 1023.75 315.495 1021.11 318.13C1018.47 320.764 1017.15 324.096 1017.15 328.125C1017.15 332.154 1018.47 335.486 1021.11 338.121C1023.75 340.729 1026.93 342.033 1030.66 342.033C1032.37 342.033 1033.87 341.762 1035.16 341.22C1036.46 340.652 1037.67 339.812 1038.81 338.702C1039.95 337.565 1041.05 336.003 1042.11 334.014L1049.14 336.92C1047.85 339.761 1046.33 342.021 1044.6 343.699C1042.86 345.378 1040.87 346.721 1038.62 347.728C1036.39 348.736 1033.66 349.239 1030.43 349.239C1024.34 349.239 1019.31 347.251 1015.32 343.273C1011.33 339.296 1009.34 334.246 1009.34 328.125C1009.34 322.004 1011.36 316.954 1015.4 312.977C1019.43 308.999 1024.47 307.011 1030.5 307.011Z" fill="#212226"/>
<path fill-rule="evenodd" clip-rule="evenodd" d="M1116.7 307.011C1122.73 307.011 1127.58 308.87 1131.26 312.59C1134.93 316.309 1136.77 320.997 1136.77 326.653V330.101H1103.13C1103.49 333.474 1104.87 336.289 1107.26 338.546C1110.11 341.181 1113.36 342.498 1117.01 342.498C1118.95 342.498 1120.66 342.227 1122.14 341.685C1123.61 341.142 1124.93 340.342 1126.1 339.283C1127.29 338.224 1128.49 336.687 1129.71 334.672L1135.92 337.578C1134.44 340.419 1132.83 342.653 1131.07 344.281C1129.31 345.908 1127.29 347.148 1125.01 348C1122.76 348.826 1120.08 349.239 1116.97 349.239C1110.99 349.239 1105.93 347.251 1101.79 343.273C1097.65 339.296 1095.58 334.246 1095.58 328.125C1095.58 322.03 1097.63 316.993 1101.75 313.016C1105.89 309.013 1110.87 307.011 1116.7 307.011ZM1116.78 313.868C1113.02 313.868 1109.79 315.237 1107.07 317.975C1105.22 319.836 1104.01 322.031 1103.43 324.561H1129.2C1129.07 321.488 1127.87 318.943 1125.59 316.929C1123.31 314.888 1120.38 313.868 1116.78 313.868Z" fill="#212226"/>
<path d="M420.439 348.503H412.556V293.025H420.439V348.503Z" fill="#212226"/>
<path d="M543.489 313.945C544.783 311.905 546.596 310.239 548.925 308.948C551.281 307.657 553.87 307.011 556.692 307.011C561.248 307.011 564.795 308.418 567.332 311.234C569.895 314.049 571.176 317.729 571.176 322.275V348.503H563.293V324.096C563.293 321.177 562.581 318.801 561.157 316.968C559.733 315.134 557.43 314.217 554.245 314.217C551.346 314.217 548.861 315.25 546.79 317.316C544.719 319.357 543.683 322.03 543.683 325.336V348.503H535.801V293.025H543.489V313.945Z" fill="#212226"/>
<path d="M644.126 307.011C644.515 307.011 644.981 307.05 645.525 307.127C646.094 307.179 646.612 307.256 647.078 307.359C647.564 307.436 647.807 307.475 647.813 307.476V314.837C647.808 314.836 647.59 314.784 647.156 314.682C646.741 314.579 646.198 314.501 645.525 314.449C644.852 314.372 644.308 314.333 643.894 314.333C641.098 314.333 638.639 315.392 636.516 317.51C634.393 319.602 633.332 322.546 633.332 326.343V348.503H625.447V307.747H632.902V314.139C634.377 311.686 636.102 309.891 638.069 308.754C640.062 307.592 642.081 307.011 644.126 307.011Z" fill="#212226"/>
<path d="M851.559 340.677H877.384V348.503H842.979V293.025H851.559V340.677Z" fill="#212226"/>
<path d="M989.41 307.011C993.94 307.011 997.477 308.418 1000.01 311.234C1002.58 314.023 1003.86 317.755 1003.86 322.43V348.503H995.975V324.096C995.975 321.178 995.261 318.801 993.837 316.968C992.413 315.134 990.109 314.217 986.925 314.217C984.026 314.217 981.54 315.25 979.469 317.316C977.398 319.357 976.363 322.03 976.363 325.336V348.503H968.483V307.747H976.208V313.89C977.5 311.901 979.31 310.266 981.644 308.987C984 307.67 986.588 307.011 989.41 307.011Z" fill="#212226"/>
<path d="M1062.4 313.945C1063.7 311.905 1065.51 310.239 1067.84 308.948C1070.19 307.657 1072.78 307.011 1075.61 307.011C1080.16 307.011 1083.71 308.418 1086.25 311.234C1088.81 314.049 1090.09 317.729 1090.09 322.275V348.503H1082.21V324.096C1082.21 321.178 1081.5 318.801 1080.07 316.968C1078.65 315.134 1076.35 314.217 1073.16 314.217C1070.26 314.217 1067.78 315.25 1065.71 317.316C1063.64 319.357 1062.6 322.03 1062.6 325.336V348.503H1054.71V293.025H1062.4V313.945Z" fill="#212226"/>
<path d="M1161.07 307.011C1161.45 307.011 1161.92 307.05 1162.46 307.127C1163.03 307.179 1163.55 307.256 1164.02 307.359C1164.51 307.437 1164.76 307.476 1164.76 307.476V314.837C1164.76 314.837 1164.53 314.785 1164.09 314.682C1163.68 314.579 1163.14 314.501 1162.46 314.449C1161.79 314.372 1161.25 314.333 1160.83 314.333C1158.04 314.333 1155.58 315.392 1153.45 317.51C1151.33 319.602 1150.27 322.546 1150.27 326.343V348.503H1142.39V307.747H1149.85V314.139L1150.13 313.687C1151.54 311.464 1153.16 309.82 1155.01 308.754C1157 307.592 1159.02 307.011 1161.07 307.011Z" fill="#212226"/>
<path d="M131.121 325.846C119.309 330.354 109.275 358.36 118.776 357.113C122.629 356.609 125.988 352.983 134.833 352.885C134.812 352.919 132.939 351.624 132.885 347.917C132.13 339.998 131.091 325.877 131.121 325.846Z" fill="#76BBFF"/>
<path d="M166.879 325.846C178.691 330.354 188.725 358.36 179.224 357.113C175.371 356.609 171.304 352.983 162.458 352.885C162.479 352.919 165.061 351.624 165.115 347.917C165.87 339.998 166.909 325.877 166.879 325.846Z" fill="#76BBFF"/>
<path d="M136.251 340.144C138.002 340.102 161.75 340.077 161.75 340.077C161.731 345.026 161.279 348.695 160.853 351.225C160.402 353.909 160.168 357.103 157.519 358.611C155.972 359.491 153.391 359.987 148.571 360C144.102 360.012 141.702 359.587 140.282 358.835C137.552 357.388 137.485 354.054 137.057 351.342C136.655 348.789 136.232 345.1 136.251 340.144Z" fill="#BBE2FE"/>
<path d="M149 286C152.113 285.939 171.768 303.422 171.666 324.981C171.626 333.747 170.469 339.782 169.624 343.456C169.032 346.025 168.549 348.774 166.301 350.84C163.935 353.016 159.563 354.282 148.236 354.307C137.35 354.332 133.369 353.149 131.314 351.17C129.112 349.049 128.757 346.249 128.195 343.65C127.391 339.939 126.294 333.859 126.334 325.08C126.432 303.527 145.84 286.134 149 286Z" fill="url(#paint10_linear_961_35)"/>
<path d="M149 286C152.113 285.939 171.768 303.422 171.666 324.981C171.626 333.747 170.469 339.782 169.624 343.456C169.032 346.025 168.549 348.774 166.301 350.84C163.935 353.016 159.563 354.282 148.236 354.307C137.35 354.332 133.369 353.149 131.314 351.17C129.112 349.049 128.757 346.249 128.195 343.65C127.391 339.939 126.294 333.859 126.334 325.08C126.432 303.527 145.84 286.134 149 286Z" fill="url(#paint11_linear_961_35)"/>
<path d="M155.011 314.117C158.33 317.451 158.33 322.856 155.011 326.192C151.69 329.526 146.31 329.526 142.989 326.192C139.67 322.856 139.67 317.451 142.989 314.117C146.31 310.781 151.69 310.781 155.011 314.117Z" fill="white"/>
</g>
</g>
<defs>
<linearGradient id="paint0_linear_961_35" x1="1020.57" y1="55.9124" x2="1020.57" y2="126.933" gradientUnits="userSpaceOnUse">
<stop stop-color="#BAA1F9"/>
<stop offset="1" stop-color="#3670F3"/>
</linearGradient>
<linearGradient id="paint1_linear_961_35" x1="1020.57" y1="55.9124" x2="1020.57" y2="126.933" gradientUnits="userSpaceOnUse">
<stop stop-color="#BAA1F9"/>
<stop offset="1" stop-color="#3670F3"/>
</linearGradient>
<linearGradient id="paint2_linear_961_35" x1="1020.57" y1="55.9124" x2="1020.57" y2="126.933" gradientUnits="userSpaceOnUse">
<stop stop-color="#BAA1F9"/>
<stop offset="1" stop-color="#3670F3"/>
</linearGradient>
<linearGradient id="paint3_linear_961_35" x1="1020.57" y1="55.9124" x2="1020.57" y2="126.933" gradientUnits="userSpaceOnUse">
<stop stop-color="#BAA1F9"/>
<stop offset="1" stop-color="#3670F3"/>
</linearGradient>
<linearGradient id="paint4_linear_961_35" x1="1020.57" y1="55.9124" x2="1020.57" y2="126.933" gradientUnits="userSpaceOnUse">
<stop stop-color="#BAA1F9"/>
<stop offset="1" stop-color="#3670F3"/>
</linearGradient>
<linearGradient id="paint5_linear_961_35" x1="1020.57" y1="55.9124" x2="1020.57" y2="126.933" gradientUnits="userSpaceOnUse">
<stop stop-color="#BAA1F9"/>
<stop offset="1" stop-color="#3670F3"/>
</linearGradient>
<linearGradient id="paint6_linear_961_35" x1="1020.57" y1="55.9124" x2="1020.57" y2="126.933" gradientUnits="userSpaceOnUse">
<stop stop-color="#BAA1F9"/>
<stop offset="1" stop-color="#3670F3"/>
</linearGradient>
<linearGradient id="paint7_linear_961_35" x1="1020.57" y1="55.9124" x2="1020.57" y2="126.933" gradientUnits="userSpaceOnUse">
<stop stop-color="#BAA1F9"/>
<stop offset="1" stop-color="#3670F3"/>
</linearGradient>
<linearGradient id="paint8_linear_961_35" x1="1020.57" y1="55.9124" x2="1020.57" y2="126.933" gradientUnits="userSpaceOnUse">
<stop stop-color="#BAA1F9"/>
<stop offset="1" stop-color="#3670F3"/>
</linearGradient>
<linearGradient id="paint9_linear_961_35" x1="1020.57" y1="55.9124" x2="1020.57" y2="126.933" gradientUnits="userSpaceOnUse">
<stop stop-color="#BAA1F9"/>
<stop offset="1" stop-color="#3670F3"/>
</linearGradient>
<linearGradient id="paint10_linear_961_35" x1="149" y1="286" x2="149" y2="354.308" gradientUnits="userSpaceOnUse">
<stop offset="0.65" stop-color="#3186FF"/>
<stop offset="0.98" stop-color="#A9A8FF"/>
</linearGradient>
<linearGradient id="paint11_linear_961_35" x1="126.252" y1="337.927" x2="170.943" y2="337.927" gradientUnits="userSpaceOnUse">
<stop stop-color="#3186FF"/>
<stop offset="0.25" stop-color="#3186FF" stop-opacity="0"/>
<stop offset="0.75" stop-color="#3186FF" stop-opacity="0"/>
<stop offset="1" stop-color="#3186FF"/>
</linearGradient>
<clipPath id="clip0_961_35">
<rect width="1280" height="640" fill="white"/>
</clipPath>
<clipPath id="clip1_961_35">
<rect width="1050" height="78" fill="white" transform="translate(115 286)"/>
</clipPath>
</defs>
</svg>
