<svg width="1280" height="493" viewBox="0 0 1280 493" fill="none" xmlns="http://www.w3.org/2000/svg">
<g clip-path="url(#clip0_15_12)">
<rect width="1280" height="492.307" rx="28" fill="#F5EDE9"/>
<g opacity="0.54">
<path d="M171.301 490.544C178.569 493.943 186.969 493.943 194.237 490.544L220.226 478.391C223.104 477.045 226.198 476.216 229.363 475.943L257.948 473.473C265.941 472.783 273.216 468.582 277.81 462.005L294.241 438.486C296.061 435.881 298.325 433.616 300.93 431.797L324.45 415.366C331.027 410.771 335.227 403.496 335.918 395.503L338.387 366.919C338.661 363.753 339.49 360.66 340.836 357.782L352.989 331.792C356.387 324.525 356.387 316.124 352.989 308.857L340.836 282.867C339.49 279.989 338.661 276.896 338.387 273.73L335.918 245.146C335.227 237.153 331.027 229.878 324.45 225.283L300.93 208.852C298.325 207.032 296.061 204.768 294.241 202.163L277.81 178.643C273.216 172.067 265.941 167.866 257.948 167.176L229.363 164.706C226.198 164.433 223.104 163.604 220.226 162.258L194.237 150.104C186.969 146.706 178.569 146.706 171.301 150.104L145.312 162.258C142.433 163.604 139.34 164.433 136.174 164.706L107.59 167.176C99.5972 167.866 92.3221 172.067 87.7275 178.643L71.2967 202.163C69.4769 204.768 67.2126 207.032 64.6077 208.852L41.0879 225.283C34.511 229.878 30.3107 237.153 29.6202 245.146L27.1506 273.73C26.877 276.896 26.0483 279.989 24.7022 282.867L12.5488 308.857C9.15039 316.124 9.15038 324.525 12.5488 331.792L24.7022 357.782C26.0483 360.66 26.877 363.753 27.1506 366.919L29.6202 395.503C30.3107 403.496 34.511 410.771 41.0879 415.366L64.6077 431.797C67.2126 433.616 69.4769 435.881 71.2967 438.486L87.7275 462.005C92.3221 468.582 99.5971 472.783 107.59 473.473L136.174 475.943C139.34 476.216 142.433 477.045 145.312 478.391L171.301 490.544Z" fill="#FFC5BF"/>
<path d="M52.8135 48.7822C52.8135 7.63628 86.1689 -25.7191 127.315 -25.7191H276.317C317.463 -25.7191 350.819 7.63628 350.819 48.7822V48.7822C350.819 89.9281 317.463 123.283 276.317 123.283H127.315C86.1689 123.283 52.8135 89.9281 52.8135 48.7822V48.7822Z" fill="#FFD58F"/>
<path d="M90.0635 48.7823C90.0635 28.2094 106.741 11.5317 127.314 11.5317V11.5317C147.887 11.5317 164.565 28.2094 164.565 48.7823V48.7823C164.565 69.3553 147.887 86.0329 127.314 86.0329V86.0329C106.741 86.0329 90.0635 69.3553 90.0635 48.7823V48.7823Z" fill="white"/>
<path fill-rule="evenodd" clip-rule="evenodd" d="M742.844 258.878C757.563 251.404 773.591 251.404 788.311 258.878C798.551 264.077 808.937 264.077 819.177 258.878C833.897 251.404 849.925 251.404 864.644 258.878C874.885 264.077 885.27 264.077 895.511 258.878C910.23 251.404 926.258 251.404 940.978 258.878C951.218 264.077 961.604 264.077 971.844 258.878C986.564 251.404 1002.59 251.404 1017.31 258.878C1027.55 264.077 1037.94 264.077 1048.18 258.878C1062.9 251.404 1078.93 251.404 1093.64 258.878L1093.64 258.878C1103.89 264.077 1114.27 264.077 1124.51 258.878C1127.8 257.209 1132.1 258.061 1134.11 260.781C1136.13 263.5 1135.1 267.057 1131.81 268.726C1117.09 276.2 1101.06 276.2 1086.34 268.726C1076.1 263.526 1065.72 263.526 1055.48 268.726C1040.76 276.2 1024.73 276.2 1010.01 268.726C999.771 263.526 989.385 263.526 979.144 268.726C964.425 276.2 948.397 276.2 933.678 268.726C923.437 263.526 913.051 263.526 902.811 268.726C888.092 276.2 872.063 276.2 857.344 268.726C847.104 263.526 836.718 263.526 826.477 268.726C811.758 276.2 795.73 276.2 781.011 268.726C770.77 263.526 760.384 263.526 750.144 268.726C746.858 270.394 742.56 269.542 740.544 266.823C738.529 264.103 739.558 260.546 742.844 258.878Z" fill="#B1CCC6"/>
<path d="M1193.59 262.775C1193.59 252.705 1185.43 244.541 1175.36 244.541H1168.14C1158.07 244.541 1149.91 252.705 1149.91 262.775V262.775C1149.91 272.846 1158.07 281.009 1168.14 281.009L1175.36 281.009C1185.43 281.009 1193.59 272.846 1193.59 262.775V262.775Z" fill="#D7FCB4"/>
<path d="M1207.13 262.775C1207.13 259.796 1209.55 257.381 1212.52 257.381L1449.08 257.381C1452.06 257.381 1454.48 259.796 1454.48 262.775V262.775C1454.48 265.753 1452.06 268.168 1449.08 268.168L1212.52 268.168C1209.55 268.168 1207.13 265.753 1207.13 262.775V262.775Z" fill="#775654"/>
</g>
<path d="M784.842 529.626C728.424 421.188 860.267 311.128 990.167 358.224L1011.64 366.011C1051.3 380.39 1096.33 380.389 1135.99 366.011L1157.47 358.224C1287.37 311.128 1419.21 421.188 1362.79 529.626L1353.47 547.555C1336.24 580.662 1336.24 618.25 1353.47 651.357L1362.79 669.286C1419.21 777.724 1287.37 887.784 1157.47 840.688L1135.99 832.901C1096.33 818.522 1051.3 818.522 1011.64 832.901L990.167 840.688C860.267 887.784 728.424 777.724 784.842 669.286L794.17 651.357C811.394 618.25 811.394 580.662 794.17 547.555L784.842 529.626Z" fill="#FCAAC3" fill-opacity="0.3"/>
<path d="M914.911 -337.74C978.154 -443.522 1163.9 -429.959 1204.18 -316.618L1210.84 -297.878C1223.14 -263.275 1252.08 -234.481 1290.77 -218.362L1311.72 -209.634C1438.44 -156.84 1422.19 -1.78309 1286.42 31.8439L1263.97 37.4037C1222.52 47.6702 1188.03 71.8321 1168.72 104.128L1158.26 121.618C1095.02 227.4 909.274 213.837 868.992 100.495L862.332 81.7558C850.033 47.1521 821.089 18.3582 782.402 2.23991L761.45 -6.48892C634.732 -59.2828 650.98 -214.34 786.753 -247.967L809.201 -253.526C850.654 -263.793 885.146 -287.955 904.455 -320.251L914.911 -337.74Z" fill="#8CFDEB"/>
<mask id="mask0_15_12" style="mask-type:luminance" x="406" y="-752" width="468" height="1011">
<path d="M852.79 -751.067H427.214C415.963 -751.067 406.841 -741.945 406.841 -730.694V238.169C406.841 249.421 415.963 258.542 427.214 258.542H852.79C864.042 258.542 873.163 249.421 873.163 238.169V-730.694C873.163 -741.945 864.042 -751.067 852.79 -751.067Z" fill="white"/>
</mask>
<g mask="url(#mask0_15_12)">
<g clip-path="url(#clip1_15_12)">
<rect width="474.244" height="261.457" transform="translate(403.444 -0.650269)" fill="#FE7676"/>
</g>
<mask id="mask1_15_12" style="mask-type:luminance" x="443" y="36" width="68" height="69">
<path d="M477.013 104.609C495.766 104.609 510.968 89.407 510.968 70.6539C510.968 51.9009 495.766 36.6985 477.013 36.6985C458.26 36.6985 443.057 51.9009 443.057 70.6539C443.057 89.407 458.26 104.609 477.013 104.609Z" fill="white"/>
</mask>
<g mask="url(#mask1_15_12)">
<path d="M584.985 36.84H443.201V104.468H584.985V36.84Z" fill="#FFD9D9"/>
<path d="M537.601 21.6617H435.201V124.062H537.601V21.6617Z" fill="#FFD9D9"/>
<path fill-rule="evenodd" clip-rule="evenodd" d="M419.447 16.1095L419.802 15.7541H590.414L590.77 16.1095V186.721L590.414 187.077H419.802L419.447 186.721V16.1095ZM420.158 16.465V186.366H590.059V16.465H420.158Z" fill="#A03535"/>
<path d="M470.148 73.2279C469.262 74.7653 467.601 75.8028 465.697 75.8028C462.867 75.8028 460.556 73.4919 460.556 70.6529C460.556 67.8138 462.858 65.503 465.697 65.503C467.601 65.503 469.262 66.5405 470.148 68.078H476.723C475.553 63.079 471.064 59.3345 465.697 59.3345C459.462 59.3345 454.378 64.4089 454.378 70.6529C454.378 76.8969 459.452 81.9713 465.697 81.9713C471.054 81.9713 475.553 78.2362 476.723 73.2279H470.148Z" fill="#A03535"/>
<path d="M487.826 67.5693H476.507V73.7473H487.826V67.5693Z" fill="#A03535"/>
<path d="M499.65 73.2272V79.924H495.538V77.8489C495.538 76.7171 494.613 75.8022 493.473 75.8022C492.341 75.8022 491.416 76.7171 491.416 77.8584V79.9145H487.304V73.2272H499.65Z" fill="#A03535"/>
<path d="M499.65 67.5693H487.294V73.7473H499.65V67.5693Z" fill="#A03535"/>
<path d="M476.589 67.5693H469.807V67.5882C470.457 68.4371 470.845 69.5029 470.845 70.6536C470.845 71.8044 470.448 72.8701 469.807 73.7285V73.7473H476.589C476.863 72.7569 477.013 71.7289 477.013 70.6536C477.013 69.5878 476.863 68.5503 476.589 67.5693Z" fill="#A03535"/>
<path fill-rule="evenodd" clip-rule="evenodd" d="M431.262 29.5387H543.508V141.785H431.262V29.5387ZM431.73 30.0064V141.317H543.041V30.0064H431.73Z" fill="#A03535"/>
</g>
<path d="M619.629 70.6539C619.629 51.9009 604.426 36.6985 585.673 36.6985C566.92 36.6985 551.718 51.9009 551.718 70.6539C551.718 89.407 566.92 104.609 585.673 104.609C604.426 104.609 619.629 89.407 619.629 70.6539Z" fill="#FFD9D9"/>
<path d="M585.674 95.553L560.773 70.6525L585.674 45.7519L610.575 70.6525L585.674 95.553Z" fill="#A03535"/>
<path d="M574.146 84.0251L560.773 70.6526L585.674 45.7519L598.125 58.2022L574.146 84.0251Z" fill="#A03535"/>
<path d="M585.672 53.1313H603.195V70.654H585.672V53.1313Z" fill="#A03535"/>
<path d="M568.147 70.6522H603.193V88.1748H568.147V70.6522Z" fill="#A03535"/>
<path d="M585.672 70.6522H603.195V88.1748H585.672V70.6522Z" fill="#A03535"/>
<path d="M568.147 53.1313H585.671V70.654H568.147V53.1313Z" fill="#A03535"/>
<path d="M585.689 53.0653C581.02 53.0653 576.541 54.9202 573.239 58.2219C569.938 61.5236 568.083 66.0017 568.083 70.671C568.083 75.3403 569.938 79.8185 573.239 83.1202C576.541 86.4218 581.02 88.2768 585.689 88.2768C590.359 88.2768 594.836 86.4218 598.138 83.1202C601.439 79.8185 603.295 75.3403 603.295 70.671C603.295 66.0017 601.439 61.5236 598.138 58.2219C594.836 54.9202 590.359 53.0653 585.689 53.0653Z" fill="#A03535"/>
<path d="M596.553 68.3935C596.691 69.159 596.764 69.9612 596.764 70.7913C596.764 77.3393 592.393 81.9782 585.79 81.9782C584.278 81.9782 582.793 81.683 581.4 81.1113C580.016 80.5395 578.753 79.6909 577.693 78.6304C576.632 77.5699 575.783 76.3064 575.202 74.9138C574.64 73.5304 574.335 72.0455 574.335 70.5423C574.335 69.039 574.64 67.545 575.212 66.1616C575.783 64.769 576.632 63.5055 577.693 62.445C578.753 61.3845 580.016 60.5359 581.4 59.9642C582.793 59.3924 584.278 59.0972 585.781 59.0972C588.871 59.0972 591.452 60.2316 593.435 62.0761L590.207 65.3039V65.2948C589.009 64.1511 587.486 63.5609 585.781 63.5609C582.008 63.5609 578.938 66.7519 578.938 70.5331C578.938 74.3143 582.008 77.5052 585.781 77.5052C589.211 77.5052 591.545 75.5409 592.024 72.8572H585.781V68.3935H596.553Z" fill="#FFD9D9"/>
<path d="M728.287 70.6539C728.287 51.9009 713.085 36.6985 694.332 36.6985C675.579 36.6985 660.376 51.9009 660.376 70.6539C660.376 89.407 675.579 104.609 694.332 104.609C713.085 104.609 728.287 89.407 728.287 70.6539Z" fill="#FFD9D9"/>
<path d="M700.339 80.355V54.1609H693.548V80.355H700.339Z" fill="#A03535"/>
<path d="M711.304 60.9515V50.2798H693.548V60.9515H711.304Z" fill="#A03535"/>
<path fill-rule="evenodd" clip-rule="evenodd" d="M688.842 84.9057C691.437 84.9057 693.542 82.8013 693.542 80.2053C693.542 77.6094 691.437 75.5049 688.842 75.5049C686.245 75.5049 684.141 77.6094 684.141 80.2053C684.141 82.8013 686.245 84.9057 688.842 84.9057ZM688.842 91.6968C695.188 91.6968 700.334 86.5519 700.334 80.2053C700.334 73.8588 695.188 68.7139 688.842 68.7139C682.496 68.7139 677.35 73.8588 677.35 80.2053C677.35 86.5519 682.496 91.6968 688.842 91.6968Z" fill="#A03535"/>
<path d="M700.339 60.9515V50.2798H693.548V60.9515H700.339Z" fill="#A03535"/>
<path d="M836.941 70.6539C836.941 51.9009 821.739 36.6985 802.986 36.6985C784.233 36.6985 769.03 51.9009 769.03 70.6539C769.03 89.407 784.233 104.609 802.986 104.609C821.739 104.609 836.941 89.407 836.941 70.6539Z" fill="#FFD9D9"/>
<mask id="mask2_15_12" style="mask-type:luminance" x="443" y="145" width="394" height="60">
<path d="M807.513 145.355H472.485C456.233 145.355 443.057 158.531 443.057 174.783C443.057 191.036 456.233 204.211 472.485 204.211H807.513C823.766 204.211 836.941 191.036 836.941 174.783C836.941 158.531 823.766 145.355 807.513 145.355Z" fill="white"/>
</mask>
<g mask="url(#mask2_15_12)">
<path d="M836.941 145.355H443.057V204.211H836.941V145.355Z" fill="#FEEEEE"/>
<mask id="mask3_15_12" style="mask-type:luminance" x="460" y="161" width="28" height="29">
<path d="M487.201 161.202H460.036V189.003H487.201V161.202Z" fill="white"/>
</mask>
<g mask="url(#mask3_15_12)">
<path d="M487.188 175.362C487.188 174.223 487.095 173.391 486.894 172.53H473.888V177.671H481.523C481.369 178.949 480.538 180.872 478.691 182.166L478.665 182.338L482.777 185.523L483.062 185.552C485.679 183.134 487.188 179.579 487.188 175.362Z" fill="#E23D3D"/>
<path d="M473.889 188.908C477.629 188.908 480.769 187.676 483.062 185.553L478.691 182.166C477.521 182.981 475.951 183.552 473.889 183.552C470.225 183.552 467.117 181.135 466.008 177.795L465.846 177.809L461.57 181.118L461.513 181.273C463.791 185.798 468.47 188.908 473.889 188.908Z" fill="#8F2D2D"/>
<path d="M466.008 177.795C465.716 176.932 465.546 176.009 465.546 175.054C465.546 174.1 465.716 173.177 465.993 172.314L465.986 172.131L461.656 168.769L461.514 168.836C460.575 170.714 460.036 172.822 460.036 175.054C460.036 177.286 460.575 179.395 461.514 181.273L466.008 177.795Z" fill="#E23D3D"/>
<path d="M473.889 166.558C476.49 166.558 478.244 167.681 479.244 168.621L483.155 164.803C480.753 162.571 477.629 161.202 473.889 161.202C468.47 161.202 463.791 164.311 461.513 168.836L465.993 172.314C467.117 168.974 470.225 166.558 473.889 166.558Z" fill="#F97878"/>
</g>
</g>
<path d="M679.614 247.22H600.385C599.76 247.22 599.253 247.727 599.253 248.352C599.253 248.977 599.76 249.484 600.385 249.484H679.614C680.239 249.484 680.746 248.977 680.746 248.352C680.746 247.727 680.239 247.22 679.614 247.22Z" fill="#FFD9D9"/>
<path fill-rule="evenodd" clip-rule="evenodd" d="M792.127 60.1037L783.362 67.9075L790.45 71.4754C791.523 69.1059 792.622 67.0887 793.747 65.4236C794.873 63.7587 796.394 61.918 798.312 59.9013L795.79 59.229C795.146 59.0513 794.497 59.0432 793.845 59.2046C793.193 59.365 792.621 59.6647 792.127 60.1037ZM796.668 66.47C795.216 68.5136 794.061 70.6912 793.202 73.003L800.512 81.2134C802.957 80.5837 805.272 79.6715 807.458 78.4768C809.644 77.2829 811.698 75.8298 813.621 74.1177C816.703 71.3736 819.063 68.1782 820.701 64.531C822.338 60.8859 822.971 57.4391 822.599 54.1907C819.415 53.4448 815.917 53.6745 812.108 54.8797C808.296 56.0849 804.849 58.0594 801.767 60.8033C799.819 62.5375 798.119 64.4263 796.668 66.47ZM801.712 84.124L804.435 91.5773L813.201 83.7736C813.693 83.3345 814.058 82.8005 814.294 82.1717C814.529 81.5418 814.595 80.8966 814.494 80.236L814.117 77.6538C811.893 79.3251 809.888 80.6234 808.103 81.5487C806.319 82.4741 804.189 83.3325 801.712 84.124ZM809.261 62.9253C808.436 62.6784 807.559 62.6658 806.727 62.8889C806.049 63.0705 805.4 63.4079 804.841 63.9064C804.385 64.3118 804.014 64.803 803.748 65.3521C803.482 65.9011 803.327 66.4972 803.292 67.1061C803.257 67.715 803.341 68.325 803.542 68.901C803.742 69.4771 804.055 70.0081 804.461 70.4634C805.294 71.4 806.303 71.909 807.345 72.0107C808.532 72.1297 809.759 71.716 810.815 70.7752C811.061 70.5563 811.278 70.3235 811.468 70.0806L808.559 66.8136L807.218 68.0082L808.881 69.8752C808.634 70.0255 808.359 70.1242 808.073 70.1654C807.787 70.2066 807.496 70.1894 807.217 70.1148C806.732 69.9893 806.255 69.7018 805.839 69.2352C805.036 68.3316 804.965 67.0238 805.542 66.0211C805.689 65.7665 805.876 65.5293 806.104 65.3255C806.333 65.1216 806.59 64.9635 806.86 64.8476C807.922 64.3901 809.213 64.6114 810.018 65.5151C810.472 66.0243 810.704 66.6374 810.68 67.3032L812.56 67.4119C812.586 66.3128 812.23 65.2217 811.398 64.2869C810.825 63.6436 810.086 63.1722 809.261 62.9253Z" fill="#A03535"/>
<path d="M783.354 67.9136L792.119 60.1098C792.612 59.6707 793.185 59.371 793.837 59.2106C794.489 59.0492 795.138 59.0574 795.782 59.2351L798.303 59.9075C796.386 61.924 794.865 63.7648 793.739 65.4298C792.614 67.0947 791.514 69.112 790.441 71.4815L783.354 67.9136Z" fill="#A03535"/>
<path d="M804.433 91.5768L801.709 84.1235C804.186 83.332 806.317 82.4735 808.101 81.5482C809.885 80.6229 811.89 79.3246 814.114 77.6533L814.491 80.2355C814.593 80.8961 814.526 81.5413 814.292 82.1712C814.055 82.8 813.69 83.3341 813.198 83.7731L804.433 91.5768Z" fill="#A03535"/>
<path d="M787.805 77.6681C788.887 76.6775 790.17 76.2073 791.651 76.2575C793.133 76.3089 794.369 76.8759 795.359 77.9584C796.349 79.0408 796.811 80.3223 796.746 81.803C796.681 83.2838 796.106 84.5194 795.024 85.5099C794.251 86.2176 792.987 86.7994 791.231 87.2558C789.475 87.712 787.061 88.0799 783.993 88.3592C784.543 85.3274 785.123 82.9644 785.732 81.2704C786.34 79.5763 787.032 78.3756 787.805 77.6681Z" fill="#A03535"/>
</g>
<path fill-rule="evenodd" clip-rule="evenodd" d="M427.213 -751.067C415.961 -751.067 406.84 -741.946 406.84 -730.694V238.166C406.84 249.418 415.961 258.539 427.213 258.539H852.787C864.039 258.539 873.16 249.418 873.16 238.166V-730.694C873.16 -741.946 864.039 -751.067 852.787 -751.067H427.213ZM397.785 -730.694C397.785 -746.947 410.961 -760.122 427.213 -760.122H852.787C869.04 -760.122 882.215 -746.947 882.215 -730.694V238.166C882.215 254.419 869.04 267.594 852.787 267.594H427.213C410.961 267.594 397.785 254.419 397.785 238.166V-730.694Z" fill="#4A454E"/>
<path d="M215.868 366.893H240.974C241.117 367.465 241.236 368.156 241.332 368.967C241.427 369.778 241.475 370.588 241.475 371.399C241.475 374.689 240.974 377.788 239.973 380.697C238.971 383.606 237.398 386.205 235.252 388.494C232.963 390.925 230.221 392.809 227.026 394.144C223.832 395.479 220.184 396.147 216.083 396.147C212.364 396.147 208.859 395.479 205.569 394.144C202.278 392.809 199.417 390.949 196.985 388.565C194.554 386.181 192.622 383.368 191.192 380.125C189.761 376.835 189.046 373.259 189.046 369.396C189.046 365.534 189.761 361.981 191.192 358.739C192.622 355.448 194.554 352.611 196.985 350.227C199.417 347.843 202.278 345.983 205.569 344.648C208.859 343.313 212.364 342.645 216.083 342.645C220.231 342.645 223.927 343.361 227.169 344.791C230.46 346.222 233.273 348.2 235.61 350.728L228.958 357.237C227.289 355.472 225.429 354.137 223.379 353.231C221.328 352.277 218.872 351.801 216.011 351.801C213.675 351.801 211.458 352.23 209.359 353.088C207.261 353.899 205.426 355.067 203.852 356.593C202.278 358.119 201.015 359.978 200.061 362.172C199.155 364.318 198.702 366.726 198.702 369.396C198.702 372.066 199.155 374.498 200.061 376.692C201.015 378.838 202.278 380.673 203.852 382.199C205.473 383.725 207.333 384.917 209.431 385.776C211.529 386.586 213.77 386.992 216.154 386.992C218.872 386.992 221.161 386.61 223.021 385.847C224.928 385.036 226.55 384.011 227.885 382.771C228.838 381.913 229.649 380.84 230.317 379.553C231.032 378.218 231.58 376.739 231.962 375.118H215.868V366.893ZM264.928 358.81C267.646 358.81 270.125 359.287 272.367 360.241C274.655 361.147 276.61 362.434 278.232 364.103C279.901 365.724 281.188 367.679 282.094 369.968C283.048 372.257 283.525 374.761 283.525 377.479C283.525 380.197 283.048 382.7 282.094 384.989C281.188 387.278 279.901 389.257 278.232 390.925C276.61 392.547 274.655 393.834 272.367 394.788C270.125 395.694 267.646 396.147 264.928 396.147C262.21 396.147 259.706 395.694 257.418 394.788C255.176 393.834 253.221 392.547 251.552 390.925C249.931 389.257 248.644 387.278 247.69 384.989C246.784 382.7 246.331 380.197 246.331 377.479C246.331 374.761 246.784 372.257 247.69 369.968C248.644 367.679 249.931 365.724 251.552 364.103C253.221 362.434 255.176 361.147 257.418 360.241C259.706 359.287 262.21 358.81 264.928 358.81ZM264.928 387.492C266.12 387.492 267.264 387.278 268.361 386.848C269.506 386.372 270.507 385.704 271.365 384.846C272.224 383.987 272.891 382.938 273.368 381.699C273.892 380.459 274.155 379.052 274.155 377.479C274.155 375.905 273.892 374.498 273.368 373.258C272.891 372.019 272.224 370.97 271.365 370.111C270.507 369.253 269.506 368.609 268.361 368.18C267.264 367.703 266.12 367.465 264.928 367.465C263.688 367.465 262.52 367.703 261.423 368.18C260.326 368.609 259.349 369.253 258.491 370.111C257.632 370.97 256.941 372.019 256.416 373.258C255.939 374.498 255.701 375.905 255.701 377.479C255.701 379.052 255.939 380.459 256.416 381.699C256.941 382.938 257.632 383.987 258.491 384.846C259.349 385.704 260.326 386.372 261.423 386.848C262.52 387.278 263.688 387.492 264.928 387.492ZM306.511 358.81C309.229 358.81 311.709 359.287 313.95 360.241C316.239 361.147 318.194 362.434 319.815 364.103C321.484 365.724 322.772 367.679 323.678 369.968C324.631 372.257 325.108 374.761 325.108 377.479C325.108 380.197 324.631 382.7 323.678 384.989C322.772 387.278 321.484 389.257 319.815 390.925C318.194 392.547 316.239 393.834 313.95 394.788C311.709 395.694 309.229 396.147 306.511 396.147C303.793 396.147 301.29 395.694 299.001 394.788C296.76 393.834 294.805 392.547 293.136 390.925C291.515 389.257 290.227 387.278 289.274 384.989C288.368 382.7 287.915 380.197 287.915 377.479C287.915 374.761 288.368 372.257 289.274 369.968C290.227 367.679 291.515 365.724 293.136 364.103C294.805 362.434 296.76 361.147 299.001 360.241C301.29 359.287 303.793 358.81 306.511 358.81ZM306.511 387.492C307.704 387.492 308.848 387.278 309.945 386.848C311.089 386.372 312.09 385.704 312.949 384.846C313.807 383.987 314.475 382.938 314.951 381.699C315.476 380.459 315.738 379.052 315.738 377.479C315.738 375.905 315.476 374.498 314.951 373.258C314.475 372.019 313.807 370.97 312.949 370.111C312.09 369.253 311.089 368.609 309.945 368.18C308.848 367.703 307.704 367.465 306.511 367.465C305.272 367.465 304.103 367.703 303.007 368.18C301.91 368.609 300.932 369.253 300.074 370.111C299.216 370.97 298.524 372.019 298 373.258C297.523 374.498 297.285 375.905 297.285 377.479C297.285 379.052 297.523 380.459 298 381.699C298.524 382.938 299.216 383.987 300.074 384.846C300.932 385.704 301.91 386.372 303.007 386.848C304.103 387.278 305.272 387.492 306.511 387.492ZM347.667 411.596C345.188 411.596 342.97 411.263 341.015 410.595C339.108 409.975 337.439 409.141 336.009 408.092C334.578 407.09 333.386 405.97 332.432 404.73C331.479 403.49 330.787 402.25 330.358 401.011L339.299 397.434C339.966 399.294 341.063 400.725 342.589 401.726C344.115 402.775 345.808 403.299 347.667 403.299C350.624 403.299 352.96 402.37 354.677 400.51C356.393 398.698 357.252 396.147 357.252 392.857V390.425H356.68C355.583 391.951 354.128 393.167 352.316 394.073C350.552 394.931 348.454 395.36 346.022 395.36C343.924 395.36 341.874 394.931 339.871 394.073C337.916 393.214 336.175 391.998 334.65 390.425C333.124 388.804 331.884 386.872 330.93 384.631C329.976 382.39 329.5 379.887 329.5 377.121C329.5 374.355 329.976 371.852 330.93 369.611C331.884 367.322 333.124 365.391 334.65 363.817C336.175 362.196 337.916 360.956 339.871 360.098C341.874 359.239 343.924 358.81 346.022 358.81C348.454 358.81 350.552 359.263 352.316 360.169C354.128 361.028 355.583 362.22 356.68 363.745H357.252V359.955H366.193V392.499C366.193 395.455 365.74 398.102 364.834 400.438C363.928 402.823 362.664 404.825 361.043 406.447C359.421 408.116 357.466 409.379 355.178 410.238C352.936 411.144 350.433 411.596 347.667 411.596ZM348.025 386.92C349.169 386.92 350.29 386.705 351.387 386.276C352.531 385.847 353.532 385.227 354.391 384.417C355.249 383.558 355.94 382.533 356.465 381.341C356.99 380.101 357.252 378.694 357.252 377.121C357.252 375.547 356.99 374.141 356.465 372.901C355.94 371.661 355.249 370.636 354.391 369.825C353.532 368.967 352.531 368.323 351.387 367.894C350.29 367.465 349.169 367.25 348.025 367.25C346.88 367.25 345.76 367.465 344.663 367.894C343.566 368.323 342.589 368.967 341.731 369.825C340.872 370.684 340.181 371.733 339.656 372.972C339.132 374.165 338.87 375.547 338.87 377.121C338.87 378.694 339.132 380.101 339.656 381.341C340.181 382.533 340.872 383.558 341.731 384.417C342.589 385.227 343.566 385.847 344.663 386.276C345.76 386.705 346.88 386.92 348.025 386.92ZM374.552 395.002V343.79H383.922V395.002H374.552ZM425.157 386.562C423.536 389.423 421.342 391.736 418.577 393.5C415.859 395.265 412.521 396.147 408.563 396.147C405.893 396.147 403.413 395.694 401.124 394.788C398.883 393.834 396.928 392.523 395.259 390.854C393.59 389.185 392.279 387.23 391.325 384.989C390.419 382.7 389.966 380.197 389.966 377.479C389.966 374.951 390.419 372.567 391.325 370.326C392.231 368.037 393.495 366.058 395.116 364.389C396.737 362.673 398.645 361.314 400.838 360.312C403.079 359.311 405.535 358.81 408.205 358.81C411.019 358.81 413.522 359.287 415.716 360.241C417.909 361.147 419.745 362.434 421.223 364.103C422.701 365.724 423.822 367.656 424.585 369.897C425.348 372.138 425.729 374.57 425.729 377.192C425.729 377.526 425.729 377.812 425.729 378.051C425.681 378.337 425.658 378.599 425.658 378.838C425.61 379.076 425.586 379.338 425.586 379.624H399.193C399.384 381.055 399.765 382.295 400.337 383.344C400.957 384.345 401.696 385.203 402.555 385.919C403.461 386.586 404.438 387.087 405.487 387.421C406.536 387.707 407.609 387.85 408.706 387.85C410.852 387.85 412.616 387.373 413.999 386.419C415.429 385.418 416.55 384.178 417.361 382.7L425.157 386.562ZM416.645 372.972C416.598 372.353 416.383 371.661 416.002 370.898C415.668 370.135 415.143 369.42 414.428 368.752C413.76 368.085 412.902 367.536 411.853 367.107C410.852 366.678 409.636 366.464 408.205 366.464C406.203 366.464 404.438 367.036 402.912 368.18C401.386 369.325 400.314 370.922 399.694 372.972H416.645ZM464.41 396.147C462.36 396.147 460.357 395.837 458.402 395.217C456.494 394.645 454.706 393.763 453.037 392.571C451.416 391.378 449.986 389.9 448.746 388.136C447.506 386.372 446.552 384.321 445.885 381.985L453.61 378.838C453.943 380.173 454.42 381.436 455.04 382.628C455.708 383.773 456.494 384.774 457.4 385.633C458.354 386.491 459.403 387.182 460.548 387.707C461.74 388.184 463.051 388.422 464.481 388.422C465.674 388.422 466.818 388.279 467.915 387.993C469.011 387.659 469.965 387.182 470.776 386.562C471.586 385.942 472.23 385.18 472.707 384.274C473.232 383.368 473.494 382.318 473.494 381.126C473.494 380.077 473.303 379.124 472.922 378.265C472.54 377.407 471.944 376.62 471.133 375.905C470.323 375.19 469.25 374.522 467.915 373.902C466.58 373.235 464.982 372.567 463.123 371.9L459.904 370.755C458.521 370.278 457.09 369.658 455.612 368.895C454.182 368.085 452.87 367.131 451.678 366.034C450.534 364.89 449.58 363.555 448.817 362.029C448.102 360.503 447.744 358.715 447.744 356.664C447.744 354.757 448.126 352.969 448.889 351.3C449.699 349.583 450.82 348.081 452.25 346.794C453.681 345.506 455.374 344.505 457.329 343.79C459.332 343.027 461.525 342.645 463.909 342.645C466.389 342.645 468.558 343.003 470.418 343.718C472.326 344.386 473.923 345.244 475.21 346.293C476.498 347.342 477.523 348.51 478.286 349.798C479.097 351.038 479.693 352.206 480.074 353.303L472.779 356.378C472.54 355.663 472.182 354.948 471.706 354.233C471.276 353.47 470.704 352.802 469.989 352.23C469.274 351.658 468.415 351.181 467.414 350.799C466.46 350.418 465.34 350.227 464.052 350.227C462.908 350.227 461.835 350.394 460.834 350.728C459.832 351.014 458.95 351.443 458.187 352.015C457.472 352.587 456.9 353.255 456.471 354.018C456.041 354.781 455.827 355.615 455.827 356.521C455.827 358.333 456.566 359.812 458.044 360.956C459.57 362.053 461.787 363.102 464.696 364.103L467.915 365.248C469.917 365.915 471.753 366.702 473.422 367.608C475.091 368.514 476.546 369.611 477.785 370.898C479.025 372.138 479.979 373.592 480.646 375.261C481.362 376.93 481.719 378.861 481.719 381.055C481.719 383.725 481.171 386.014 480.074 387.921C479.025 389.781 477.666 391.331 475.997 392.571C474.328 393.81 472.469 394.716 470.418 395.289C468.368 395.861 466.365 396.147 464.41 396.147ZM488.92 343.79H496.859V359.025L496.43 364.675H496.859C497.86 363.006 499.339 361.624 501.294 360.527C503.249 359.382 505.418 358.81 507.803 358.81C510.091 358.81 512.07 359.168 513.739 359.883C515.408 360.551 516.791 361.528 517.888 362.816C518.984 364.103 519.795 365.653 520.32 367.465C520.844 369.229 521.106 371.184 521.106 373.33V395.002H513.167V374.403C513.167 371.494 512.452 369.396 511.021 368.109C509.638 366.821 507.874 366.177 505.728 366.177C504.345 366.177 503.106 366.487 502.009 367.107C500.96 367.679 500.03 368.466 499.219 369.468C498.456 370.469 497.86 371.613 497.431 372.901C497.05 374.188 496.859 375.523 496.859 376.906V395.002H488.92V343.79ZM545.485 358.81C548.155 358.81 550.611 359.287 552.852 360.241C555.093 361.147 557.024 362.434 558.646 364.103C560.267 365.772 561.531 367.751 562.437 370.04C563.343 372.329 563.796 374.808 563.796 377.479C563.796 380.149 563.343 382.628 562.437 384.917C561.531 387.206 560.267 389.185 558.646 390.854C557.024 392.523 555.093 393.834 552.852 394.788C550.611 395.694 548.155 396.147 545.485 396.147C542.815 396.147 540.359 395.694 538.118 394.788C535.877 393.834 533.945 392.523 532.324 390.854C530.703 389.185 529.439 387.206 528.533 384.917C527.627 382.628 527.174 380.149 527.174 377.479C527.174 374.808 527.627 372.329 528.533 370.04C529.439 367.751 530.703 365.772 532.324 364.103C533.945 362.434 535.877 361.147 538.118 360.241C540.359 359.287 542.815 358.81 545.485 358.81ZM545.485 388.78C546.82 388.78 548.108 388.517 549.347 387.993C550.587 387.468 551.684 386.729 552.638 385.776C553.639 384.822 554.426 383.654 554.998 382.271C555.57 380.84 555.856 379.243 555.856 377.479C555.856 375.714 555.57 374.141 554.998 372.758C554.426 371.327 553.639 370.135 552.638 369.182C551.684 368.228 550.587 367.489 549.347 366.964C548.108 366.44 546.82 366.177 545.485 366.177C544.15 366.177 542.862 366.44 541.622 366.964C540.383 367.489 539.262 368.228 538.261 369.182C537.307 370.135 536.544 371.327 535.972 372.758C535.4 374.141 535.114 375.714 535.114 377.479C535.114 379.243 535.4 380.84 535.972 382.271C536.544 383.654 537.307 384.822 538.261 385.776C539.262 386.729 540.383 387.468 541.622 387.993C542.862 388.517 544.15 388.78 545.485 388.78ZM577.013 365.248H577.442C578.396 363.245 579.826 361.695 581.734 360.598C583.689 359.502 585.835 358.953 588.171 358.953C588.934 358.953 589.482 358.977 589.816 359.025C590.198 359.072 590.579 359.144 590.961 359.239V367.25C590.436 367.06 589.912 366.94 589.387 366.893C588.91 366.797 588.267 366.75 587.456 366.75C584.452 366.75 582.02 367.679 580.16 369.539C578.348 371.351 577.442 373.759 577.442 376.763V395.002H569.503V359.955H577.013V365.248ZM601.69 366.964H595.538V359.955H601.69V349.226H609.629V359.955H618.284V366.964H609.629V382.557C609.629 383.415 609.724 384.202 609.915 384.917C610.106 385.633 610.392 386.229 610.773 386.705C611.584 387.611 612.609 388.064 613.849 388.064C614.612 388.064 615.208 388.017 615.637 387.921C616.066 387.778 616.519 387.588 616.996 387.349L619.428 394.359C618.427 394.74 617.378 395.026 616.281 395.217C615.184 395.455 613.944 395.575 612.562 395.575C610.893 395.575 609.414 395.312 608.127 394.788C606.839 394.263 605.719 393.548 604.765 392.642C602.715 390.592 601.69 387.802 601.69 384.274V366.964ZM657.319 386.062C656.652 387.445 655.817 388.756 654.816 389.996C653.862 391.188 652.718 392.261 651.382 393.214C650.095 394.12 648.593 394.836 646.876 395.36C645.16 395.885 643.276 396.147 641.226 396.147C638.555 396.147 636.1 395.694 633.859 394.788C631.617 393.834 629.686 392.523 628.065 390.854C626.444 389.185 625.18 387.206 624.274 384.917C623.368 382.628 622.915 380.149 622.915 377.479C622.915 374.808 623.368 372.329 624.274 370.04C625.18 367.751 626.444 365.772 628.065 364.103C629.686 362.434 631.617 361.147 633.859 360.241C636.1 359.287 638.555 358.81 641.226 358.81C643.276 358.81 645.136 359.072 646.805 359.597C648.521 360.122 650.023 360.861 651.311 361.814C652.646 362.72 653.79 363.793 654.744 365.033C655.698 366.225 656.461 367.489 657.033 368.824L649.737 371.9C648.927 370.088 647.806 368.681 646.376 367.679C644.945 366.678 643.133 366.177 640.94 366.177C639.604 366.177 638.317 366.464 637.077 367.036C635.885 367.56 634.812 368.323 633.859 369.325C632.953 370.278 632.213 371.446 631.641 372.829C631.117 374.212 630.854 375.762 630.854 377.479C630.854 379.195 631.117 380.745 631.641 382.128C632.213 383.511 632.953 384.703 633.859 385.704C634.812 386.658 635.885 387.421 637.077 387.993C638.317 388.517 639.604 388.78 640.94 388.78C643.133 388.78 644.993 388.279 646.519 387.278C648.092 386.229 649.308 384.798 650.166 382.986L657.319 386.062ZM687.819 390.282H687.39C686.341 391.951 684.839 393.357 682.884 394.502C680.976 395.599 678.807 396.147 676.375 396.147C671.94 396.147 668.626 394.836 666.433 392.213C664.239 389.543 663.143 386.014 663.143 381.627V359.955H671.082V380.554C671.082 383.606 671.773 385.752 673.156 386.992C674.587 388.184 676.446 388.78 678.735 388.78C680.07 388.78 681.262 388.494 682.312 387.921C683.408 387.349 684.338 386.586 685.101 385.633C685.864 384.631 686.436 383.511 686.818 382.271C687.199 380.983 687.39 379.648 687.39 378.265V359.955H695.329V395.002H687.819V390.282ZM707.897 366.964H701.746V359.955H707.897V349.226H715.836V359.955H724.491V366.964H715.836V382.557C715.836 383.415 715.932 384.202 716.123 384.917C716.313 385.633 716.599 386.229 716.981 386.705C717.792 387.611 718.817 388.064 720.056 388.064C720.819 388.064 721.416 388.017 721.845 387.921C722.274 387.778 722.727 387.588 723.204 387.349L725.636 394.359C724.634 394.74 723.585 395.026 722.488 395.217C721.392 395.455 720.152 395.575 718.769 395.575C717.1 395.575 715.622 395.312 714.334 394.788C713.047 394.263 711.926 393.548 710.973 392.642C708.922 390.592 707.897 387.802 707.897 384.274V366.964ZM745.441 396.147C743.295 396.147 741.364 395.861 739.647 395.289C737.931 394.716 736.429 393.977 735.141 393.071C733.854 392.118 732.757 391.045 731.851 389.853C730.993 388.66 730.325 387.421 729.848 386.133L737.001 383.129C737.811 385.18 738.98 386.705 740.506 387.707C742.031 388.66 743.677 389.137 745.441 389.137C747.444 389.137 749.017 388.732 750.162 387.921C751.306 387.111 751.878 386.205 751.878 385.203C751.878 384.202 751.449 383.344 750.591 382.628C749.732 381.865 748.111 381.198 745.727 380.626L740.72 379.41C739.623 379.171 738.503 378.814 737.358 378.337C736.262 377.812 735.236 377.169 734.283 376.406C733.329 375.595 732.542 374.641 731.922 373.545C731.35 372.4 731.064 371.065 731.064 369.539C731.064 367.822 731.422 366.297 732.137 364.961C732.9 363.626 733.925 362.506 735.213 361.6C736.5 360.694 737.978 360.002 739.647 359.525C741.364 359.049 743.176 358.81 745.083 358.81C746.657 358.81 748.159 358.977 749.589 359.311C751.068 359.645 752.427 360.145 753.666 360.813C754.906 361.481 756.003 362.339 756.957 363.388C757.958 364.389 758.745 365.581 759.317 366.964L752.307 369.897C751.64 368.371 750.591 367.274 749.16 366.607C747.73 365.891 746.275 365.534 744.797 365.534C744.13 365.534 743.438 365.629 742.723 365.82C742.055 365.963 741.435 366.201 740.863 366.535C740.339 366.821 739.886 367.203 739.504 367.679C739.17 368.156 739.004 368.681 739.004 369.253C739.004 370.207 739.409 370.97 740.219 371.542C741.078 372.066 742.365 372.543 744.082 372.972L749.446 374.331C753.07 375.237 755.717 376.62 757.386 378.48C759.102 380.292 759.961 382.438 759.961 384.917C759.961 386.443 759.603 387.874 758.888 389.209C758.22 390.544 757.243 391.736 755.955 392.785C754.668 393.834 753.118 394.645 751.306 395.217C749.542 395.837 747.587 396.147 745.441 396.147ZM783.271 343.79H791.353V387.278H813.312V395.002H783.271V343.79ZM841.553 390.711H841.124C840.075 392.094 838.715 393.357 837.047 394.502C835.378 395.599 833.256 396.147 830.681 396.147C828.821 396.147 827.081 395.837 825.459 395.217C823.838 394.645 822.431 393.834 821.239 392.785C820.047 391.688 819.093 390.425 818.378 388.994C817.711 387.516 817.377 385.895 817.377 384.13C817.377 382.271 817.735 380.602 818.45 379.124C819.213 377.645 820.238 376.406 821.525 375.404C822.86 374.403 824.434 373.64 826.246 373.115C828.058 372.543 830.013 372.257 832.111 372.257C834.448 372.257 836.403 372.496 837.976 372.972C839.55 373.402 840.742 373.807 841.553 374.188V372.829C841.553 371.78 841.314 370.803 840.837 369.897C840.408 368.991 839.788 368.228 838.978 367.608C838.215 366.94 837.333 366.44 836.331 366.106C835.33 365.724 834.281 365.534 833.184 365.534C831.42 365.534 829.822 365.891 828.392 366.607C827.009 367.274 825.769 368.371 824.672 369.897L818.378 365.748C820.047 363.459 822.121 361.743 824.601 360.598C827.081 359.406 829.894 358.81 833.041 358.81C838.239 358.81 842.244 360.098 845.057 362.673C847.918 365.248 849.349 368.919 849.349 373.688V395.002H841.553V390.711ZM841.553 380.411C840.504 379.791 839.335 379.291 838.048 378.909C836.76 378.528 835.282 378.337 833.613 378.337C831.134 378.337 829.155 378.909 827.677 380.053C826.198 381.198 825.459 382.581 825.459 384.202C825.459 385.06 825.65 385.823 826.031 386.491C826.413 387.111 826.89 387.659 827.462 388.136C828.082 388.613 828.773 388.97 829.536 389.209C830.347 389.447 831.158 389.566 831.968 389.566C833.256 389.566 834.472 389.328 835.616 388.851C836.808 388.327 837.833 387.659 838.692 386.848C839.55 385.99 840.241 385.013 840.766 383.916C841.29 382.819 841.553 381.651 841.553 380.411ZM881.582 390.282H881.153C880.104 391.951 878.602 393.357 876.647 394.502C874.739 395.599 872.57 396.147 870.138 396.147C865.703 396.147 862.389 394.836 860.196 392.213C858.002 389.543 856.906 386.014 856.906 381.627V359.955H864.845V380.554C864.845 383.606 865.536 385.752 866.919 386.992C868.35 388.184 870.209 388.78 872.498 388.78C873.833 388.78 875.025 388.494 876.074 387.921C877.171 387.349 878.101 386.586 878.864 385.633C879.627 384.631 880.199 383.511 880.581 382.271C880.962 380.983 881.153 379.648 881.153 378.265V359.955H889.092V395.002H881.582V390.282ZM904.958 364.675H905.387C906.436 363.006 907.914 361.624 909.821 360.527C911.777 359.382 913.97 358.81 916.402 358.81C920.837 358.81 924.151 360.145 926.344 362.816C928.538 365.438 929.634 368.943 929.634 373.33V395.002H921.695V374.403C921.695 371.351 920.98 369.229 919.549 368.037C918.166 366.797 916.33 366.177 914.041 366.177C912.659 366.177 911.443 366.464 910.394 367.036C909.345 367.608 908.439 368.395 907.676 369.396C906.913 370.35 906.34 371.47 905.959 372.758C905.578 373.998 905.387 375.309 905.387 376.692V395.002H897.447V359.955H904.958V364.675ZM970.106 386.062C969.439 387.445 968.604 388.756 967.603 389.996C966.649 391.188 965.505 392.261 964.169 393.214C962.882 394.12 961.38 394.836 959.663 395.36C957.947 395.885 956.063 396.147 954.013 396.147C951.342 396.147 948.887 395.694 946.646 394.788C944.404 393.834 942.473 392.523 940.852 390.854C939.231 389.185 937.967 387.206 937.061 384.917C936.155 382.628 935.702 380.149 935.702 377.479C935.702 374.808 936.155 372.329 937.061 370.04C937.967 367.751 939.231 365.772 940.852 364.103C942.473 362.434 944.404 361.147 946.646 360.241C948.887 359.287 951.342 358.81 954.013 358.81C956.063 358.81 957.923 359.072 959.592 359.597C961.308 360.122 962.81 360.861 964.098 361.814C965.433 362.72 966.577 363.793 967.531 365.033C968.485 366.225 969.248 367.489 969.82 368.824L962.524 371.9C961.714 370.088 960.593 368.681 959.163 367.679C957.732 366.678 955.92 366.177 953.727 366.177C952.391 366.177 951.104 366.464 949.864 367.036C948.672 367.56 947.599 368.323 946.646 369.325C945.74 370.278 945 371.446 944.428 372.829C943.904 374.212 943.641 375.762 943.641 377.479C943.641 379.195 943.904 380.745 944.428 382.128C945 383.511 945.74 384.703 946.646 385.704C947.599 386.658 948.672 387.421 949.864 387.993C951.104 388.517 952.391 388.78 953.727 388.78C955.92 388.78 957.78 388.279 959.306 387.278C960.879 386.229 962.095 384.798 962.954 382.986L970.106 386.062ZM976.216 343.79H984.155V359.025L983.726 364.675H984.155C985.156 363.006 986.635 361.624 988.59 360.527C990.545 359.382 992.714 358.81 995.099 358.81C997.387 358.81 999.366 359.168 1001.04 359.883C1002.7 360.551 1004.09 361.528 1005.18 362.816C1006.28 364.103 1007.09 365.653 1007.62 367.465C1008.14 369.229 1008.4 371.184 1008.4 373.33V395.002H1000.46V374.403C1000.46 371.494 999.748 369.396 998.317 368.109C996.934 366.821 995.17 366.177 993.024 366.177C991.641 366.177 990.402 366.487 989.305 367.107C988.256 367.679 987.326 368.466 986.515 369.468C985.752 370.469 985.156 371.613 984.727 372.901C984.346 374.188 984.155 375.523 984.155 376.906V395.002H976.216V343.79ZM1048.94 386.634C1047.47 389.352 1045.37 391.617 1042.65 393.429C1039.93 395.241 1036.59 396.147 1032.64 396.147C1030.01 396.147 1027.58 395.694 1025.34 394.788C1023.15 393.834 1021.24 392.523 1019.62 390.854C1018 389.185 1016.73 387.23 1015.83 384.989C1014.92 382.7 1014.47 380.197 1014.47 377.479C1014.47 374.951 1014.9 372.567 1015.76 370.326C1016.61 368.037 1017.81 366.058 1019.33 364.389C1020.91 362.673 1022.79 361.314 1024.98 360.312C1027.18 359.311 1029.61 358.81 1032.28 358.81C1035 358.81 1037.4 359.263 1039.5 360.169C1041.65 361.075 1043.46 362.339 1044.94 363.96C1046.42 365.581 1047.54 367.536 1048.3 369.825C1049.11 372.114 1049.52 374.618 1049.52 377.336C1049.52 377.574 1049.52 377.788 1049.52 377.979C1049.47 378.218 1049.45 378.432 1049.45 378.623C1049.4 378.814 1049.37 379.004 1049.37 379.195H1022.41C1022.55 380.864 1022.96 382.318 1023.62 383.558C1024.29 384.798 1025.1 385.823 1026.06 386.634C1027.06 387.445 1028.15 388.041 1029.35 388.422C1030.54 388.804 1031.71 388.994 1032.85 388.994C1035.14 388.994 1037.02 388.446 1038.5 387.349C1039.98 386.252 1041.2 384.893 1042.15 383.272L1048.94 386.634ZM1041.58 373.115C1041.48 372.4 1041.24 371.613 1040.86 370.755C1040.53 369.849 1039.98 369.038 1039.22 368.323C1038.5 367.56 1037.55 366.916 1036.36 366.392C1035.21 365.867 1033.8 365.605 1032.14 365.605C1029.85 365.605 1027.87 366.297 1026.2 367.679C1024.58 369.015 1023.48 370.827 1022.91 373.115H1041.58ZM1055.89 359.955H1063.4V365.248H1063.83C1064.26 364.342 1064.83 363.507 1065.55 362.744C1066.31 361.934 1067.14 361.266 1068.05 360.741C1069 360.169 1069.98 359.74 1070.98 359.454C1072.03 359.12 1073.03 358.953 1073.99 358.953C1075.13 358.953 1076.11 359.049 1076.92 359.239C1077.73 359.43 1078.47 359.692 1079.14 360.026L1076.85 367.393C1076.32 367.155 1075.73 366.988 1075.06 366.893C1074.44 366.75 1073.68 366.678 1072.77 366.678C1071.48 366.678 1070.29 366.94 1069.2 367.465C1068.15 367.989 1067.22 368.705 1066.41 369.611C1065.6 370.517 1064.95 371.59 1064.47 372.829C1064.05 374.069 1063.83 375.38 1063.83 376.763V395.002H1055.89V359.955Z" fill="#4A454E"/>
</g>
<defs>
<clipPath id="clip0_15_12">
<rect width="1280" height="492.307" rx="28" fill="white"/>
</clipPath>
<clipPath id="clip1_15_12">
<rect width="474.244" height="261.457" fill="white" transform="translate(403.444 -0.650269)"/>
</clipPath>
</defs>
</svg>
